<svg xmlns="http://www.w3.org/2000/svg" width="330" viewBox="0 0 330 270" height="270" version="1.0"><defs><clipPath id="a"><path d="M 61.933594 0 L 268.140625 0 L 268.140625 237.304688 L 61.933594 237.304688 Z M 61.933594 0"/></clipPath><clipPath id="b"><path d="M 71.3125 27 L 254.773438 27 L 254.773438 270 L 71.3125 270 Z M 71.3125 27"/></clipPath></defs><g clip-path="url(#a)"><path fill="#EF2C5F" d="M 192.523438 237.191406 C 94.125 237.191406 70.246094 197.066406 62.867188 163.125 C 55.488281 129.183594 92.894531 11.160156 136.449219 1.699219 C 180.003906 -7.761719 246.644531 23.980469 262.179688 55.046875 C 276.265625 83.222656 269.964844 237.191406 192.523438 237.191406"/></g><path fill="#F2AB8F" d="M 120.996094 41.449219 L 120.886719 44.085938 C 121.355469 43.558594 121.914062 43.105469 122.523438 42.738281 C 122.855469 42.539062 123.207031 42.371094 123.566406 42.226562 C 124.011719 42.046875 124.476562 41.898438 124.945312 41.789062 C 125.796875 41.621094 126.679688 41.566406 127.542969 41.667969 C 127.855469 41.707031 128.164062 41.769531 128.46875 41.847656 C 128.96875 41.972656 129.449219 42.148438 129.902344 42.382812 L 129.480469 39.820312 C 129.480469 39.820312 131.980469 37.855469 132.402344 36.320312 C 132.824219 34.78125 134.015625 32.632812 134.054688 31.09375 C 134.09375 29.558594 131.671875 31.515625 131.132812 32.515625 C 130.59375 33.515625 129.480469 35.207031 129.480469 35.207031 C 129.480469 35.207031 128.863281 28.675781 128.710938 28.597656 L 127.175781 20.597656 C 127.046875 19.929688 126.125 19.699219 125.78125 20.289062 C 125.753906 20.339844 125.730469 20.394531 125.714844 20.449219 C 125.558594 20.960938 125.890625 26.730469 126.082031 29.730469 C 125.972656 29.78125 125.863281 29.828125 125.75 29.878906 L 123.183594 21.007812 C 122.988281 20.34375 122.042969 20.15625 121.757812 20.761719 C 121.738281 20.8125 121.71875 20.867188 121.707031 20.925781 C 121.589844 21.5 122.722656 28.535156 123.140625 31.082031 C 123.132812 31.085938 123.121094 31.089844 123.113281 31.09375 L 119.910156 23.394531 C 119.644531 22.769531 118.695312 22.734375 118.484375 23.382812 C 118.464844 23.433594 118.453125 23.492188 118.445312 23.550781 C 118.402344 24.066406 119.816406 29.277344 120.640625 32.242188 C 120.558594 32.28125 120.476562 32.316406 120.398438 32.355469 L 118 26.699219 C 117.734375 26.070312 116.78125 26.039062 116.574219 26.6875 C 116.554688 26.742188 116.542969 26.800781 116.539062 26.859375 C 116.5 27.296875 117.53125 31.128906 118.351562 34.089844 C 118.429688 35.828125 118.84375 40.039062 120.996094 41.449219 Z M 178.652344 107.535156 C 176.832031 106.546875 175.027344 105.523438 173.246094 104.460938 C 173.214844 104.441406 173.199219 104.414062 173.195312 104.386719 L 173.003906 104.289062 C 173.003906 104.289062 170.574219 106.992188 169.496094 108.375 C 169.226562 108.722656 167.230469 109.222656 164.402344 109.773438 C 162.167969 110.210938 159.417969 110.679688 156.578125 111.128906 C 148.792969 112.371094 140.382812 113.488281 140.382812 113.488281 C 140.382812 113.488281 136.863281 109.914062 133.242188 109.914062 C 129.621094 109.914062 127.746094 109.875 127.910156 110.683594 C 128.078125 111.492188 133.140625 113.410156 133.140625 113.410156 L 119.164062 113.488281 C 119.164062 113.488281 127.007812 118.484375 132.539062 118.5625 C 138.070312 118.636719 140.382812 118.5625 140.382812 118.5625 C 140.382812 118.5625 149.210938 118.5625 157.992188 118.5625 C 165.554688 118.5625 173.085938 118.5625 174.902344 118.5625 C 178.3125 118.5625 182.597656 112.03125 183.664062 110.324219 C 182.003906 109.378906 180.328125 108.460938 178.652344 107.535156 Z M 172.097656 44.269531 C 171.917969 44.121094 171.753906 43.957031 171.613281 43.777344 C 171.808594 44.066406 171.976562 44.402344 172.058594 44.742188 C 172.070312 44.585938 172.082031 44.425781 172.097656 44.269531 Z M 156.460938 49.289062 L 156.46875 49.289062 C 156.691406 49.25 156.894531 49.230469 157.097656 49.238281 C 157.300781 49.25 157.496094 49.269531 157.6875 49.320312 C 157.878906 49.363281 158.0625 49.4375 158.246094 49.519531 C 158.425781 49.609375 158.59375 49.71875 158.773438 49.851562 L 158.78125 49.855469 C 158.816406 49.878906 158.863281 49.890625 158.910156 49.875 C 158.980469 49.847656 159.015625 49.769531 158.992188 49.695312 C 158.902344 49.453125 158.730469 49.25 158.527344 49.085938 C 158.324219 48.917969 158.074219 48.8125 157.824219 48.75 C 157.316406 48.636719 156.738281 48.734375 156.363281 49.089844 C 156.335938 49.113281 156.320312 49.152344 156.328125 49.191406 C 156.339844 49.253906 156.398438 49.300781 156.460938 49.289062 Z M 157.003906 46.214844 L 157.011719 46.21875 C 157.199219 46.316406 157.375 46.402344 157.542969 46.507812 C 157.703125 46.613281 157.867188 46.710938 158.011719 46.832031 C 158.167969 46.941406 158.304688 47.070312 158.449219 47.199219 C 158.589844 47.332031 158.722656 47.476562 158.867188 47.628906 L 158.871094 47.632812 C 158.898438 47.664062 158.941406 47.679688 158.988281 47.671875 C 159.0625 47.664062 159.117188 47.597656 159.109375 47.519531 C 159.074219 47.285156 158.976562 47.066406 158.847656 46.871094 C 158.722656 46.671875 158.554688 46.503906 158.363281 46.363281 C 158.171875 46.226562 157.964844 46.109375 157.734375 46.050781 C 157.507812 45.988281 157.273438 45.957031 157.042969 45.996094 C 157.007812 46 156.976562 46.023438 156.957031 46.054688 C 156.929688 46.113281 156.949219 46.183594 157.003906 46.214844 Z M 158.816406 51.222656 C 158.472656 51.71875 158.097656 52.230469 157.828125 52.835938 C 157.570312 53.433594 157.425781 54.152344 157.652344 54.828125 C 157.875 55.492188 158.503906 56.042969 159.214844 55.996094 C 159.261719 55.992188 159.308594 55.953125 159.316406 55.902344 C 159.324219 55.839844 159.285156 55.78125 159.222656 55.773438 L 159.21875 55.773438 C 158.660156 55.683594 158.246094 55.191406 158.128906 54.6875 C 158.011719 54.164062 158.128906 53.589844 158.363281 53.070312 C 158.59375 52.542969 158.949219 52.042969 159.257812 51.492188 C 159.5625 50.949219 159.847656 50.335938 159.867188 49.675781 C 159.871094 49.613281 159.828125 49.554688 159.765625 49.542969 C 159.695312 49.523438 159.621094 49.570312 159.605469 49.640625 C 159.457031 50.210938 159.152344 50.722656 158.816406 51.222656 Z M 159.8125 58.496094 C 159.773438 58.542969 159.773438 58.617188 159.820312 58.660156 C 160.125 58.941406 160.558594 59.070312 160.976562 59.070312 C 161.398438 59.078125 161.808594 58.960938 162.179688 58.769531 C 162.542969 58.574219 162.859375 58.316406 163.125 58.023438 C 163.390625 57.734375 163.621094 57.425781 163.816406 57.097656 C 163.84375 57.046875 163.84375 56.988281 163.804688 56.945312 C 163.761719 56.882812 163.679688 56.875 163.617188 56.921875 C 163.347656 57.132812 163.101562 57.363281 162.851562 57.574219 C 162.824219 57.597656 162.792969 57.625 162.765625 57.644531 C 162.554688 57.816406 162.34375 57.972656 162.128906 58.109375 C 162.050781 58.160156 161.980469 58.214844 161.902344 58.253906 C 161.3125 58.574219 160.605469 58.722656 159.941406 58.46875 L 159.9375 58.46875 C 159.894531 58.453125 159.847656 58.464844 159.8125 58.496094 Z M 162.890625 45.710938 C 162.898438 45.773438 162.953125 45.816406 163.015625 45.8125 C 163.417969 45.78125 163.808594 45.789062 164.191406 45.855469 C 164.570312 45.925781 164.9375 46.03125 165.273438 46.203125 C 165.613281 46.367188 165.925781 46.589844 166.210938 46.84375 C 166.496094 47.101562 166.742188 47.40625 166.964844 47.738281 C 166.996094 47.785156 167.054688 47.8125 167.113281 47.796875 C 167.183594 47.777344 167.226562 47.703125 167.207031 47.632812 C 167.097656 47.210938 166.875 46.820312 166.585938 46.484375 C 166.300781 46.144531 165.933594 45.871094 165.53125 45.675781 C 165.121094 45.484375 164.683594 45.375 164.238281 45.363281 C 163.796875 45.347656 163.355469 45.417969 162.957031 45.59375 C 162.914062 45.617188 162.886719 45.660156 162.890625 45.710938 Z M 166.105469 49.375 C 166.105469 48.976562 165.78125 48.652344 165.382812 48.652344 C 164.984375 48.652344 164.65625 48.976562 164.65625 49.375 C 164.65625 49.773438 164.984375 50.101562 165.382812 50.101562 C 165.78125 50.101562 166.105469 49.773438 166.105469 49.375 Z M 156.398438 59.554688 C 154.636719 54.378906 156.1875 44.617188 156.351562 40.910156 C 156.386719 40.117188 156.535156 39.328125 156.777344 38.574219 C 157.226562 38.183594 157.785156 37.902344 158.351562 37.800781 C 157.664062 39.507812 158.320312 41.503906 159.433594 42.972656 C 159.769531 43.417969 160.164062 43.84375 160.679688 44.058594 C 161.195312 44.273438 161.855469 44.222656 162.234375 43.8125 C 162.242188 43.804688 162.246094 43.792969 162.257812 43.78125 C 162.433594 43.566406 162.496094 43.269531 162.449219 43 C 162.941406 43.570312 163.570312 44.019531 164.273438 44.292969 C 164.621094 44.425781 165.011719 44.515625 165.367188 44.394531 C 165.789062 44.246094 166.0625 43.816406 166.144531 43.375 C 166.226562 42.9375 166.15625 42.484375 166.085938 42.039062 C 166.894531 43.503906 168.070312 44.765625 169.480469 45.667969 C 169.921875 45.949219 170.410156 46.203125 170.933594 46.203125 C 171.363281 46.203125 171.804688 45.976562 172 45.613281 C 171.960938 46.347656 171.949219 47.085938 171.957031 47.824219 C 172.363281 47.230469 172.808594 46.640625 173.449219 46.308594 C 174.144531 45.949219 175.140625 46.035156 175.554688 46.703125 C 175.871094 47.21875 175.753906 47.882812 175.582031 48.464844 C 175.289062 49.46875 174.855469 50.46875 174.117188 51.210938 C 173.621094 51.714844 172.960938 52.078125 172.269531 52.195312 C 172.558594 54.351562 173.039062 56.476562 173.71875 58.542969 C 174.371094 60.535156 175.238281 62.527344 176.738281 63.996094 C 176.851562 64.101562 176.972656 64.207031 177.097656 64.296875 C 177.226562 65.324219 177.355469 66.265625 177.457031 66.980469 C 177.570312 67.785156 177.648438 68.292969 177.648438 68.292969 L 174.996094 69.523438 L 168.40625 72.578125 C 166.988281 73.238281 165.40625 72.078125 165.597656 70.523438 C 165.601562 70.511719 165.601562 70.496094 165.601562 70.480469 C 165.695312 69.707031 165.746094 68.863281 165.710938 67.996094 C 165.675781 67.136719 165.554688 66.261719 165.304688 65.410156 C 165.222656 65.117188 165.089844 64.902344 164.921875 64.738281 C 165.074219 64.738281 165.226562 64.738281 165.378906 64.730469 C 166.210938 64.691406 167.03125 64.492188 167.8125 64.203125 C 168.582031 63.882812 169.316406 63.464844 169.953125 62.925781 C 170.589844 62.386719 171.140625 61.746094 171.53125 61.023438 C 171.5625 60.964844 171.546875 60.894531 171.496094 60.851562 C 171.4375 60.808594 171.355469 60.820312 171.308594 60.875 C 170.820312 61.5 170.257812 62.054688 169.628906 62.519531 C 169.003906 62.984375 168.324219 63.378906 167.59375 63.65625 C 166.878906 63.957031 166.113281 64.140625 165.335938 64.238281 C 164.875 64.296875 164.410156 64.308594 163.941406 64.289062 C 162.105469 63.964844 158.964844 64.863281 156.816406 60.566406 C 156.65625 60.253906 156.519531 59.917969 156.398438 59.554688 Z M 129.902344 42.679688 C 129.121094 42.40625 128.308594 42.234375 127.496094 42.183594 C 127.089844 42.160156 126.683594 42.160156 126.277344 42.191406 C 126.242188 42.191406 126.207031 42.195312 126.175781 42.199219 C 125.800781 42.230469 125.433594 42.28125 125.066406 42.363281 C 124.265625 42.515625 123.492188 42.800781 122.765625 43.171875 C 122.082031 43.519531 121.449219 43.964844 120.867188 44.488281 L 119.457031 77.828125 L 133.417969 77.828125 C 135.480469 77.828125 137.238281 79.324219 137.566406 81.363281 L 138.007812 84.152344 L 140.566406 84.121094 L 134.671875 71.367188 L 129.953125 42.679688 C 129.933594 42.679688 129.917969 42.683594 129.902344 42.679688 Z M 146.941406 70.035156 L 137.269531 71.085938 Z M 146.941406 70.035156"/><path fill="#F9D291" d="M 103.703125 138.289062 C 105.09375 138.289062 106.226562 139.417969 106.226562 140.808594 C 106.226562 142.199219 105.09375 143.324219 103.703125 143.324219 C 102.3125 143.324219 101.183594 142.199219 101.183594 140.808594 C 101.183594 139.417969 102.3125 138.289062 103.703125 138.289062 Z M 103.703125 143.910156 C 105.417969 143.910156 106.8125 142.519531 106.8125 140.808594 C 106.8125 139.097656 105.417969 137.703125 103.703125 137.703125 C 101.992188 137.703125 100.597656 139.097656 100.597656 140.808594 C 100.597656 142.519531 101.992188 143.910156 103.703125 143.910156 Z M 110.992188 216.75 L 99.214844 216.75 C 98.90625 216.558594 98.613281 216.363281 98.308594 216.164062 L 110.992188 216.164062 Z M 113.570312 216.164062 L 121.386719 216.164062 L 121.386719 216.75 L 113.570312 216.75 Z M 98.722656 212.664062 L 121.386719 212.664062 L 121.386719 213.25 L 98.722656 213.25 Z M 104.503906 209.164062 L 121.386719 209.164062 L 121.386719 209.75 L 104.503906 209.75 Z M 111.226562 223.167969 L 121.386719 223.167969 L 121.386719 223.753906 L 112.523438 223.753906 C 112.082031 223.558594 111.65625 223.359375 111.226562 223.167969 Z M 109.351562 219.667969 L 121.386719 219.667969 L 121.386719 220.253906 L 109.351562 220.253906 Z M 104.195312 219.667969 L 106.070312 219.667969 L 106.070312 220.253906 L 105.277344 220.253906 C 104.914062 220.058594 104.554688 219.863281 104.195312 219.667969 Z M 93.273438 212.664062 L 96.144531 212.664062 L 96.144531 213.25 L 94.066406 213.25 C 93.800781 213.054688 93.535156 212.859375 93.273438 212.664062 Z M 101.925781 209.75 L 89.613281 209.75 C 89.390625 209.5625 89.171875 209.375 88.953125 209.1875 L 88.953125 209.164062 L 101.925781 209.164062 Z M 88.953125 192.386719 L 110.992188 192.386719 L 110.992188 192.972656 L 88.953125 192.972656 Z M 113.570312 192.386719 L 121.386719 192.386719 L 121.386719 192.972656 L 113.570312 192.972656 Z M 98.722656 188.886719 L 121.386719 188.886719 L 121.386719 189.472656 L 98.722656 189.472656 Z M 104.503906 185.386719 L 121.386719 185.386719 L 121.386719 185.972656 L 104.503906 185.972656 Z M 88.953125 199.386719 L 121.386719 199.386719 L 121.386719 199.972656 L 88.953125 199.972656 Z M 113.570312 203.472656 L 88.953125 203.472656 L 88.953125 202.886719 L 113.570312 202.886719 Z M 109.351562 195.886719 L 121.386719 195.886719 L 121.386719 196.472656 L 109.351562 196.472656 Z M 88.953125 195.886719 L 106.070312 195.886719 L 106.070312 196.472656 L 88.953125 196.472656 Z M 88.953125 188.886719 L 96.144531 188.886719 L 96.144531 189.472656 L 88.953125 189.472656 Z M 88.953125 185.386719 L 101.925781 185.386719 L 101.925781 185.972656 L 88.953125 185.972656 Z M 88.953125 178.386719 L 95.4375 178.386719 L 95.4375 178.972656 L 88.953125 178.972656 Z M 101.925781 175.472656 L 88.953125 175.472656 L 88.953125 174.886719 L 101.925781 174.886719 Z M 84.753906 169.863281 L 125.976562 169.863281 L 125.976562 228.722656 C 125.78125 228.664062 125.589844 228.601562 125.390625 228.539062 L 125.390625 170.449219 L 85.339844 170.449219 L 85.339844 205.871094 C 85.140625 205.679688 84.949219 205.480469 84.753906 205.285156 Z M 85.339844 154.097656 L 95.699219 149.238281 L 111.59375 164.535156 L 85.339844 164.535156 Z M 85.339844 132.886719 L 125.390625 132.886719 L 125.390625 155.996094 L 114.085938 147.78125 L 113.949219 147.679688 L 101.082031 153.605469 L 95.8125 148.539062 L 85.339844 153.453125 Z M 125.390625 164.535156 L 112.4375 164.535156 L 101.535156 154.042969 L 113.882812 148.355469 L 125.390625 156.71875 Z M 84.753906 165.121094 L 125.976562 165.121094 L 125.976562 132.300781 L 84.753906 132.300781 Z M 229.757812 44.164062 C 229.757812 45.550781 228.625 46.683594 227.238281 46.683594 C 225.847656 46.683594 224.71875 45.550781 224.71875 44.164062 C 224.71875 42.777344 225.847656 41.644531 227.238281 41.644531 C 228.625 41.644531 229.757812 42.777344 229.757812 44.164062 Z M 224.132812 44.164062 C 224.132812 45.878906 225.523438 47.269531 227.238281 47.269531 C 228.953125 47.269531 230.34375 45.878906 230.34375 44.164062 C 230.34375 42.449219 228.953125 41.058594 227.238281 41.058594 C 225.523438 41.058594 224.132812 42.449219 224.132812 44.164062 Z M 234.527344 120.109375 L 212.488281 120.109375 L 212.488281 119.523438 L 234.527344 119.523438 Z M 237.105469 119.523438 L 244.917969 119.523438 L 244.917969 120.109375 L 237.105469 120.109375 Z M 222.253906 116.023438 L 244.917969 116.023438 L 244.917969 116.609375 L 222.253906 116.609375 Z M 228.039062 112.519531 L 244.917969 112.519531 L 244.917969 113.105469 L 228.039062 113.105469 Z M 212.488281 126.523438 L 244.917969 126.523438 L 244.917969 127.109375 L 212.488281 127.109375 Z M 212.488281 130.023438 L 237.105469 130.023438 L 237.105469 130.609375 L 212.488281 130.609375 Z M 232.886719 123.023438 L 244.917969 123.023438 L 244.917969 123.609375 L 232.886719 123.609375 Z M 229.601562 123.609375 L 212.488281 123.609375 L 212.488281 123.023438 L 229.601562 123.023438 Z M 219.675781 116.609375 L 212.488281 116.609375 L 212.488281 116.023438 L 219.675781 116.023438 Z M 225.460938 113.105469 L 212.488281 113.105469 L 212.488281 112.519531 L 225.460938 112.519531 Z M 234.527344 96.328125 L 212.488281 96.328125 L 212.488281 95.742188 L 234.527344 95.742188 Z M 237.105469 95.742188 L 244.917969 95.742188 L 244.917969 96.328125 L 237.105469 96.328125 Z M 222.253906 92.242188 L 244.917969 92.242188 L 244.917969 92.828125 L 222.253906 92.828125 Z M 228.039062 88.742188 L 244.917969 88.742188 L 244.917969 89.328125 L 228.039062 89.328125 Z M 212.488281 102.746094 L 244.917969 102.746094 L 244.917969 103.332031 L 212.488281 103.332031 Z M 237.105469 106.832031 L 212.488281 106.832031 L 212.488281 106.246094 L 237.105469 106.246094 Z M 232.886719 99.242188 L 244.917969 99.242188 L 244.917969 99.828125 L 232.886719 99.828125 Z M 229.601562 99.828125 L 212.488281 99.828125 L 212.488281 99.242188 L 229.601562 99.242188 Z M 219.675781 92.828125 L 212.488281 92.828125 L 212.488281 92.242188 L 219.675781 92.242188 Z M 225.460938 89.328125 L 212.488281 89.328125 L 212.488281 88.742188 L 225.460938 88.742188 Z M 218.972656 82.328125 L 212.488281 82.328125 L 212.488281 81.742188 L 218.972656 81.742188 Z M 225.460938 78.828125 L 212.488281 78.828125 L 212.488281 78.242188 L 225.460938 78.242188 Z M 208.871094 73.808594 L 248.925781 73.808594 L 248.925781 137.433594 L 208.871094 137.433594 Z M 208.285156 138.019531 L 249.511719 138.019531 L 249.511719 73.222656 L 208.285156 73.222656 Z M 248.925781 67.890625 L 235.972656 67.890625 L 225.070312 57.402344 L 237.417969 51.714844 L 248.925781 60.074219 Z M 208.871094 67.890625 L 208.871094 57.457031 L 219.234375 52.59375 L 235.128906 67.890625 Z M 248.925781 38.144531 L 248.925781 59.351562 L 237.484375 51.039062 L 224.617188 56.964844 L 219.347656 51.894531 L 208.871094 56.808594 L 208.871094 36.242188 L 246.847656 36.242188 C 246.628906 36.046875 246.402344 35.851562 246.175781 35.65625 L 208.285156 35.65625 L 208.285156 68.476562 L 249.511719 68.476562 L 249.511719 38.703125 C 249.316406 38.515625 249.121094 38.328125 248.925781 38.144531 Z M 67.402344 29.066406 L 102.53125 29.066406 L 102.53125 64.886719 L 67.402344 64.886719 Z M 113.722656 98.988281 C 109.386719 97.738281 107.292969 92.328125 109.929688 92.328125 C 112.132812 92.328125 112.941406 93.648438 112.941406 93.648438 C 112.941406 93.648438 113.761719 92.328125 115.4375 92.328125 C 118.074219 92.328125 117.671875 97.738281 113.722656 98.988281 Z M 202.523438 264.15625 C 202.390625 264.800781 202.003906 264.871094 201.660156 264.308594 C 201.3125 263.753906 201.136719 262.773438 201.269531 262.125 C 201.398438 261.484375 201.785156 261.414062 202.132812 261.972656 C 202.480469 262.53125 202.65625 263.507812 202.523438 264.15625 Z M 144.460938 263.808594 C 144.390625 264.675781 143.632812 265.375 142.765625 265.375 C 141.902344 265.375 141.257812 264.675781 141.328125 263.808594 C 141.398438 262.945312 142.15625 262.242188 143.023438 262.242188 C 143.890625 262.242188 144.535156 262.945312 144.460938 263.808594 Z M 178.6875 69.496094 C 177.605469 70.101562 176.507812 70.671875 175.40625 71.238281 C 174.660156 71.625 173.902344 72 173.148438 72.378906 C 172.796875 72.550781 172.441406 72.726562 172.089844 72.902344 C 170.980469 73.425781 169.828125 74.019531 168.539062 74.191406 C 167.898438 74.273438 167.238281 74.246094 166.613281 74.066406 C 165.992188 73.878906 165.398438 73.546875 164.988281 73.042969 C 164.949219 72.992188 164.957031 72.925781 165.003906 72.886719 C 165.050781 72.847656 165.117188 72.851562 165.15625 72.890625 C 166.027344 73.71875 167.320312 73.910156 168.464844 73.703125 C 169.636719 73.488281 170.726562 72.933594 171.832031 72.378906 C 172.46875 72.074219 173.105469 71.761719 173.742188 71.457031 C 174.222656 71.226562 174.699219 71 175.179688 70.773438 C 176.300781 70.253906 177.425781 69.738281 178.570312 69.253906 C 178.636719 69.226562 178.714844 69.257812 178.742188 69.324219 C 178.769531 69.390625 178.742188 69.460938 178.6875 69.496094 Z M 177.457031 66.980469 C 177.570312 67.785156 177.648438 68.292969 177.648438 68.292969 L 174.996094 69.523438 L 168.40625 72.578125 C 166.988281 73.238281 165.40625 72.078125 165.597656 70.523438 C 165.601562 70.511719 165.601562 70.496094 165.601562 70.480469 C 165.695312 69.707031 165.746094 68.863281 165.710938 67.996094 L 146.941406 70.035156 L 137.269531 71.085938 C 137.777344 72.261719 138.261719 73.445312 138.738281 74.628906 C 139.257812 75.925781 139.75 77.234375 140.261719 78.535156 L 141.710938 82.476562 C 141.90625 83.015625 142.097656 83.558594 142.285156 84.101562 C 142.554688 84.878906 142.824219 85.660156 143.074219 86.445312 C 143.097656 86.515625 143.058594 86.589844 142.988281 86.609375 C 142.925781 86.632812 142.855469 86.601562 142.828125 86.539062 C 142.476562 85.730469 142.140625 84.917969 141.808594 84.105469 C 141.613281 83.621094 141.421875 83.140625 141.226562 82.660156 L 139.710938 78.746094 C 139.234375 77.429688 138.738281 76.121094 138.273438 74.804688 C 137.839844 73.578125 137.414062 72.351562 137.011719 71.113281 L 134.671875 71.367188 L 140.566406 84.121094 L 141.703125 86.585938 L 154.421875 88.949219 C 154.574219 87.910156 154.796875 86.875 155.074219 85.859375 C 155.40625 84.621094 155.84375 83.414062 156.332031 82.234375 C 156.839844 81.058594 157.402344 79.90625 158.054688 78.804688 C 158.707031 77.703125 159.425781 76.644531 160.230469 75.652344 C 160.277344 75.59375 160.359375 75.589844 160.417969 75.632812 C 160.46875 75.675781 160.480469 75.753906 160.445312 75.808594 C 159.757812 76.871094 159.101562 77.949219 158.503906 79.058594 C 157.90625 80.167969 157.347656 81.296875 156.867188 82.460938 C 156.457031 83.390625 156.109375 84.34375 155.785156 85.308594 C 155.707031 85.539062 155.621094 85.765625 155.550781 85.996094 C 155.25 86.925781 154.996094 87.871094 154.757812 88.820312 C 154.742188 88.882812 154.726562 88.945312 154.710938 89.003906 L 154.730469 89.007812 C 154.140625 93.972656 155.070312 101.914062 156.175781 108.722656 L 164.523438 108.722656 C 164.523438 109.085938 164.480469 109.433594 164.402344 109.773438 C 167.230469 109.222656 169.226562 108.722656 169.496094 108.375 C 170.574219 106.992188 173.003906 104.289062 173.003906 104.289062 L 173.195312 104.386719 C 173.1875 104.359375 173.191406 104.332031 173.207031 104.304688 C 173.238281 104.253906 173.304688 104.238281 173.355469 104.265625 C 175.171875 105.257812 177.027344 106.183594 178.863281 107.140625 C 180.613281 108.046875 182.367188 108.960938 184.085938 109.933594 C 185.503906 106.957031 186.761719 103.90625 187.808594 100.777344 C 188.347656 99.171875 188.855469 97.550781 189.292969 95.910156 C 189.734375 94.273438 190.148438 92.625 190.492188 90.960938 C 190.507812 90.886719 190.574219 90.839844 190.648438 90.855469 C 190.71875 90.871094 190.765625 90.9375 190.753906 91.007812 C 190.46875 92.691406 190.140625 94.367188 189.730469 96.023438 C 189.320312 97.683594 188.863281 99.332031 188.328125 100.949219 C 187.265625 104.199219 185.984375 107.378906 184.457031 110.4375 L 184.328125 110.699219 L 184.074219 110.554688 C 183.9375 110.476562 183.800781 110.402344 183.664062 110.324219 C 182.597656 112.03125 178.3125 118.5625 174.902344 118.5625 C 173.085938 118.5625 165.554688 118.5625 157.992188 118.5625 C 158.390625 120.496094 158.65625 121.671875 158.65625 121.671875 L 167.40625 121.671875 C 167.40625 121.644531 167.40625 121.617188 167.40625 121.59375 C 167.40625 121.527344 167.457031 121.476562 167.523438 121.480469 C 167.566406 121.480469 167.601562 121.503906 167.621094 121.539062 C 167.644531 121.582031 167.660156 121.628906 167.679688 121.671875 L 178.367188 121.671875 C 178.386719 121.628906 178.421875 121.59375 178.472656 121.597656 C 178.515625 121.601562 178.554688 121.628906 178.570312 121.667969 C 178.570312 121.667969 178.570312 121.667969 178.570312 121.671875 L 183.222656 121.671875 C 183.222656 121.671875 195.523438 97.078125 193.371094 83.550781 C 191.5 71.796875 180.351562 67.820312 177.457031 66.980469"/><path fill="#00C2CB" d="M 70.847656 33.574219 L 99.089844 33.574219 L 99.089844 55.457031 L 70.847656 55.457031 Z M 213.972656 205.773438 L 254.613281 205.773438 L 254.613281 241.59375 L 213.972656 241.59375 Z M 254.613281 164.765625 L 254.613281 200.589844 L 213.972656 200.589844 L 213.972656 164.765625 Z M 167.921875 122.335938 C 167.859375 122.109375 167.78125 121.886719 167.679688 121.671875 L 178.367188 121.671875 C 178.359375 121.683594 178.347656 121.691406 178.347656 121.703125 C 178.324219 122 178.335938 122.285156 178.351562 122.574219 C 178.367188 122.863281 178.40625 123.144531 178.445312 123.429688 C 178.492188 123.714844 178.542969 123.996094 178.613281 124.273438 C 178.664062 124.460938 178.71875 124.648438 178.78125 124.835938 C 178.527344 124.832031 178.273438 124.824219 178.023438 124.820312 L 173.03125 124.789062 L 168.042969 124.835938 C 168.007812 124.835938 167.972656 124.835938 167.933594 124.835938 C 168.015625 124.570312 168.054688 124.292969 168.078125 124.015625 C 168.105469 123.734375 168.09375 123.453125 168.074219 123.171875 C 168.042969 122.890625 168.003906 122.609375 167.921875 122.335938 Z M 182.578125 201.785156 C 182.523438 201.820312 182.449219 201.808594 182.40625 201.761719 C 181.785156 201.050781 181.238281 200.285156 180.734375 199.484375 C 180.230469 198.683594 179.796875 197.84375 179.402344 196.988281 C 179.027344 196.121094 178.683594 195.242188 178.421875 194.335938 C 178.160156 193.429688 177.949219 192.507812 177.832031 191.574219 C 177.824219 191.511719 177.867188 191.457031 177.929688 191.449219 C 177.984375 191.441406 178.039062 191.476562 178.050781 191.527344 C 178.3125 192.425781 178.582031 193.3125 178.894531 194.179688 C 179.207031 195.050781 179.539062 195.914062 179.933594 196.75 C 180.304688 197.59375 180.734375 198.414062 181.179688 199.222656 C 181.628906 200.03125 182.117188 200.820312 182.621094 201.601562 C 182.660156 201.664062 182.640625 201.746094 182.578125 201.785156 Z M 177.738281 137.730469 C 177.730469 137.699219 177.734375 137.664062 177.746094 137.640625 C 177.828125 137.484375 177.933594 137.351562 178.042969 137.226562 C 178.148438 137.097656 178.273438 136.992188 178.394531 136.882812 C 178.523438 136.78125 178.652344 136.679688 178.796875 136.601562 C 178.941406 136.519531 179.085938 136.441406 179.257812 136.390625 C 179.335938 136.371094 179.414062 136.414062 179.433594 136.492188 C 179.445312 136.527344 179.4375 136.566406 179.421875 136.597656 C 179.339844 136.753906 179.234375 136.878906 179.125 137.003906 C 179.015625 137.128906 178.890625 137.234375 178.765625 137.339844 C 178.632812 137.4375 178.503906 137.535156 178.355469 137.609375 C 178.210938 137.691406 178.0625 137.765625 177.890625 137.8125 C 177.824219 137.832031 177.757812 137.792969 177.738281 137.730469 Z M 192.929688 186.230469 C 193.902344 176.394531 199.984375 161.714844 195.957031 149.070312 C 191.925781 136.425781 183.222656 121.671875 183.222656 121.671875 L 178.570312 121.671875 C 178.6875 121.941406 178.765625 122.21875 178.839844 122.496094 C 178.917969 122.773438 178.972656 123.054688 179.023438 123.335938 C 179.070312 123.617188 179.109375 123.902344 179.128906 124.1875 C 179.144531 124.40625 179.148438 124.625 179.144531 124.84375 C 180.433594 124.867188 181.722656 124.894531 183.007812 124.945312 C 183.082031 124.949219 183.140625 125.011719 183.136719 125.085938 C 183.132812 125.15625 183.078125 125.210938 183.007812 125.214844 C 181.347656 125.28125 179.683594 125.3125 178.023438 125.339844 L 173.03125 125.371094 L 171.730469 125.359375 C 172.046875 126.339844 172.40625 127.300781 172.828125 128.234375 C 173.257812 129.191406 173.734375 130.128906 174.292969 131.019531 C 174.824219 131.921875 175.433594 132.78125 176.085938 133.605469 C 176.703125 134.390625 177.375 135.132812 178.074219 135.851562 C 178.136719 135.796875 178.195312 135.742188 178.257812 135.6875 C 178.546875 135.445312 178.847656 135.210938 179.164062 135.011719 C 179.484375 134.804688 179.808594 134.613281 180.160156 134.464844 C 180.226562 134.4375 180.304688 134.46875 180.335938 134.535156 C 180.359375 134.589844 180.34375 134.648438 180.304688 134.683594 C 180.035156 134.949219 179.753906 135.183594 179.472656 135.425781 L 178.632812 136.132812 L 177.785156 136.832031 C 177.496094 137.0625 177.214844 137.296875 176.90625 137.515625 C 176.855469 137.554688 176.785156 137.542969 176.75 137.492188 C 176.71875 137.453125 176.71875 137.402344 176.746094 137.363281 C 176.949219 137.042969 177.191406 136.753906 177.441406 136.472656 C 177.578125 136.320312 177.71875 136.183594 177.863281 136.046875 C 177.074219 135.414062 176.351562 134.699219 175.6875 133.933594 C 174.980469 133.121094 174.359375 132.238281 173.789062 131.324219 C 173.25 130.390625 172.757812 129.429688 172.367188 128.425781 C 171.984375 127.429688 171.679688 126.40625 171.488281 125.359375 L 168.042969 125.328125 C 166.382812 125.300781 164.71875 125.265625 163.054688 125.191406 C 162.996094 125.1875 162.949219 125.136719 162.949219 125.074219 C 162.953125 125.015625 162.996094 124.972656 163.054688 124.96875 C 164.589844 124.902344 166.128906 124.867188 167.664062 124.839844 C 167.613281 124.5625 167.589844 124.292969 167.5625 124.023438 L 167.488281 123.222656 L 167.433594 122.414062 C 167.421875 122.171875 167.40625 121.925781 167.40625 121.671875 L 158.65625 121.671875 L 173.050781 176.730469 L 194.449219 258.605469 C 195.074219 258.546875 195.699219 258.511719 196.320312 258.488281 C 197.015625 258.453125 197.707031 258.445312 198.402344 258.441406 C 199.097656 258.441406 199.792969 258.445312 200.484375 258.476562 C 201.179688 258.5 201.871094 258.53125 202.566406 258.601562 C 202.640625 258.609375 202.695312 258.675781 202.6875 258.75 C 202.679688 258.808594 202.628906 258.859375 202.566406 258.867188 C 201.871094 258.9375 201.179688 258.96875 200.484375 258.992188 C 199.792969 259.023438 199.097656 259.027344 198.402344 259.027344 C 197.707031 259.019531 197.015625 259.015625 196.320312 258.980469 C 195.71875 258.957031 195.117188 258.921875 194.519531 258.871094 L 194.898438 260.320312 L 202.59375 260.320312 C 202.59375 260.320312 205.675781 238.878906 200.816406 221.355469 C 195.957031 203.832031 191.953125 196.070312 192.929688 186.230469"/><g clip-path="url(#b)"><path fill="#253C4C" d="M 229.183594 229.683594 C 228.613281 229.121094 227.5625 228.742188 226.355469 228.742188 C 224.539062 228.742188 223.066406 229.597656 223.066406 230.648438 C 223.066406 231.703125 224.539062 232.558594 226.355469 232.558594 C 228.152344 232.558594 229.609375 231.71875 229.640625 230.679688 L 229.660156 230.683594 L 231.042969 218.546875 L 244.367188 216.863281 L 243.105469 227.925781 C 242.535156 227.363281 241.484375 226.980469 240.277344 226.980469 C 238.464844 226.980469 236.992188 227.835938 236.992188 228.890625 C 236.992188 229.945312 238.464844 230.796875 240.277344 230.796875 C 242.074219 230.796875 243.53125 229.960938 243.558594 228.921875 L 243.582031 228.921875 L 245.035156 216.1875 L 230.511719 218.023438 Z M 72.390625 56.414062 L 100.050781 56.414062 L 100.050781 35.121094 L 72.390625 35.121094 Z M 71.804688 34.535156 L 100.636719 34.535156 L 100.636719 57 L 71.804688 57 Z M 254.613281 195.179688 L 254.613281 195.765625 L 225.039062 195.765625 C 224.902344 196.445312 224.304688 196.957031 223.585938 196.957031 C 222.863281 196.957031 222.265625 196.445312 222.128906 195.765625 L 213.972656 195.765625 L 213.972656 195.179688 L 222.128906 195.179688 C 222.265625 194.5 222.863281 193.988281 223.585938 193.988281 C 224.304688 193.988281 224.902344 194.5 225.039062 195.179688 Z M 165.382812 48.652344 C 165.78125 48.652344 166.105469 48.976562 166.105469 49.375 C 166.105469 49.773438 165.78125 50.101562 165.382812 50.101562 C 164.984375 50.101562 164.65625 49.773438 164.65625 49.375 C 164.65625 48.976562 164.984375 48.652344 165.382812 48.652344 Z M 120.59375 44.582031 C 120.558594 44.542969 120.554688 44.480469 120.585938 44.441406 C 120.679688 44.316406 120.785156 44.203125 120.886719 44.085938 C 121.355469 43.558594 121.914062 43.105469 122.523438 42.738281 C 122.855469 42.539062 123.207031 42.371094 123.566406 42.226562 C 124.011719 42.046875 124.476562 41.898438 124.945312 41.789062 C 125.796875 41.621094 126.679688 41.566406 127.542969 41.667969 C 127.855469 41.707031 128.164062 41.769531 128.46875 41.847656 C 128.96875 41.972656 129.449219 42.148438 129.902344 42.382812 C 129.9375 42.402344 129.976562 42.417969 130.011719 42.4375 C 130.074219 42.472656 130.097656 42.554688 130.0625 42.617188 C 130.039062 42.660156 129.996094 42.675781 129.953125 42.679688 C 129.933594 42.679688 129.917969 42.683594 129.902344 42.679688 C 129.121094 42.40625 128.308594 42.234375 127.496094 42.183594 C 127.089844 42.160156 126.683594 42.160156 126.277344 42.191406 C 126.242188 42.191406 126.207031 42.195312 126.175781 42.199219 C 125.800781 42.230469 125.433594 42.28125 125.066406 42.363281 C 124.265625 42.515625 123.492188 42.800781 122.765625 43.171875 C 122.082031 43.519531 121.449219 43.964844 120.867188 44.488281 C 120.832031 44.523438 120.792969 44.554688 120.753906 44.589844 C 120.707031 44.632812 120.636719 44.628906 120.59375 44.582031 Z M 194.136719 258.722656 C 194.144531 258.667969 194.1875 258.628906 194.238281 258.621094 C 194.308594 258.617188 194.378906 258.609375 194.449219 258.605469 C 195.074219 258.546875 195.699219 258.511719 196.320312 258.488281 C 197.015625 258.453125 197.707031 258.445312 198.402344 258.441406 C 199.097656 258.441406 199.792969 258.445312 200.484375 258.476562 C 201.179688 258.5 201.871094 258.53125 202.566406 258.601562 C 202.640625 258.609375 202.695312 258.675781 202.6875 258.75 C 202.679688 258.808594 202.628906 258.859375 202.566406 258.867188 C 201.871094 258.9375 201.179688 258.96875 200.484375 258.992188 C 199.792969 259.023438 199.097656 259.027344 198.402344 259.027344 C 197.707031 259.019531 197.015625 259.015625 196.320312 258.980469 C 195.71875 258.957031 195.117188 258.921875 194.519531 258.871094 C 194.425781 258.859375 194.332031 258.855469 194.238281 258.847656 C 194.175781 258.839844 194.132812 258.785156 194.136719 258.722656 Z M 182.621094 201.601562 C 182.660156 201.664062 182.640625 201.746094 182.578125 201.785156 C 182.523438 201.820312 182.449219 201.808594 182.40625 201.761719 C 181.785156 201.050781 181.238281 200.285156 180.734375 199.484375 C 180.230469 198.683594 179.796875 197.84375 179.402344 196.988281 C 179.027344 196.121094 178.683594 195.242188 178.421875 194.335938 C 178.160156 193.429688 177.949219 192.507812 177.832031 191.574219 C 177.824219 191.511719 177.867188 191.457031 177.929688 191.449219 C 177.984375 191.441406 178.039062 191.476562 178.050781 191.527344 C 178.3125 192.425781 178.582031 193.3125 178.894531 194.179688 C 179.207031 195.050781 179.539062 195.914062 179.933594 196.75 C 180.304688 197.59375 180.734375 198.414062 181.179688 199.222656 C 181.628906 200.03125 182.117188 200.820312 182.621094 201.601562 Z M 177.890625 137.8125 C 177.824219 137.832031 177.757812 137.792969 177.738281 137.730469 C 177.730469 137.699219 177.734375 137.664062 177.746094 137.640625 C 177.828125 137.484375 177.933594 137.351562 178.042969 137.226562 C 178.148438 137.097656 178.273438 136.992188 178.394531 136.882812 C 178.523438 136.78125 178.652344 136.679688 178.796875 136.601562 C 178.941406 136.519531 179.085938 136.441406 179.257812 136.390625 C 179.335938 136.371094 179.414062 136.414062 179.433594 136.492188 C 179.445312 136.527344 179.4375 136.566406 179.421875 136.597656 C 179.339844 136.753906 179.234375 136.878906 179.125 137.003906 C 179.015625 137.128906 178.890625 137.234375 178.765625 137.339844 C 178.632812 137.4375 178.503906 137.535156 178.355469 137.609375 C 178.210938 137.691406 178.0625 137.765625 177.890625 137.8125 Z M 183.136719 125.085938 C 183.132812 125.15625 183.078125 125.210938 183.007812 125.214844 C 181.347656 125.28125 179.683594 125.3125 178.023438 125.339844 L 173.03125 125.371094 L 171.730469 125.359375 C 172.046875 126.339844 172.40625 127.300781 172.828125 128.234375 C 173.257812 129.191406 173.734375 130.128906 174.292969 131.019531 C 174.824219 131.921875 175.433594 132.78125 176.085938 133.605469 C 176.703125 134.390625 177.375 135.132812 178.074219 135.851562 C 178.136719 135.796875 178.195312 135.742188 178.257812 135.6875 C 178.546875 135.445312 178.847656 135.210938 179.164062 135.011719 C 179.484375 134.804688 179.808594 134.613281 180.160156 134.464844 C 180.226562 134.4375 180.304688 134.46875 180.335938 134.535156 C 180.359375 134.589844 180.34375 134.648438 180.304688 134.683594 C 180.035156 134.949219 179.753906 135.183594 179.472656 135.425781 L 178.632812 136.132812 L 177.785156 136.832031 C 177.496094 137.0625 177.214844 137.296875 176.90625 137.515625 C 176.855469 137.554688 176.785156 137.542969 176.75 137.492188 C 176.71875 137.453125 176.71875 137.402344 176.746094 137.363281 C 176.949219 137.042969 177.191406 136.753906 177.441406 136.472656 C 177.578125 136.320312 177.71875 136.183594 177.863281 136.046875 C 177.074219 135.414062 176.351562 134.699219 175.6875 133.933594 C 174.980469 133.121094 174.359375 132.238281 173.789062 131.324219 C 173.25 130.390625 172.757812 129.429688 172.367188 128.425781 C 171.984375 127.429688 171.679688 126.40625 171.488281 125.359375 L 168.042969 125.328125 C 166.382812 125.300781 164.71875 125.265625 163.054688 125.191406 C 162.996094 125.1875 162.949219 125.136719 162.949219 125.074219 C 162.953125 125.015625 162.996094 124.972656 163.054688 124.96875 C 164.589844 124.902344 166.128906 124.867188 167.664062 124.839844 C 167.613281 124.5625 167.589844 124.292969 167.5625 124.023438 L 167.488281 123.222656 L 167.433594 122.414062 C 167.421875 122.171875 167.40625 121.925781 167.40625 121.671875 C 167.40625 121.644531 167.40625 121.617188 167.40625 121.59375 C 167.40625 121.527344 167.457031 121.476562 167.523438 121.480469 C 167.566406 121.480469 167.601562 121.503906 167.621094 121.539062 C 167.644531 121.582031 167.660156 121.628906 167.679688 121.671875 C 167.78125 121.886719 167.859375 122.109375 167.921875 122.335938 C 168.003906 122.609375 168.042969 122.890625 168.074219 123.171875 C 168.09375 123.453125 168.105469 123.734375 168.078125 124.015625 C 168.054688 124.292969 168.015625 124.570312 167.933594 124.835938 C 167.972656 124.835938 168.007812 124.835938 168.042969 124.835938 L 173.03125 124.789062 L 178.023438 124.820312 C 178.273438 124.824219 178.527344 124.832031 178.78125 124.835938 C 178.71875 124.648438 178.664062 124.460938 178.613281 124.273438 C 178.542969 123.996094 178.492188 123.714844 178.445312 123.429688 C 178.40625 123.144531 178.367188 122.863281 178.351562 122.574219 C 178.335938 122.285156 178.324219 122 178.347656 121.703125 C 178.347656 121.691406 178.359375 121.683594 178.367188 121.671875 C 178.386719 121.628906 178.421875 121.59375 178.472656 121.597656 C 178.515625 121.601562 178.554688 121.628906 178.570312 121.667969 C 178.570312 121.667969 178.570312 121.667969 178.570312 121.671875 C 178.6875 121.941406 178.765625 122.21875 178.839844 122.496094 C 178.917969 122.773438 178.972656 123.054688 179.023438 123.335938 C 179.070312 123.617188 179.109375 123.902344 179.128906 124.1875 C 179.144531 124.40625 179.148438 124.625 179.144531 124.84375 C 180.433594 124.867188 181.722656 124.894531 183.007812 124.945312 C 183.082031 124.949219 183.140625 125.011719 183.136719 125.085938 Z M 190.753906 91.007812 C 190.46875 92.691406 190.140625 94.367188 189.730469 96.023438 C 189.320312 97.683594 188.863281 99.332031 188.328125 100.949219 C 187.265625 104.199219 185.984375 107.378906 184.457031 110.4375 L 184.328125 110.699219 L 184.074219 110.554688 C 183.9375 110.476562 183.800781 110.402344 183.664062 110.324219 C 182.003906 109.378906 180.328125 108.460938 178.652344 107.535156 C 176.832031 106.546875 175.027344 105.523438 173.246094 104.460938 C 173.214844 104.441406 173.199219 104.414062 173.195312 104.386719 C 173.1875 104.359375 173.191406 104.332031 173.207031 104.304688 C 173.238281 104.253906 173.304688 104.238281 173.355469 104.265625 C 175.171875 105.257812 177.027344 106.183594 178.863281 107.140625 C 180.613281 108.046875 182.367188 108.960938 184.085938 109.933594 C 185.503906 106.957031 186.761719 103.90625 187.808594 100.777344 C 188.347656 99.171875 188.855469 97.550781 189.292969 95.910156 C 189.734375 94.273438 190.148438 92.625 190.492188 90.960938 C 190.507812 90.886719 190.574219 90.839844 190.648438 90.855469 C 190.71875 90.871094 190.765625 90.9375 190.753906 91.007812 Z M 137.011719 71.113281 C 136.980469 71.015625 136.949219 70.925781 136.917969 70.828125 C 136.898438 70.769531 136.929688 70.707031 136.988281 70.691406 C 137.046875 70.671875 137.105469 70.699219 137.128906 70.75 C 137.175781 70.863281 137.222656 70.972656 137.269531 71.085938 C 137.777344 72.261719 138.261719 73.445312 138.738281 74.628906 C 139.257812 75.925781 139.75 77.234375 140.261719 78.535156 L 141.710938 82.476562 C 141.90625 83.015625 142.097656 83.558594 142.285156 84.101562 C 142.554688 84.878906 142.824219 85.660156 143.074219 86.445312 C 143.097656 86.515625 143.058594 86.589844 142.988281 86.609375 C 142.925781 86.632812 142.855469 86.601562 142.828125 86.539062 C 142.476562 85.730469 142.140625 84.917969 141.808594 84.105469 C 141.613281 83.621094 141.421875 83.140625 141.226562 82.660156 L 139.710938 78.746094 C 139.234375 77.429688 138.738281 76.121094 138.273438 74.804688 C 137.839844 73.578125 137.414062 72.351562 137.011719 71.113281 Z M 164.988281 73.042969 C 164.949219 72.992188 164.957031 72.925781 165.003906 72.886719 C 165.050781 72.847656 165.117188 72.851562 165.15625 72.890625 C 166.027344 73.71875 167.320312 73.910156 168.464844 73.703125 C 169.636719 73.488281 170.726562 72.933594 171.832031 72.378906 C 172.46875 72.074219 173.105469 71.761719 173.742188 71.457031 C 174.222656 71.226562 174.699219 71 175.179688 70.773438 C 176.300781 70.253906 177.425781 69.738281 178.570312 69.253906 C 178.636719 69.226562 178.714844 69.257812 178.742188 69.324219 C 178.769531 69.390625 178.742188 69.460938 178.6875 69.496094 C 177.605469 70.101562 176.507812 70.671875 175.40625 71.238281 C 174.660156 71.625 173.902344 72 173.148438 72.378906 C 172.796875 72.550781 172.441406 72.726562 172.089844 72.902344 C 170.980469 73.425781 169.828125 74.019531 168.539062 74.191406 C 167.898438 74.273438 167.238281 74.246094 166.613281 74.066406 C 165.992188 73.878906 165.398438 73.546875 164.988281 73.042969 Z M 156.332031 82.234375 C 156.839844 81.058594 157.402344 79.90625 158.054688 78.804688 C 158.707031 77.703125 159.425781 76.644531 160.230469 75.652344 C 160.277344 75.59375 160.359375 75.589844 160.417969 75.632812 C 160.46875 75.675781 160.480469 75.753906 160.445312 75.808594 C 159.757812 76.871094 159.101562 77.949219 158.503906 79.058594 C 157.90625 80.167969 157.347656 81.296875 156.867188 82.460938 C 156.457031 83.390625 156.109375 84.34375 155.785156 85.308594 C 155.707031 85.539062 155.621094 85.765625 155.550781 85.996094 C 155.25 86.925781 154.996094 87.871094 154.757812 88.820312 C 154.742188 88.882812 154.726562 88.945312 154.710938 89.003906 C 154.660156 89.21875 154.597656 89.4375 154.550781 89.652344 C 154.53125 89.710938 154.472656 89.75 154.414062 89.734375 C 154.355469 89.722656 154.320312 89.667969 154.328125 89.613281 C 154.355469 89.390625 154.386719 89.171875 154.421875 88.949219 C 154.574219 87.910156 154.796875 86.875 155.074219 85.859375 C 155.40625 84.621094 155.84375 83.414062 156.332031 82.234375 Z M 162.859375 64.277344 C 162.875 64.226562 162.929688 64.195312 162.980469 64.203125 C 163.300781 64.25 163.621094 64.273438 163.941406 64.289062 C 164.410156 64.308594 164.875 64.296875 165.335938 64.238281 C 166.113281 64.140625 166.878906 63.957031 167.59375 63.65625 C 168.324219 63.378906 169.003906 62.984375 169.628906 62.519531 C 170.257812 62.054688 170.820312 61.5 171.308594 60.875 C 171.355469 60.820312 171.4375 60.808594 171.496094 60.851562 C 171.546875 60.894531 171.5625 60.964844 171.53125 61.023438 C 171.140625 61.746094 170.589844 62.386719 169.953125 62.925781 C 169.316406 63.464844 168.582031 63.882812 167.8125 64.203125 C 167.03125 64.492188 166.210938 64.691406 165.378906 64.730469 C 165.226562 64.738281 165.074219 64.738281 164.921875 64.738281 C 164.242188 64.730469 163.566406 64.632812 162.929688 64.421875 C 162.871094 64.402344 162.835938 64.335938 162.859375 64.277344 Z M 156.363281 49.089844 C 156.738281 48.734375 157.316406 48.636719 157.824219 48.75 C 158.074219 48.8125 158.324219 48.917969 158.527344 49.085938 C 158.730469 49.25 158.902344 49.453125 158.992188 49.695312 C 159.015625 49.769531 158.980469 49.847656 158.910156 49.875 C 158.863281 49.890625 158.816406 49.878906 158.78125 49.855469 L 158.773438 49.851562 C 158.59375 49.71875 158.425781 49.609375 158.246094 49.519531 C 158.0625 49.4375 157.878906 49.363281 157.6875 49.320312 C 157.496094 49.269531 157.300781 49.25 157.097656 49.238281 C 156.894531 49.230469 156.691406 49.25 156.46875 49.289062 L 156.460938 49.289062 C 156.398438 49.300781 156.339844 49.253906 156.328125 49.191406 C 156.320312 49.152344 156.335938 49.113281 156.363281 49.089844 Z M 160.976562 59.070312 C 160.558594 59.070312 160.125 58.941406 159.820312 58.660156 C 159.773438 58.617188 159.773438 58.542969 159.8125 58.496094 C 159.847656 58.464844 159.894531 58.453125 159.9375 58.46875 L 159.941406 58.46875 C 160.605469 58.722656 161.3125 58.574219 161.902344 58.253906 C 161.980469 58.214844 162.050781 58.160156 162.128906 58.109375 C 162.34375 57.972656 162.554688 57.816406 162.765625 57.644531 C 162.792969 57.625 162.824219 57.597656 162.851562 57.574219 C 163.101562 57.363281 163.347656 57.132812 163.617188 56.921875 C 163.679688 56.875 163.761719 56.882812 163.804688 56.945312 C 163.84375 56.988281 163.84375 57.046875 163.816406 57.097656 C 163.621094 57.425781 163.390625 57.734375 163.125 58.023438 C 162.859375 58.316406 162.542969 58.574219 162.179688 58.769531 C 161.808594 58.960938 161.398438 59.078125 160.976562 59.070312 Z M 158.847656 46.871094 C 158.976562 47.066406 159.074219 47.285156 159.109375 47.519531 C 159.117188 47.597656 159.0625 47.664062 158.988281 47.671875 C 158.941406 47.679688 158.898438 47.664062 158.871094 47.632812 L 158.867188 47.628906 C 158.722656 47.476562 158.589844 47.332031 158.449219 47.199219 C 158.304688 47.070312 158.167969 46.941406 158.011719 46.832031 C 157.867188 46.710938 157.703125 46.613281 157.542969 46.507812 C 157.375 46.402344 157.199219 46.316406 157.011719 46.21875 L 157.003906 46.214844 C 156.949219 46.183594 156.929688 46.113281 156.957031 46.054688 C 156.976562 46.023438 157.007812 46 157.042969 45.996094 C 157.273438 45.957031 157.507812 45.988281 157.734375 46.050781 C 157.964844 46.109375 158.171875 46.226562 158.363281 46.363281 C 158.554688 46.503906 158.722656 46.671875 158.847656 46.871094 Z M 166.210938 46.84375 C 165.925781 46.589844 165.613281 46.367188 165.273438 46.203125 C 164.9375 46.03125 164.570312 45.925781 164.191406 45.855469 C 163.808594 45.789062 163.417969 45.78125 163.015625 45.8125 C 162.953125 45.816406 162.898438 45.773438 162.890625 45.710938 C 162.886719 45.660156 162.914062 45.617188 162.957031 45.59375 C 163.355469 45.417969 163.796875 45.347656 164.238281 45.363281 C 164.683594 45.375 165.121094 45.484375 165.53125 45.675781 C 165.933594 45.871094 166.300781 46.144531 166.585938 46.484375 C 166.875 46.820312 167.097656 47.210938 167.207031 47.632812 C 167.226562 47.703125 167.183594 47.777344 167.113281 47.796875 C 167.054688 47.8125 166.996094 47.785156 166.964844 47.738281 C 166.742188 47.40625 166.496094 47.101562 166.210938 46.84375 Z M 158.363281 53.070312 C 158.128906 53.589844 158.011719 54.164062 158.128906 54.6875 C 158.246094 55.191406 158.660156 55.683594 159.21875 55.773438 L 159.222656 55.773438 C 159.285156 55.78125 159.324219 55.839844 159.316406 55.902344 C 159.308594 55.953125 159.261719 55.992188 159.214844 55.996094 C 158.503906 56.042969 157.875 55.492188 157.652344 54.828125 C 157.425781 54.152344 157.570312 53.433594 157.828125 52.835938 C 158.097656 52.230469 158.472656 51.71875 158.816406 51.222656 C 159.152344 50.722656 159.457031 50.210938 159.605469 49.640625 C 159.621094 49.570312 159.695312 49.523438 159.765625 49.542969 C 159.828125 49.554688 159.871094 49.613281 159.867188 49.675781 C 159.847656 50.335938 159.5625 50.949219 159.257812 51.492188 C 158.949219 52.042969 158.59375 52.542969 158.363281 53.070312 Z M 202.523438 264.15625 C 202.390625 264.800781 202.003906 264.871094 201.660156 264.308594 C 201.3125 263.753906 201.136719 262.773438 201.269531 262.125 C 201.398438 261.484375 201.785156 261.414062 202.132812 261.972656 C 202.480469 262.53125 202.65625 263.507812 202.523438 264.15625 Z M 202.59375 260.320312 L 194.898438 260.320312 C 194.898438 260.320312 194.425781 263.191406 192.539062 264.652344 C 190.78125 266.015625 190.722656 270.003906 190.722656 270.003906 L 204.269531 270.003906 Z M 113.722656 98.988281 C 109.386719 97.738281 107.292969 92.328125 109.929688 92.328125 C 112.132812 92.328125 112.941406 93.648438 112.941406 93.648438 C 112.941406 93.648438 113.761719 92.328125 115.4375 92.328125 C 118.074219 92.328125 117.671875 97.738281 113.722656 98.988281 Z M 127.910156 110.683594 C 127.746094 109.875 129.621094 109.914062 133.242188 109.914062 C 136.863281 109.914062 140.382812 113.488281 140.382812 113.488281 C 140.382812 113.488281 148.792969 112.371094 156.578125 111.128906 C 159.417969 110.679688 162.167969 110.210938 164.402344 109.773438 C 164.480469 109.433594 164.523438 109.085938 164.523438 108.722656 L 141.929688 108.722656 L 138.007812 84.152344 L 137.566406 81.363281 C 137.238281 79.324219 135.480469 77.828125 133.417969 77.828125 L 96.097656 77.828125 C 93.515625 77.828125 91.546875 80.132812 91.953125 82.683594 L 96.300781 109.953125 C 96.625 111.988281 98.386719 113.488281 100.449219 113.488281 L 119.164062 113.488281 L 133.140625 113.410156 C 133.140625 113.410156 128.078125 111.492188 127.910156 110.683594 Z M 142.765625 265.375 C 141.902344 265.375 141.257812 264.675781 141.328125 263.808594 C 141.398438 262.945312 142.15625 262.242188 143.023438 262.242188 C 143.890625 262.242188 144.535156 262.945312 144.460938 263.808594 C 144.390625 264.675781 143.632812 265.375 142.765625 265.375 Z M 140.449219 260.320312 L 140.46875 260.320312 C 140.46875 260.320312 139.375 263.363281 133.632812 264.125 C 128.246094 264.839844 124.582031 270.003906 124.582031 270.003906 L 146.03125 270.003906 L 148.164062 260.320312 L 148.144531 260.320312 C 148.144531 260.320312 159.648438 238.878906 161.671875 221.355469 C 163.695312 203.832031 162.738281 196.070312 167.578125 186.230469 C 168.964844 183.410156 170.929688 180.1875 173.050781 176.730469 L 158.65625 121.671875 Z M 172.097656 44.269531 C 172.082031 44.425781 172.070312 44.585938 172.058594 44.742188 C 171.976562 44.402344 171.808594 44.066406 171.613281 43.777344 C 171.753906 43.957031 171.917969 44.121094 172.097656 44.269531 Z M 151.316406 57.617188 C 151.5625 57.496094 151.703125 57.238281 151.828125 56.992188 C 152.253906 56.164062 152.675781 55.335938 153.101562 54.507812 C 152.96875 56.257812 153.8125 58.054688 155.25 59.070312 C 155.585938 59.308594 155.992188 59.503906 156.398438 59.554688 C 154.636719 54.378906 156.1875 44.617188 156.351562 40.910156 C 156.386719 40.117188 156.535156 39.328125 156.777344 38.574219 C 157.226562 38.183594 157.785156 37.902344 158.351562 37.800781 C 157.664062 39.507812 158.320312 41.503906 159.433594 42.972656 C 159.769531 43.417969 160.164062 43.84375 160.679688 44.058594 C 161.195312 44.273438 161.855469 44.222656 162.234375 43.8125 C 162.242188 43.804688 162.246094 43.792969 162.257812 43.78125 C 162.433594 43.566406 162.496094 43.269531 162.449219 43 C 162.941406 43.570312 163.570312 44.019531 164.273438 44.292969 C 164.621094 44.425781 165.011719 44.515625 165.367188 44.394531 C 165.789062 44.246094 166.0625 43.816406 166.144531 43.375 C 166.226562 42.9375 166.15625 42.484375 166.085938 42.039062 C 166.894531 43.503906 168.070312 44.765625 169.480469 45.667969 C 169.921875 45.949219 170.410156 46.203125 170.933594 46.203125 C 171.363281 46.203125 171.804688 45.976562 172 45.613281 C 171.960938 46.347656 171.949219 47.085938 171.957031 47.824219 C 172.363281 47.230469 172.808594 46.640625 173.449219 46.308594 C 174.144531 45.949219 175.140625 46.035156 175.554688 46.703125 C 175.871094 47.21875 175.753906 47.882812 175.582031 48.464844 C 175.289062 49.46875 174.855469 50.46875 174.117188 51.210938 C 173.621094 51.714844 172.960938 52.078125 172.269531 52.195312 C 172.558594 54.351562 173.039062 56.476562 173.71875 58.542969 C 174.371094 60.535156 175.238281 62.527344 176.738281 63.996094 C 176.851562 64.101562 176.972656 64.207031 177.097656 64.296875 C 177.382812 64.5 177.707031 64.636719 178.035156 64.554688 C 178.648438 64.402344 178.851562 63.621094 178.789062 62.992188 C 178.726562 62.367188 178.519531 61.707031 178.757812 61.121094 C 179.578125 61.53125 179.886719 62.730469 180.785156 62.886719 C 181.503906 63.011719 182.152344 62.316406 182.253906 61.59375 C 182.355469 60.875 182.070312 60.160156 181.789062 59.488281 C 182.828125 59.835938 183.894531 60.1875 184.988281 60.164062 C 186.085938 60.140625 187.238281 59.65625 187.769531 58.699219 C 188.476562 57.429688 187.902344 55.859375 187.324219 54.527344 C 188.40625 55.144531 189.871094 55.007812 190.820312 54.199219 C 191.773438 53.390625 192.148438 51.96875 191.714844 50.800781 C 191.621094 50.542969 191.484375 50.273438 191.539062 50 C 191.613281 49.652344 191.957031 49.449219 192.226562 49.222656 C 193.25 48.367188 193.417969 46.765625 192.855469 45.550781 C 192.296875 44.339844 191.15625 43.484375 189.933594 42.941406 C 188.714844 42.398438 187.398438 42.117188 186.121094 41.738281 C 184.839844 41.355469 183.5625 40.847656 182.582031 39.9375 C 182.1875 39.574219 181.851562 39.148438 181.511719 38.730469 C 180.855469 36.824219 179.363281 35.191406 177.464844 34.480469 C 178.054688 34.488281 179.433594 34.789062 179.9375 34.480469 C 180.4375 34.167969 180.757812 33.496094 180.488281 32.96875 C 180.273438 32.550781 179.777344 32.367188 179.320312 32.246094 C 178.054688 31.917969 176.75 31.695312 175.449219 31.753906 C 175.769531 31.632812 176.042969 31.347656 176.140625 31.011719 C 176.296875 30.492188 176.101562 29.914062 175.75 29.496094 C 174.984375 28.585938 173.648438 28.414062 172.460938 28.523438 C 171.371094 28.621094 170.359375 28.914062 169.359375 29.351562 C 169.789062 28.90625 169.648438 28.117188 169.203125 27.691406 C 168.757812 27.257812 168.113281 27.113281 167.496094 27.058594 C 166.320312 26.957031 165.097656 27.140625 164.074219 27.722656 C 163.046875 28.300781 162.3125 29.121094 162.097656 30.277344 C 161.851562 29.808594 161.601562 29.332031 161.226562 28.957031 C 160.855469 28.582031 160.335938 28.316406 159.8125 28.371094 C 159.324219 28.421875 158.910156 28.734375 158.570312 29.085938 C 158.171875 29.5 157.84375 30.003906 157.78125 30.574219 C 157.675781 31.523438 158.414062 32.515625 159.019531 33.25 C 157.179688 33.375 155.304688 33.5 153.585938 34.175781 C 153.375 34.257812 153.160156 34.351562 152.996094 34.511719 C 152.828125 34.671875 152.722656 34.90625 152.773438 35.128906 C 152.824219 35.359375 153.023438 35.523438 153.222656 35.652344 C 153.972656 36.148438 154.871094 36.320312 155.773438 36.296875 C 154.355469 37.503906 153.21875 39.09375 152.378906 40.703125 C 151.054688 43.253906 150.347656 46.078125 149.757812 48.890625 C 149.207031 51.507812 148.773438 54.359375 149.953125 56.765625 C 150.214844 57.300781 150.777344 57.871094 151.316406 57.617188"/></g></svg>