<svg xmlns="http://www.w3.org/2000/svg" width="224.88" viewBox="0 0 224.88 225" height="225" version="1.0"><defs><clipPath id="a"><path d="M 13.082031 1 L 211.726562 1 L 211.726562 224 L 13.082031 224 Z M 13.082031 1"/></clipPath><clipPath id="b"><path d="M 112 56 L 211.726562 56 L 211.726562 169 L 112 169 Z M 112 56"/></clipPath></defs><g clip-path="url(#a)"><path fill="#5C8DBC" d="M 211.421875 66.664062 C 211.421875 62.917969 210.617188 59.609375 208.996094 56.769531 C 207.40625 53.980469 205.027344 51.640625 201.835938 49.789062 C 175.464844 34.582031 149.078125 19.417969 122.710938 4.195312 C 115.605469 0.0898438 108.71875 0.242188 101.664062 4.402344 C 91.171875 10.59375 38.621094 40.707031 22.960938 49.78125 C 16.515625 53.515625 13.378906 59.230469 13.378906 66.65625 C 13.367188 97.246094 13.378906 127.824219 13.367188 158.414062 C 13.367188 162.074219 14.136719 165.3125 15.683594 168.113281 C 17.273438 170.988281 19.6875 173.398438 22.957031 175.289062 C 38.613281 184.359375 91.164062 214.46875 101.660156 220.660156 C 108.71875 224.832031 115.609375 224.980469 122.714844 220.871094 C 149.078125 205.648438 175.476562 190.484375 201.847656 175.28125 C 205.117188 173.390625 207.527344 170.980469 209.125 168.105469 C 210.664062 165.3125 211.433594 162.066406 211.433594 158.398438 C 211.433594 158.398438 211.433594 97.253906 211.425781 66.664062"/></g><path fill="#1A4674" d="M 112.699219 112.238281 L 15.683594 168.113281 C 17.273438 170.988281 19.6875 173.398438 22.957031 175.289062 C 38.613281 184.359375 91.164062 214.46875 101.660156 220.660156 C 108.71875 224.832031 115.609375 224.980469 122.714844 220.871094 C 149.078125 205.644531 175.476562 190.484375 201.847656 175.28125 C 205.117188 173.390625 207.527344 170.980469 209.125 168.105469 L 112.703125 112.238281"/><path fill="#1A4674" d="M 83.964844 128.785156 C 89.613281 138.648438 100.222656 145.296875 112.398438 145.296875 C 124.648438 145.296875 135.320312 138.5625 140.941406 128.601562 L 112.699219 112.238281 L 83.964844 128.785156"/><g clip-path="url(#b)"><path fill="#1B598E" d="M 211.421875 66.664062 C 211.421875 62.917969 210.617188 59.609375 208.996094 56.769531 L 112.699219 112.238281 L 209.121094 168.105469 C 210.664062 165.3125 211.429688 162.066406 211.429688 158.398438 C 211.429688 158.398438 211.429688 97.253906 211.421875 66.664062"/></g><path fill="#FFF" d="M 206.121094 116.230469 L 198.589844 116.230469 L 198.589844 123.761719 L 191.046875 123.761719 L 191.046875 116.230469 L 183.515625 116.230469 L 183.515625 108.695312 L 191.046875 108.695312 L 191.046875 101.160156 L 198.589844 101.160156 L 198.589844 108.695312 L 206.121094 108.695312 L 206.121094 116.230469"/><path fill="#FFF" d="M 178.625 116.230469 L 171.09375 116.230469 L 171.09375 123.761719 L 163.558594 123.761719 L 163.558594 116.230469 L 156.027344 116.230469 L 156.027344 108.695312 L 163.558594 108.695312 L 163.558594 101.160156 L 171.09375 101.160156 L 171.09375 108.695312 L 178.625 108.695312 L 178.625 116.230469"/><path fill="#FFF" d="M 140.941406 128.601562 C 135.320312 138.5625 124.648438 145.296875 112.398438 145.296875 C 100.222656 145.296875 89.613281 138.648438 83.964844 128.785156 C 81.222656 123.996094 79.644531 118.453125 79.644531 112.53125 C 79.644531 94.4375 94.3125 79.773438 112.398438 79.773438 C 124.496094 79.773438 135.050781 86.335938 140.722656 96.097656 L 169.347656 79.609375 C 157.972656 59.960938 136.730469 46.742188 112.398438 46.742188 C 76.074219 46.742188 46.625 76.199219 46.625 112.53125 C 46.625 124.453125 49.796875 135.632812 55.335938 145.273438 C 66.6875 165.027344 87.992188 178.328125 112.398438 178.328125 C 136.855469 178.328125 158.191406 164.972656 169.519531 145.167969 L 140.941406 128.601562"/></svg>