<svg xmlns="http://www.w3.org/2000/svg" width="60" viewBox="0 0 60 60" height="60" version="1.0"><defs><clipPath id="a"><path d="M 0 44 L 60 44 L 60 50.945312 L 0 50.945312 Z M 0 44"/></clipPath><clipPath id="b"><path d="M 46 8.945312 L 60 8.945312 L 60 25 L 46 25 Z M 46 8.945312"/></clipPath></defs><g clip-path="url(#a)"><path fill="#CADFDF" d="M 0.488281 45.289062 C 0.625 45.082031 0.890625 45.011719 1.132812 44.957031 C 3.839844 44.375 6.644531 44.855469 9.394531 45.175781 C 11.304688 45.398438 13.230469 45.539062 15.15625 45.59375 C 18.921875 45.707031 22.6875 45.503906 26.449219 45.304688 C 32.503906 44.980469 38.558594 44.652344 44.613281 44.328125 C 48.472656 44.121094 52.378906 43.917969 56.175781 44.65625 C 56.875 44.792969 57.597656 44.972656 58.136719 45.4375 C 58.945312 46.132812 59.152344 47.28125 59.308594 48.335938 C 59.425781 49.125 59.480469 50.085938 58.835938 50.5625 C 58.457031 50.839844 57.949219 50.851562 57.476562 50.851562 C 50.460938 50.835938 43.449219 50.816406 36.433594 50.804688 C 31.402344 50.792969 26.375 50.78125 21.34375 50.769531 C 16.582031 50.757812 11.816406 50.75 7.058594 50.542969 C 5.617188 50.480469 1.921875 50.929688 0.835938 49.867188 C 0.148438 49.195312 -0.00390625 46.007812 0.488281 45.289062 Z M 0.488281 45.289062"/></g><path stroke-linecap="round" transform="matrix(.23199 0 0 .2314 -19.529 -19.008)" fill="none" stroke-linejoin="round" d="M 106.795718 275.425522 C 112.756475 275.813776 118.75091 276.674685 124.67799 277.366789 C 132.928757 278.328982 141.213199 278.936683 149.51448 279.173011 C 165.746599 279.662548 181.995557 278.784758 198.210838 277.923848 C 224.3102 276.52276 250.409562 275.104791 276.492086 273.703703 C 293.145162 272.809032 309.98346 271.931242 326.333448 275.121672 C 329.347503 275.712492 332.462588 276.488999 334.786273 278.497788" stroke="#144778" stroke-width="5" stroke-miterlimit="10"/><path fill="#F9B347" d="M 6.558594 36.03125 C 9.527344 32.082031 12.503906 28.121094 15.8125 24.523438 C 15.921875 24.40625 16.035156 24.28125 16.183594 24.25 C 16.371094 24.203125 16.5625 24.304688 16.730469 24.402344 C 20.421875 26.554688 24.113281 28.699219 27.808594 30.851562 C 28.210938 31.082031 28.632812 31.324219 29.089844 31.324219 C 29.878906 31.316406 36.757812 24.273438 39.839844 21.726562 C 42.066406 19.882812 44.296875 18.039062 46.523438 16.191406 C 45.386719 14.113281 44.246094 12.03125 43.105469 9.953125 C 48.535156 9.953125 53.960938 9.8125 59.382812 9.53125 C 57.390625 14.777344 55.867188 20.246094 54.84375 25.832031 C 53.601562 24.34375 52.214844 23 50.71875 21.839844 C 45.230469 28.644531 39.738281 35.445312 34.25 42.25 C 34.105469 42.425781 33.953125 42.613281 33.753906 42.699219 C 33.421875 42.839844 33.054688 42.675781 32.730469 42.519531 C 28.585938 40.46875 24.496094 38.292969 20.457031 35.996094 C 20.457031 35.996094 14.714844 42.253906 14.121094 42.476562 C 13.324219 42.777344 3.179688 42.628906 2.699219 42.078125 C 1.960938 41.230469 5.996094 36.777344 6.558594 36.03125 Z M 6.558594 36.03125"/><g clip-path="url(#b)"><path stroke-linecap="round" transform="matrix(.23199 0 0 .2314 -19.529 -19.008)" fill="none" stroke-linejoin="round" d="M 286.174107 125.036415 C 304.174248 124.816967 322.174388 124.243028 340.15769 123.314595 C 332.64781 143.16616 326.670214 163.74359 322.342771 184.759915" stroke="#144778" stroke-width="5" stroke-miterlimit="10"/></g><path stroke-linecap="round" transform="matrix(.23199 0 0 .2314 -19.529 -19.008)" fill="none" stroke-linejoin="round" d="M 102.013641 253.835257 C 106.307407 254.18975 110.618012 254.544242 114.894939 254.881854 C 116.679799 255.033779 118.498335 255.185704 120.13165 255.894688" stroke="#144778" stroke-width="5" stroke-miterlimit="10"/><path stroke-linecap="round" transform="matrix(.23199 0 0 .2314 -19.529 -19.008)" fill="none" stroke-linejoin="round" d="M 109.877126 244.297728 C 116.76399 244.719743 123.667693 245.141758 130.554556 245.580653 C 131.160735 245.614414 131.766914 245.665056 132.322578 245.867623" stroke="#144778" stroke-width="5" stroke-miterlimit="10"/><path stroke-linecap="round" transform="matrix(.23199 0 0 .2314 -19.529 -19.008)" fill="none" stroke-linejoin="round" d="M 117.488037 235.047169 C 120.165327 235.756154 122.926807 236.144407 125.688288 236.22881 C 126.782778 236.262571 127.910944 236.245691 128.954918 236.583302" stroke="#144778" stroke-width="5" stroke-miterlimit="10"/></svg>