<svg xmlns="http://www.w3.org/2000/svg" width="224.88" viewBox="0 0 224.88 225" height="225" version="1.0"><defs><clipPath id="a"><path d="M 83 0.0585938 L 142 0.0585938 L 142 123 L 83 123 Z M 83 0.0585938"/></clipPath></defs><path fill="#5382A1" d="M 83.710938 172.492188 C 83.710938 172.492188 75.191406 177.453125 89.777344 179.132812 C 107.449219 181.144531 116.476562 180.855469 135.949219 177.167969 C 135.949219 177.167969 141.066406 180.378906 148.222656 183.160156 C 104.570312 201.871094 49.425781 182.074219 83.710938 172.492188"/><path fill="#5382A1" d="M 78.375 148.082031 C 78.375 148.082031 68.820312 155.15625 83.417969 156.667969 C 102.289062 158.613281 117.199219 158.773438 142.992188 153.800781 C 142.992188 153.800781 146.5625 157.425781 152.171875 159.398438 C 99.390625 174.832031 40.605469 160.621094 78.375 148.082031"/><path fill="#E76F00" d="M 123.34375 106.664062 C 134.101562 119.054688 120.515625 130.199219 120.515625 130.199219 C 120.515625 130.199219 147.835938 116.097656 135.289062 98.4375 C 123.570312 81.972656 114.589844 73.792969 163.226562 45.585938 C 163.226562 45.585938 86.886719 64.652344 123.34375 106.664062"/><path fill="#5382A1" d="M 181.078125 190.550781 C 181.078125 190.550781 187.386719 195.75 174.136719 199.773438 C 148.9375 207.402344 69.257812 209.710938 47.125 200.074219 C 39.171875 196.617188 54.09375 191.8125 58.785156 190.796875 C 63.679688 189.738281 66.476562 189.9375 66.476562 189.9375 C 57.628906 183.703125 9.285156 202.175781 41.921875 207.46875 C 130.925781 221.898438 204.167969 200.96875 181.078125 190.550781"/><path fill="#5382A1" d="M 87.808594 122.785156 C 87.808594 122.785156 47.28125 132.410156 73.457031 135.90625 C 84.507812 137.390625 106.546875 137.054688 127.0625 135.332031 C 143.839844 133.917969 160.683594 130.90625 160.683594 130.90625 C 160.683594 130.90625 154.769531 133.445312 150.488281 136.363281 C 109.328125 147.191406 29.824219 142.15625 52.710938 131.082031 C 72.070312 121.726562 87.808594 122.785156 87.808594 122.785156"/><path fill="#5382A1" d="M 160.515625 163.421875 C 202.351562 141.683594 183.003906 120.789062 169.503906 123.605469 C 166.195312 124.296875 164.71875 124.890625 164.71875 124.890625 C 164.71875 124.890625 165.945312 122.964844 168.296875 122.132812 C 195.003906 112.746094 215.550781 149.832031 159.667969 164.519531 C 159.667969 164.519531 160.320312 163.9375 160.515625 163.421875"/><g clip-path="url(#a)"><path fill="#E76F00" d="M 135.289062 0.0429688 C 135.289062 0.0429688 158.460938 23.21875 113.3125 58.859375 C 77.109375 87.449219 105.058594 103.75 113.296875 122.378906 C 92.164062 103.3125 76.65625 86.527344 87.0625 70.90625 C 102.335938 47.976562 144.636719 36.859375 135.289062 0.0390625"/></g><path fill="#5382A1" d="M 91.921875 222.339844 C 132.082031 224.90625 193.746094 220.910156 195.203125 201.910156 C 195.203125 201.910156 192.394531 209.109375 162.019531 214.828125 C 127.742188 221.277344 85.464844 220.53125 60.394531 216.390625 C 60.394531 216.390625 65.523438 220.640625 91.917969 222.339844"/></svg>