<svg xmlns="http://www.w3.org/2000/svg" width="375" viewBox="0 0 375 375" height="375" version="1.0"><defs><clipPath id="a"><path d="M 11.78125 327 L 309 327 L 309 363.53125 L 11.78125 363.53125 Z M 11.78125 327"/></clipPath><clipPath id="b"><path d="M 25 348 L 295 348 L 295 363.53125 L 25 363.53125 Z M 25 348"/></clipPath></defs><path fill="#884CFF" d="M 154.058594 179.269531 L 26.375 179.269531 C 26.375 179.269531 26.375 276.578125 93.105469 332.566406 L 227.054688 332.566406 C 293.785156 276.578125 293.785156 179.269531 293.785156 179.269531 L 154.058594 179.269531"/><path fill="#00C2CB" d="M 227.054688 332.566406 L 93.105469 332.566406 C 26.652344 276.808594 26.375 180.074219 26.375 179.285156 L 26.375 179.269531 L 64.273438 179.269531 C 86.710938 208.796875 138.664062 283.0625 266.007812 284.316406 C 256.582031 301.554688 243.957031 318.375 227.054688 332.566406"/><g clip-path="url(#a)"><path fill="#884CFF" d="M 11.703125 327.816406 C 12.585938 347.453125 47.28125 363.113281 64.9375 363.113281 L 255.222656 363.113281 C 272.878906 363.113281 307.574219 347.453125 308.457031 327.816406 L 11.703125 327.816406"/></g><g clip-path="url(#b)"><path fill="#D9D9D9" d="M 25.398438 348.460938 C 37.300781 357.371094 54.246094 363.113281 64.9375 363.113281 L 255.222656 363.113281 C 265.929688 363.113281 282.875 357.371094 294.761719 348.460938 L 25.398438 348.460938"/></g><path fill="#884CFF" d="M 292.886719 194 C 292.886719 194 342.609375 169.054688 353.96875 207.09375 C 363.453125 238.894531 311.796875 281.511719 262.757812 290.007812 L 267.105469 281.46875 C 267.105469 281.46875 347.808594 233.925781 331.25 211.628906 C 316.488281 191.757812 289.808594 215.605469 289.808594 215.605469 L 292.886719 194"/><path fill="#5CE1E6" d="M 168.3125 171.917969 C 168.3125 171.917969 206.921875 143.148438 200.097656 101.523438 C 193.289062 59.878906 155.4375 37.933594 168.3125 12.191406 C 168.3125 12.191406 144.835938 28.09375 148.644531 56.101562 C 151.957031 80.398438 194.046875 139.359375 168.3125 171.917969"/><path fill="#5CE1E6" d="M 132.765625 171.917969 C 132.765625 171.917969 158.75 152.558594 154.152344 124.535156 C 149.574219 96.523438 124.101562 81.746094 132.765625 64.414062 C 132.765625 64.414062 116.980469 75.121094 119.535156 93.96875 C 121.761719 110.3125 150.082031 150.003906 132.765625 171.917969"/></svg>