<svg xmlns="http://www.w3.org/2000/svg" width="60" viewBox="0 0 60 60" height="60" version="1.0"><defs><clipPath id="a"><path d="M 15.230469 56.175781 L 35.53125 56.175781 L 35.53125 59.25 L 15.230469 59.25 Z M 15.230469 56.175781"/></clipPath><clipPath id="b"><path d="M 29.441406 56.175781 L 35.53125 56.175781 L 35.53125 59.25 L 29.441406 59.25 Z M 29.441406 56.175781"/></clipPath></defs><path fill="#463C4B" d="M 54.796875 47.003906 L 0.03125 47.003906 L 0.03125 20.464844 C 0.03125 18.210938 1.847656 16.382812 4.089844 16.382812 L 50.742188 16.382812 C 52.980469 16.382812 54.796875 18.210938 54.796875 20.464844 L 54.796875 47.003906"/><path fill="#555A6E" d="M 50.742188 47.003906 L 0.03125 47.003906 L 0.03125 20.464844 C 0.03125 18.210938 1.847656 16.382812 4.089844 16.382812 L 46.683594 16.382812 C 48.925781 16.382812 50.742188 18.210938 50.742188 20.464844 L 50.742188 47.003906"/><path fill="#A5C3DC" d="M 4.089844 52.105469 L 50.742188 52.105469 C 52.980469 52.105469 54.796875 50.277344 54.796875 48.023438 L 54.796875 47.003906 L 0.03125 47.003906 L 0.03125 48.023438 C 0.03125 50.277344 1.847656 52.105469 4.089844 52.105469"/><path fill="#D7E6F0" d="M 46.683594 52.105469 L 4.089844 52.105469 C 1.847656 52.105469 0.03125 50.277344 0.03125 48.023438 L 0.03125 47.003906 L 50.742188 47.003906 L 50.742188 48.023438 C 50.742188 50.277344 48.925781 52.105469 46.683594 52.105469"/><path fill="#A5C3DC" d="M 21.332031 56.1875 L 30.457031 56.1875 L 30.457031 52.105469 L 21.332031 52.105469 L 21.332031 56.1875"/><path fill="#D7E6F0" d="M 21.332031 56.1875 L 27.414062 56.1875 L 27.414062 54.148438 L 21.332031 54.148438 L 21.332031 56.1875"/><g clip-path="url(#a)"><path fill="#D7E6F0" d="M 35.527344 59.25 L 15.246094 59.25 L 15.246094 58.230469 C 15.246094 57.101562 16.152344 56.1875 17.273438 56.1875 L 33.5 56.1875 C 34.621094 56.1875 35.527344 57.101562 35.527344 58.230469 L 35.527344 59.25"/></g><g clip-path="url(#b)"><path fill="#A5C3DC" d="M 35.527344 59.25 L 29.445312 59.25 L 29.445312 58.230469 C 29.445312 57.101562 30.351562 56.1875 31.472656 56.1875 L 33.5 56.1875 C 34.621094 56.1875 35.527344 57.101562 35.527344 58.230469 L 35.527344 59.25"/></g><path fill="#D7E6F0" d="M 11.1875 38.328125 C 10.800781 38.328125 10.410156 38.179688 10.113281 37.878906 L 5.042969 32.777344 C 4.449219 32.179688 4.449219 31.207031 5.042969 30.609375 L 10.113281 25.507812 C 10.707031 24.910156 11.671875 24.910156 12.265625 25.507812 C 12.859375 26.105469 12.859375 27.074219 12.265625 27.671875 L 8.269531 31.691406 L 12.265625 35.714844 C 12.859375 36.3125 12.859375 37.28125 12.265625 37.878906 C 11.96875 38.179688 11.578125 38.328125 11.1875 38.328125"/><path fill="#D7E6F0" d="M 25.386719 38.328125 C 24.996094 38.328125 24.609375 38.179688 24.3125 37.878906 C 23.71875 37.28125 23.71875 36.3125 24.3125 35.714844 L 28.304688 31.691406 L 24.3125 27.671875 C 23.71875 27.074219 23.71875 26.105469 24.3125 25.507812 C 24.90625 24.910156 25.867188 24.910156 26.460938 25.507812 L 31.535156 30.609375 C 32.128906 31.207031 32.128906 32.179688 31.535156 32.777344 L 26.460938 37.878906 C 26.164062 38.179688 25.777344 38.328125 25.386719 38.328125"/><path fill="#D7E6F0" d="M 16.257812 38.328125 C 16.070312 38.328125 15.878906 38.292969 15.695312 38.21875 C 14.914062 37.902344 14.535156 37.011719 14.847656 36.226562 L 18.902344 26.023438 C 19.214844 25.238281 20.101562 24.855469 20.882812 25.167969 C 21.660156 25.484375 22.039062 26.375 21.730469 27.160156 L 17.671875 37.363281 C 17.433594 37.964844 16.863281 38.328125 16.257812 38.328125"/><path fill="#289BC3" d="M 34.515625 43.941406 L 54.796875 43.941406 C 57.039062 43.941406 58.855469 42.113281 58.855469 39.859375 L 58.855469 23.527344 C 58.855469 21.273438 57.039062 19.445312 54.796875 19.445312 L 34.515625 19.445312 C 32.273438 19.445312 30.457031 21.273438 30.457031 23.527344 L 30.457031 39.859375 C 30.457031 42.113281 32.273438 43.941406 34.515625 43.941406"/><path fill="#00D2D2" d="M 34.515625 43.941406 L 48.710938 43.941406 C 50.953125 43.941406 52.769531 42.113281 52.769531 39.859375 L 52.769531 23.527344 C 52.769531 21.273438 50.953125 19.445312 48.710938 19.445312 L 34.515625 19.445312 C 32.273438 19.445312 30.457031 21.273438 30.457031 23.527344 L 30.457031 39.859375 C 30.457031 42.113281 32.273438 43.941406 34.515625 43.941406"/><path fill="#FF6E91" d="M 38.570312 19.445312 L 34.515625 19.445312 L 34.515625 10.390625 C 34.515625 4.773438 38.972656 0.109375 44.554688 0.0546875 C 50.195312 0 54.796875 4.597656 54.796875 10.261719 C 54.796875 11.386719 53.890625 12.300781 52.769531 12.300781 L 52.667969 12.300781 C 51.601562 12.300781 50.742188 11.433594 50.742188 10.363281 C 50.742188 7.011719 48.105469 4.203125 44.773438 4.136719 C 41.363281 4.074219 38.570312 6.84375 38.570312 10.261719 L 38.570312 19.445312"/><path fill="#555A6E" d="M 45.671875 27.609375 C 45.671875 25.261719 43.695312 23.375 41.324219 23.539062 C 39.324219 23.675781 37.703125 25.3125 37.566406 27.324219 C 37.457031 28.953125 38.296875 30.394531 39.585938 31.144531 L 39.585938 37.816406 C 39.585938 38.945312 40.492188 39.859375 41.613281 39.859375 C 42.734375 39.859375 43.640625 38.945312 43.640625 37.816406 L 43.640625 31.144531 C 44.855469 30.441406 45.671875 29.121094 45.671875 27.609375"/><path fill="#FF6E91" d="M 56.824219 15.363281 C 56.566406 15.363281 56.308594 15.265625 56.109375 15.0625 C 55.710938 14.664062 55.710938 14.019531 56.109375 13.621094 L 58.136719 11.578125 C 58.535156 11.179688 59.175781 11.179688 59.570312 11.578125 C 59.96875 11.980469 59.96875 12.625 59.570312 13.023438 L 57.542969 15.0625 C 57.34375 15.265625 57.085938 15.363281 56.824219 15.363281"/><path fill="#FF6E91" d="M 48.710938 15.363281 C 48.453125 15.363281 48.195312 15.265625 47.996094 15.0625 L 45.96875 13.023438 C 45.570312 12.625 45.570312 11.976562 45.96875 11.578125 C 46.363281 11.179688 47.003906 11.179688 47.402344 11.578125 L 49.429688 13.621094 C 49.824219 14.019531 49.824219 14.664062 49.429688 15.0625 C 49.230469 15.265625 48.972656 15.363281 48.710938 15.363281"/></svg>