<svg xmlns="http://www.w3.org/2000/svg" width="330" viewBox="0 0 330 270" height="270" version="1.0"><defs><clipPath id="a"><path d="M 18.855469 3.214844 L 307.394531 3.214844 L 307.394531 269.871094 L 18.855469 269.871094 Z M 18.855469 3.214844"/></clipPath><clipPath id="b"><path d="M 43.003906 3.214844 L 304.917969 3.214844 L 304.917969 269.871094 L 43.003906 269.871094 Z M 43.003906 3.214844"/></clipPath><clipPath id="c"><path d="M 40 4 L 307.394531 4 L 307.394531 269.871094 L 40 269.871094 Z M 40 4"/></clipPath><clipPath id="d"><path d="M 73 71.273438 L 311.351562 71.273438 L 311.351562 261.835938 L 73 261.835938 Z M 73 71.273438"/></clipPath></defs><g clip-path="url(#a)"><path fill="#F6836B" d="M 273.894531 211.722656 L 263.160156 195.597656 L 259.019531 195.597656 C 254.816406 201.195312 250.382812 206.597656 245.757812 211.722656 Z M 62.402344 30.308594 C 62.402344 30.558594 62.425781 30.800781 62.457031 31.039062 C 65.125 29.226562 67.886719 27.511719 70.730469 25.890625 C 69.875 25.3125 68.847656 24.972656 67.742188 24.972656 C 64.796875 24.972656 62.402344 27.367188 62.402344 30.308594 Z M 307.265625 221.367188 L 294.820312 221.367188 L 300.453125 269.871094 L 291.414062 269.871094 L 285.777344 221.367188 L 253.898438 221.367188 L 248.265625 269.871094 L 239.222656 269.871094 L 244.859375 221.367188 L 236.515625 221.367188 C 212.40625 244.957031 184.183594 260.855469 156.523438 260.855469 C 144.15625 260.855469 131.910156 258.449219 120.113281 254.113281 L 121.945312 269.871094 L 112.902344 269.871094 L 110.609375 250.160156 C 97.859375 244.238281 85.773438 236.097656 74.808594 226.359375 L 69.753906 269.871094 L 60.710938 269.871094 L 66.347656 221.367188 L 54.585938 221.367188 L 54.585938 211.722656 L 60.21875 211.722656 C 35.183594 183.425781 18.855469 146.65625 18.855469 111.777344 C 18.855469 79.253906 33.054688 54.054688 55.277344 36.328125 C 54.890625 35.535156 54.582031 34.710938 54.359375 33.859375 L 50.292969 32.964844 L 50.292969 27.65625 L 54.359375 26.761719 C 54.675781 25.570312 55.144531 24.429688 55.765625 23.363281 L 53.523438 19.859375 L 57.28125 16.105469 L 60.789062 18.34375 C 61.855469 17.722656 62.996094 17.253906 64.191406 16.9375 L 65.085938 12.871094 L 70.398438 12.871094 L 71.289062 16.9375 C 72.484375 17.253906 73.628906 17.722656 74.695312 18.34375 L 78.199219 16.105469 L 81.957031 19.859375 L 81.683594 20.285156 C 83.703125 19.363281 85.757812 18.480469 87.839844 17.640625 L 87.839844 12.871094 L 101.410156 12.871094 C 112.332031 9.578125 123.859375 7.3125 135.671875 6.097656 C 135.660156 5.996094 135.640625 5.894531 135.640625 5.789062 C 135.640625 4.558594 136.648438 3.554688 137.882812 3.554688 C 139.082031 3.554688 140.054688 4.5 140.109375 5.683594 C 145.539062 5.246094 151.015625 5.027344 156.523438 5.027344 C 227.21875 5.027344 301.578125 15.703125 301.578125 86.347656 C 301.578125 118.953125 285.738281 158.636719 261.726562 191.917969 L 280.492188 191.917969 L 293.671875 211.722656 L 307.265625 211.722656 Z M 51.832031 8.027344 C 53.0625 8.027344 54.066406 7.023438 54.066406 5.789062 C 54.066406 4.558594 53.0625 3.554688 51.832031 3.554688 C 50.59375 3.554688 49.589844 4.558594 49.589844 5.789062 C 49.589844 7.023438 50.59375 8.027344 51.832031 8.027344 Z M 223.660156 5.789062 C 223.660156 4.558594 224.667969 3.554688 225.902344 3.554688 C 227.136719 3.554688 228.140625 4.558594 228.140625 5.789062 C 228.140625 7.023438 227.136719 8.027344 225.902344 8.027344 C 224.667969 8.027344 223.660156 7.023438 223.660156 5.789062"/></g><g clip-path="url(#b)"><path fill="#5EC9CC" d="M 219.769531 7.410156 C 220.664062 7.410156 221.386719 6.683594 221.386719 5.789062 C 221.386719 4.898438 220.664062 4.171875 219.769531 4.171875 C 218.875 4.171875 218.148438 4.898438 218.148438 5.789062 C 218.148438 6.683594 218.875 7.410156 219.769531 7.410156 Z M 256.414062 55.851562 L 263.953125 55.851562 L 263.953125 53.996094 L 256.414062 53.996094 Z M 253.488281 30.804688 L 243.210938 24.667969 L 243.210938 36.941406 Z M 279.164062 47.746094 L 217.53125 47.746094 L 217.53125 15.574219 L 279.164062 15.574219 Z M 267.238281 51.929688 L 261.984375 51.929688 L 261.984375 53.789062 L 267.238281 53.789062 Z M 256.414062 51.929688 L 256.414062 53.789062 L 261.664062 53.789062 L 261.664062 51.929688 Z M 267.238281 49.871094 L 256.414062 49.871094 L 256.414062 51.726562 L 267.238281 51.726562 Z M 93.921875 55.957031 L 87.621094 55.957031 L 87.621094 56.574219 L 93.921875 56.574219 Z M 97.203125 54.511719 L 97.203125 53.890625 L 93.195312 53.890625 L 93.195312 54.511719 Z M 91.632812 53.890625 L 87.621094 53.890625 L 87.621094 54.511719 L 91.632812 54.511719 Z M 97.203125 51.828125 L 87.621094 51.828125 L 87.621094 52.449219 L 97.203125 52.449219 Z M 54.390625 55.957031 L 48.089844 55.957031 L 48.089844 56.574219 L 54.390625 56.574219 Z M 57.671875 54.511719 L 57.671875 53.890625 L 53.660156 53.890625 L 53.660156 54.511719 Z M 52.097656 53.890625 L 48.089844 53.890625 L 48.089844 54.511719 L 52.097656 54.511719 Z M 57.671875 51.828125 L 48.089844 51.828125 L 48.089844 52.449219 L 57.671875 52.449219 Z M 99.480469 36.742188 L 88.457031 36.742188 L 88.457031 40.597656 L 99.480469 40.597656 Z M 99.480469 19.925781 L 88.457031 19.925781 L 88.457031 23.78125 L 99.480469 23.78125 Z M 45.695312 7.410156 C 46.589844 7.410156 47.316406 6.683594 47.316406 5.789062 C 47.316406 4.898438 46.589844 4.171875 45.695312 4.171875 C 44.800781 4.171875 44.074219 4.898438 44.074219 5.789062 C 44.074219 6.683594 44.800781 7.410156 45.695312 7.410156 Z M 58.519531 30.308594 C 58.519531 35.390625 62.65625 39.523438 67.742188 39.523438 C 72.828125 39.523438 76.960938 35.390625 76.960938 30.308594 C 76.960938 25.230469 72.828125 21.09375 67.742188 21.09375 C 62.65625 21.09375 58.519531 25.230469 58.519531 30.308594 Z M 57.902344 30.308594 C 57.902344 24.886719 62.316406 20.476562 67.742188 20.476562 C 73.167969 20.476562 77.582031 24.886719 77.582031 30.308594 C 77.582031 35.730469 73.167969 40.140625 67.742188 40.140625 C 62.316406 40.140625 57.902344 35.730469 57.902344 30.308594 Z M 175.390625 85.816406 C 174.886719 85.816406 174.421875 86.226562 174.359375 86.734375 C 174.292969 87.238281 174.65625 87.648438 175.160156 87.648438 C 175.664062 87.648438 176.128906 87.238281 176.191406 86.734375 C 176.253906 86.226562 175.894531 85.816406 175.390625 85.816406 Z M 201.675781 86.113281 L 192.453125 86.113281 C 192.113281 86.113281 191.835938 86.390625 191.835938 86.730469 C 191.835938 87.074219 192.113281 87.351562 192.453125 87.351562 L 201.675781 87.351562 C 202.015625 87.351562 202.292969 87.074219 202.292969 86.730469 C 202.292969 86.390625 202.015625 86.113281 201.675781 86.113281 Z M 131.746094 8.027344 C 132.980469 8.027344 133.988281 7.023438 133.988281 5.789062 C 133.988281 4.558594 132.980469 3.554688 131.746094 3.554688 C 130.515625 3.554688 129.511719 4.558594 129.511719 5.789062 C 129.511719 7.023438 130.515625 8.027344 131.746094 8.027344 Z M 148.445312 49.644531 C 148.445312 50.621094 149.242188 51.417969 150.21875 51.417969 L 163.628906 51.417969 C 164.605469 51.417969 165.402344 50.621094 165.402344 49.644531 C 165.402344 48.667969 164.605469 47.875 163.628906 47.875 L 150.21875 47.875 C 149.242188 47.875 148.445312 48.667969 148.445312 49.644531 Z M 136.183594 40.648438 L 149.59375 40.648438 C 150.574219 40.648438 151.367188 39.855469 151.367188 38.878906 C 151.367188 37.902344 150.574219 37.109375 149.59375 37.109375 L 136.183594 37.109375 C 135.207031 37.109375 134.410156 37.902344 134.410156 38.878906 C 134.410156 39.855469 135.207031 40.648438 136.183594 40.648438 Z M 136.183594 29.882812 L 159.417969 29.882812 C 160.398438 29.882812 161.191406 29.085938 161.191406 28.109375 C 161.191406 27.132812 160.398438 26.34375 159.417969 26.34375 L 136.183594 26.34375 C 135.207031 26.34375 134.410156 27.132812 134.410156 28.109375 C 134.410156 29.085938 135.207031 29.882812 136.183594 29.882812 Z M 163.898438 40.648438 L 168.640625 40.648438 C 169.621094 40.648438 170.414062 39.855469 170.414062 38.878906 C 170.414062 37.902344 169.621094 37.109375 168.640625 37.109375 L 163.898438 37.109375 C 162.921875 37.109375 162.125 37.902344 162.125 38.878906 C 162.125 39.855469 162.921875 40.648438 163.898438 40.648438 Z M 159.0625 40.648438 C 160.042969 40.648438 160.835938 39.855469 160.835938 38.878906 C 160.835938 37.902344 160.042969 37.109375 159.0625 37.109375 L 154.324219 37.109375 C 153.347656 37.109375 152.550781 37.902344 152.550781 38.878906 C 152.550781 39.855469 153.347656 40.648438 154.324219 40.648438 Z M 136.183594 24.5 L 140.925781 24.5 C 141.902344 24.5 142.699219 23.707031 142.699219 22.730469 C 142.699219 21.753906 141.902344 20.957031 140.925781 20.957031 L 136.183594 20.957031 C 135.207031 20.957031 134.410156 21.753906 134.410156 22.730469 C 134.410156 23.707031 135.207031 24.5 136.183594 24.5 Z M 136.183594 19.117188 L 152.152344 19.117188 C 153.132812 19.117188 153.925781 18.324219 153.925781 17.347656 C 153.925781 16.371094 153.132812 15.574219 152.152344 15.574219 L 136.183594 15.574219 C 135.207031 15.574219 134.410156 16.371094 134.410156 17.347656 C 134.410156 18.324219 135.207031 19.117188 136.183594 19.117188 Z M 170.675781 253.078125 L 57.976562 253.078125 C 53.335938 253.078125 49.570312 256.835938 49.570312 261.476562 C 49.570312 266.113281 53.335938 269.871094 57.976562 269.871094 L 170.675781 269.871094 C 175.316406 269.871094 179.078125 266.113281 179.078125 261.476562 C 179.078125 256.835938 175.316406 253.078125 170.675781 253.078125 Z M 300.695312 77.660156 C 300.695312 77.320312 300.414062 77.042969 300.074219 77.042969 L 269.632812 77.042969 C 269.289062 77.042969 269.011719 77.320312 269.011719 77.660156 C 269.011719 78.003906 269.289062 78.28125 269.632812 78.28125 L 300.074219 78.28125 C 300.414062 78.28125 300.695312 78.003906 300.695312 77.660156 Z M 286.390625 87.351562 L 291.609375 87.351562 C 291.949219 87.351562 292.230469 87.074219 292.230469 86.730469 C 292.230469 86.390625 291.949219 86.113281 291.609375 86.113281 L 286.390625 86.113281 C 286.050781 86.113281 285.769531 86.390625 285.769531 86.730469 C 285.769531 87.074219 286.050781 87.351562 286.390625 87.351562 Z M 298.664062 90.773438 C 298.664062 90.433594 298.386719 90.15625 298.046875 90.15625 L 285.882812 90.15625 C 285.542969 90.15625 285.261719 90.433594 285.261719 90.773438 C 285.261719 91.117188 285.542969 91.394531 285.882812 91.394531 L 298.046875 91.394531 C 298.386719 91.394531 298.664062 91.117188 298.664062 90.773438 Z M 285.375 95.4375 L 291.621094 95.4375 C 291.960938 95.4375 292.238281 95.160156 292.238281 94.816406 C 292.238281 94.476562 291.960938 94.199219 291.621094 94.199219 L 285.375 94.199219 C 285.035156 94.199219 284.753906 94.476562 284.753906 94.816406 C 284.753906 95.160156 285.035156 95.4375 285.375 95.4375 Z M 281.714844 121.230469 C 281.371094 121.230469 281.09375 121.503906 281.09375 121.847656 C 281.09375 122.1875 281.371094 122.464844 281.714844 122.464844 L 286.933594 122.464844 C 287.273438 122.464844 287.550781 122.1875 287.550781 121.847656 C 287.550781 121.503906 287.273438 121.230469 286.933594 121.230469 Z M 293.988281 125.886719 C 293.988281 125.546875 293.710938 125.269531 293.367188 125.269531 L 281.203125 125.269531 C 280.863281 125.269531 280.585938 125.546875 280.585938 125.886719 C 280.585938 126.230469 280.863281 126.507812 281.203125 126.507812 L 293.367188 126.507812 C 293.710938 126.507812 293.988281 126.230469 293.988281 125.886719 Z M 287.5625 129.933594 C 287.5625 129.589844 287.285156 129.3125 286.941406 129.3125 L 280.695312 129.3125 C 280.355469 129.3125 280.078125 129.589844 280.078125 129.933594 C 280.078125 130.273438 280.355469 130.550781 280.695312 130.550781 L 286.941406 130.550781 C 287.285156 130.550781 287.5625 130.273438 287.5625 129.933594 Z M 274.234375 91.242188 C 274.234375 90.898438 273.957031 90.621094 273.613281 90.621094 L 263.183594 90.621094 C 262.839844 90.621094 262.5625 90.898438 262.5625 91.242188 C 262.5625 91.585938 262.839844 91.859375 263.183594 91.859375 L 273.613281 91.859375 C 273.957031 91.859375 274.234375 91.585938 274.234375 91.242188 Z M 269.007812 99.328125 C 269.007812 98.984375 268.734375 98.707031 268.390625 98.707031 L 259.273438 98.707031 C 258.933594 98.707031 258.65625 98.984375 258.65625 99.328125 C 258.65625 99.667969 258.933594 99.945312 259.273438 99.945312 L 268.390625 99.945312 C 268.734375 99.945312 269.007812 99.667969 269.007812 99.328125 Z M 266.832031 150.105469 C 266.832031 149.765625 266.554688 149.488281 266.210938 149.488281 L 249.796875 149.488281 C 249.457031 149.488281 249.179688 149.765625 249.179688 150.105469 C 249.179688 150.445312 249.457031 150.722656 249.796875 150.722656 L 266.210938 150.722656 C 266.554688 150.722656 266.832031 150.445312 266.832031 150.105469 Z M 220.265625 82.222656 L 174.996094 82.222656 C 173.285156 82.222656 171.726562 83.609375 171.511719 85.316406 L 170.765625 91.242188 L 222.226562 91.242188 L 222.972656 85.316406 C 223.1875 83.609375 221.976562 82.222656 220.265625 82.222656 Z M 215.078125 128.734375 C 215.078125 128.390625 214.800781 128.117188 214.460938 128.117188 L 208.933594 128.117188 C 208.59375 128.117188 208.316406 128.390625 208.316406 128.734375 C 208.316406 129.078125 208.59375 129.355469 208.933594 129.355469 L 214.460938 129.355469 C 214.800781 129.355469 215.078125 129.078125 215.078125 128.734375 Z M 201.753906 131.707031 C 201.753906 131.363281 201.476562 131.085938 201.132812 131.085938 L 195.960938 131.085938 C 195.621094 131.085938 195.34375 131.363281 195.34375 131.707031 C 195.34375 132.046875 195.621094 132.324219 195.960938 132.324219 L 201.132812 132.324219 C 201.476562 132.324219 201.753906 132.046875 201.753906 131.707031 Z M 191.046875 128.734375 C 191.046875 128.390625 190.769531 128.117188 190.425781 128.117188 L 184.902344 128.117188 C 184.558594 128.117188 184.285156 128.390625 184.285156 128.734375 C 184.285156 129.078125 184.558594 129.355469 184.902344 129.355469 L 190.425781 129.355469 C 190.769531 129.355469 191.046875 129.078125 191.046875 128.734375 Z M 176.003906 152.644531 L 171.285156 152.644531 C 170.636719 152.644531 170.042969 153.171875 169.960938 153.820312 C 169.878906 154.46875 170.339844 154.996094 170.992188 154.996094 L 175.707031 154.996094 C 176.355469 154.996094 176.949219 154.46875 177.03125 153.820312 C 177.113281 153.171875 176.652344 152.644531 176.003906 152.644531 Z M 171.160156 144.589844 C 171.664062 144.589844 172.125 144.179688 172.191406 143.675781 C 172.253906 143.167969 171.894531 142.757812 171.390625 142.757812 C 170.882812 142.757812 170.421875 143.167969 170.359375 143.675781 C 170.292969 144.179688 170.65625 144.589844 171.160156 144.589844 Z M 170.617188 131.707031 C 170.617188 132.046875 170.894531 132.324219 171.238281 132.324219 L 175.039062 132.324219 C 175.378906 132.324219 175.65625 132.046875 175.65625 131.707031 C 175.65625 131.363281 175.378906 131.085938 175.039062 131.085938 L 171.238281 131.085938 C 170.894531 131.085938 170.617188 131.363281 170.617188 131.707031 Z M 194.929688 99.328125 C 194.929688 98.984375 194.652344 98.707031 194.308594 98.707031 L 182.613281 98.707031 C 182.273438 98.707031 181.996094 98.984375 181.996094 99.328125 C 181.996094 99.667969 182.273438 99.945312 182.613281 99.945312 L 194.308594 99.945312 C 194.652344 99.945312 194.929688 99.667969 194.929688 99.328125 Z M 234.546875 166.273438 C 234.546875 166.617188 234.824219 166.890625 235.167969 166.890625 L 258.84375 166.890625 C 259.1875 166.890625 259.464844 166.617188 259.464844 166.273438 C 259.464844 165.933594 259.1875 165.65625 258.84375 165.65625 L 235.167969 165.65625 C 234.824219 165.65625 234.546875 165.933594 234.546875 166.273438 Z M 239.917969 123.582031 C 239.917969 123.921875 240.195312 124.199219 240.535156 124.199219 L 246.78125 124.199219 C 247.125 124.199219 247.402344 123.921875 247.402344 123.582031 C 247.402344 123.238281 247.125 122.960938 246.78125 122.960938 L 240.535156 122.960938 C 240.195312 122.960938 239.917969 123.238281 239.917969 123.582031 Z M 241.953125 107.410156 C 241.953125 107.753906 242.230469 108.03125 242.570312 108.03125 L 250.09375 108.03125 C 250.4375 108.03125 250.714844 107.753906 250.714844 107.410156 C 250.714844 107.070312 250.4375 106.792969 250.09375 106.792969 L 242.570312 106.792969 C 242.230469 106.792969 241.953125 107.070312 241.953125 107.410156 Z M 243.476562 95.285156 C 243.476562 95.625 243.753906 95.902344 244.09375 95.902344 L 249.3125 95.902344 C 249.65625 95.902344 249.929688 95.625 249.929688 95.285156 C 249.929688 94.945312 249.65625 94.664062 249.3125 94.664062 L 244.09375 94.664062 C 243.753906 94.664062 243.476562 94.945312 243.476562 95.285156 Z M 264.207031 107.410156 C 264.207031 107.070312 263.929688 106.792969 263.589844 106.792969 L 252.800781 106.792969 C 252.460938 106.792969 252.183594 107.070312 252.183594 107.410156 C 252.183594 107.753906 252.460938 108.03125 252.800781 108.03125 L 263.589844 108.03125 C 263.929688 108.03125 264.207031 107.753906 264.207031 107.410156 Z M 265.847656 120.15625 C 266.191406 120.15625 266.46875 119.878906 266.46875 119.539062 C 266.46875 119.195312 266.191406 118.917969 265.847656 118.917969 L 256.734375 118.917969 C 256.390625 118.917969 256.113281 119.195312 256.113281 119.539062 C 256.113281 119.878906 256.390625 120.15625 256.734375 120.15625 Z M 304.644531 79.726562 L 295.054688 166.164062 C 294.769531 168.714844 292.617188 170.640625 290.042969 170.640625 L 155.75 170.640625 C 154.292969 170.640625 152.960938 170.046875 151.996094 168.964844 C 151.800781 168.75 151.636719 168.519531 151.488281 168.285156 C 150.089844 178.1875 143.410156 189.359375 143.410156 198.070312 C 143.410156 207.640625 150.707031 221.367188 150.707031 221.367188 C 150.707031 221.367188 148.117188 242.789062 121.820312 242.789062 C 112.316406 242.789062 105.605469 241.125 102.15625 240 C 100.363281 239.414062 99.042969 237.910156 98.640625 236.070312 C 95.582031 222.203125 97.65625 202.519531 99.808594 195.597656 C 101.269531 190.917969 99.554688 166.953125 93.929688 149.867188 C 91.058594 141.152344 97.554688 132.183594 106.738281 132.183594 L 108.910156 125.269531 C 108.910156 125.269531 115.824219 121.929688 123.132812 123.414062 C 130.4375 124.898438 133.929688 126.90625 136.652344 127.289062 L 134.886719 132.222656 C 137.902344 132.488281 140.59375 134.28125 141.972656 137.011719 C 144.945312 142.914062 149.675781 153.054688 151.226562 160.671875 L 160.328125 78.617188 C 160.613281 76.0625 162.765625 74.132812 165.339844 74.132812 L 299.632812 74.132812 C 301.085938 74.132812 302.421875 74.730469 303.386719 75.8125 C 304.359375 76.890625 304.804688 78.28125 304.644531 79.726562 Z M 178.855469 85.816406 C 178.351562 85.816406 177.890625 86.226562 177.824219 86.734375 C 177.761719 87.238281 178.121094 87.648438 178.625 87.648438 C 179.132812 87.648438 179.59375 87.238281 179.65625 86.734375 C 179.722656 86.226562 179.363281 85.816406 178.855469 85.816406 Z M 182.324219 85.816406 C 181.820312 85.816406 181.355469 86.226562 181.292969 86.734375 C 181.230469 87.238281 181.589844 87.648438 182.09375 87.648438 C 182.601562 87.648438 183.0625 87.238281 183.125 86.734375 C 183.1875 86.226562 182.832031 85.816406 182.324219 85.816406 Z M 87.425781 82.992188 L 80.054688 82.992188 L 80.054688 99.058594 L 87.425781 99.058594 Z M 61.5625 99.058594 L 68.933594 99.058594 L 68.933594 85.21875 L 61.5625 85.21875 Z M 50.441406 99.058594 L 43.066406 99.058594 L 43.066406 90.042969 L 50.441406 90.042969 L 50.441406 99.058594"/></g><path fill="#F3D0D2" d="M 67.742188 36.265625 C 71.03125 36.265625 73.699219 33.601562 73.699219 30.308594 C 73.699219 27.019531 71.03125 24.355469 67.742188 24.355469 C 64.449219 24.355469 61.78125 27.019531 61.78125 30.308594 C 61.78125 33.601562 64.449219 36.265625 67.742188 36.265625 Z M 50.210938 5.789062 C 50.210938 6.683594 50.933594 7.410156 51.832031 7.410156 C 52.726562 7.410156 53.449219 6.683594 53.449219 5.789062 C 53.449219 4.898438 52.726562 4.171875 51.832031 4.171875 C 50.933594 4.171875 50.210938 4.898438 50.210938 5.789062 Z M 54.3125 19.945312 L 56.496094 23.351562 C 55.75 24.546875 55.195312 25.875 54.867188 27.285156 L 50.910156 28.152344 L 50.910156 32.464844 L 54.867188 33.335938 C 55.195312 34.746094 55.75 36.070312 56.496094 37.269531 L 54.3125 40.675781 L 57.367188 43.726562 L 60.78125 41.546875 C 61.976562 42.289062 63.300781 42.84375 64.710938 43.175781 L 65.582031 47.125 L 69.898438 47.125 L 70.769531 43.175781 C 72.179688 42.84375 73.507812 42.289062 74.703125 41.546875 L 78.117188 43.726562 L 81.167969 40.675781 L 78.988281 37.269531 C 79.730469 36.070312 80.285156 34.746094 80.617188 33.335938 L 84.570312 32.464844 L 84.570312 28.152344 L 80.617188 27.285156 C 80.285156 25.875 79.730469 24.546875 78.988281 23.351562 L 81.167969 19.945312 L 78.117188 16.890625 L 74.703125 19.070312 C 73.507812 18.332031 72.179688 17.773438 70.769531 17.445312 L 69.898438 13.492188 L 65.582031 13.492188 L 64.710938 17.445312 C 63.300781 17.773438 61.976562 18.332031 60.78125 19.070312 L 57.367188 16.890625 Z M 88.457031 34.164062 L 105.300781 34.164062 L 105.300781 30.308594 L 88.457031 30.308594 Z M 88.457031 17.347656 L 105.300781 17.347656 L 105.300781 13.492188 L 88.457031 13.492188 Z M 70.847656 51.828125 L 61.265625 51.828125 L 61.265625 52.449219 L 70.847656 52.449219 Z M 70.847656 53.890625 L 66.839844 53.890625 L 66.839844 54.511719 L 70.847656 54.511719 Z M 65.277344 54.511719 L 65.277344 53.890625 L 61.265625 53.890625 L 61.265625 54.511719 Z M 67.570312 55.957031 L 61.265625 55.957031 L 61.265625 56.574219 L 67.570312 56.574219 Z M 112.714844 48.183594 L 123.917969 48.183594 L 123.917969 31.113281 L 112.714844 31.113281 Z M 112.714844 30.492188 L 123.917969 30.492188 L 123.917969 13.425781 L 112.714844 13.425781 Z M 130.128906 49.644531 C 130.128906 50.28125 130.644531 50.796875 131.28125 50.796875 L 131.390625 50.796875 C 132.027344 50.796875 132.542969 50.28125 132.542969 49.644531 C 132.542969 49.007812 132.027344 48.496094 131.390625 48.496094 L 131.28125 48.496094 C 130.644531 48.496094 130.128906 49.007812 130.128906 49.644531 Z M 130.128906 44.261719 C 130.128906 44.898438 130.644531 45.414062 131.28125 45.414062 L 131.390625 45.414062 C 132.027344 45.414062 132.542969 44.898438 132.542969 44.261719 C 132.542969 43.628906 132.027344 43.109375 131.390625 43.109375 L 131.28125 43.109375 C 130.644531 43.109375 130.128906 43.628906 130.128906 44.261719 Z M 130.128906 38.878906 C 130.128906 39.515625 130.644531 40.03125 131.28125 40.03125 L 131.390625 40.03125 C 132.027344 40.03125 132.542969 39.515625 132.542969 38.878906 C 132.542969 38.242188 132.027344 37.726562 131.390625 37.726562 L 131.28125 37.726562 C 130.644531 37.726562 130.128906 38.242188 130.128906 38.878906 Z M 130.128906 33.496094 C 130.128906 34.132812 130.644531 34.648438 131.28125 34.648438 L 131.390625 34.648438 C 132.027344 34.648438 132.542969 34.132812 132.542969 33.496094 C 132.542969 32.859375 132.027344 32.34375 131.390625 32.34375 L 131.28125 32.34375 C 130.644531 32.34375 130.128906 32.859375 130.128906 33.496094 Z M 130.128906 28.109375 C 130.128906 28.75 130.644531 29.265625 131.28125 29.265625 L 131.390625 29.265625 C 132.027344 29.265625 132.542969 28.75 132.542969 28.109375 C 132.542969 27.476562 132.027344 26.960938 131.390625 26.960938 L 131.28125 26.960938 C 130.644531 26.960938 130.128906 27.476562 130.128906 28.109375 Z M 130.128906 22.730469 C 130.128906 23.363281 130.644531 23.882812 131.28125 23.882812 L 131.390625 23.882812 C 132.027344 23.882812 132.542969 23.363281 132.542969 22.730469 C 132.542969 22.09375 132.027344 21.574219 131.390625 21.574219 L 131.28125 21.574219 C 130.644531 21.574219 130.128906 22.09375 130.128906 22.730469 Z M 130.128906 17.347656 C 130.128906 17.980469 130.644531 18.496094 131.28125 18.496094 L 131.390625 18.496094 C 132.027344 18.496094 132.542969 17.980469 132.542969 17.347656 C 132.542969 16.707031 132.027344 16.195312 131.390625 16.195312 L 131.28125 16.195312 C 130.644531 16.195312 130.128906 16.707031 130.128906 17.347656 Z M 130.128906 11.960938 C 130.128906 12.597656 130.644531 13.113281 131.28125 13.113281 L 131.390625 13.113281 C 132.027344 13.113281 132.542969 12.597656 132.542969 11.960938 C 132.542969 11.328125 132.027344 10.808594 131.390625 10.808594 L 131.28125 10.808594 C 130.644531 10.808594 130.128906 11.328125 130.128906 11.960938 Z M 130.128906 5.789062 C 130.128906 6.683594 130.851562 7.410156 131.746094 7.410156 C 132.644531 7.410156 133.367188 6.683594 133.367188 5.789062 C 133.367188 4.898438 132.644531 4.171875 131.746094 4.171875 C 130.851562 4.171875 130.128906 4.898438 130.128906 5.789062 Z M 135.03125 49.644531 C 135.03125 50.28125 135.546875 50.796875 136.183594 50.796875 L 145.960938 50.796875 C 146.597656 50.796875 147.117188 50.28125 147.117188 49.644531 C 147.117188 49.007812 146.597656 48.496094 145.960938 48.496094 L 136.183594 48.496094 C 135.546875 48.496094 135.03125 49.007812 135.03125 49.644531 Z M 135.03125 44.261719 C 135.03125 44.898438 135.546875 45.414062 136.183594 45.414062 L 157.109375 45.414062 C 157.742188 45.414062 158.261719 44.898438 158.261719 44.261719 C 158.261719 43.628906 157.742188 43.109375 157.109375 43.109375 L 136.183594 43.109375 C 135.546875 43.109375 135.03125 43.628906 135.03125 44.261719 Z M 135.03125 38.878906 C 135.03125 39.515625 135.546875 40.03125 136.183594 40.03125 L 149.59375 40.03125 C 150.230469 40.03125 150.75 39.515625 150.75 38.878906 C 150.75 38.242188 150.230469 37.726562 149.59375 37.726562 L 136.183594 37.726562 C 135.546875 37.726562 135.03125 38.242188 135.03125 38.878906 Z M 135.03125 33.496094 C 135.03125 34.132812 135.546875 34.648438 136.183594 34.648438 L 153.886719 34.648438 C 154.523438 34.648438 155.039062 34.132812 155.039062 33.496094 C 155.039062 32.859375 154.523438 32.34375 153.886719 32.34375 L 136.183594 32.34375 C 135.546875 32.34375 135.03125 32.859375 135.03125 33.496094 Z M 135.03125 28.109375 C 135.03125 28.75 135.546875 29.265625 136.183594 29.265625 L 159.417969 29.265625 C 160.054688 29.265625 160.570312 28.75 160.570312 28.109375 C 160.570312 27.476562 160.054688 26.960938 159.417969 26.960938 L 136.183594 26.960938 C 135.546875 26.960938 135.03125 27.476562 135.03125 28.109375 Z M 135.03125 22.730469 C 135.03125 23.363281 135.546875 23.882812 136.183594 23.882812 L 140.925781 23.882812 C 141.5625 23.882812 142.082031 23.363281 142.082031 22.730469 C 142.082031 22.09375 141.5625 21.574219 140.925781 21.574219 L 136.183594 21.574219 C 135.546875 21.574219 135.03125 22.09375 135.03125 22.730469 Z M 135.03125 17.347656 C 135.03125 17.980469 135.546875 18.496094 136.183594 18.496094 L 152.152344 18.496094 C 152.789062 18.496094 153.308594 17.980469 153.308594 17.347656 C 153.308594 16.707031 152.789062 16.195312 152.152344 16.195312 L 136.183594 16.195312 C 135.546875 16.195312 135.03125 16.707031 135.03125 17.347656 Z M 135.03125 11.960938 C 135.03125 12.597656 135.546875 13.113281 136.183594 13.113281 L 143.515625 13.113281 C 144.152344 13.113281 144.667969 12.597656 144.667969 11.960938 C 144.667969 11.328125 144.152344 10.808594 143.515625 10.808594 L 136.183594 10.808594 C 135.546875 10.808594 135.03125 11.328125 135.03125 11.960938 Z M 136.261719 5.789062 C 136.261719 6.683594 136.988281 7.410156 137.882812 7.410156 C 138.777344 7.410156 139.503906 6.683594 139.503906 5.789062 C 139.503906 4.898438 138.777344 4.171875 137.882812 4.171875 C 136.988281 4.171875 136.261719 4.898438 136.261719 5.789062 Z M 169.878906 21.574219 L 146.640625 21.574219 C 146.007812 21.574219 145.492188 22.09375 145.492188 22.730469 C 145.492188 23.363281 146.007812 23.882812 146.640625 23.882812 L 169.878906 23.882812 C 170.515625 23.882812 171.03125 23.363281 171.03125 22.730469 C 171.03125 22.09375 170.515625 21.574219 169.878906 21.574219 Z M 170.371094 28.109375 C 170.371094 27.476562 169.855469 26.960938 169.21875 26.960938 L 164.476562 26.960938 C 163.839844 26.960938 163.324219 27.476562 163.324219 28.109375 C 163.324219 28.75 163.839844 29.265625 164.476562 29.265625 L 169.21875 29.265625 C 169.855469 29.265625 170.371094 28.75 170.371094 28.109375 Z M 169.792969 38.878906 C 169.792969 38.242188 169.277344 37.726562 168.640625 37.726562 L 163.898438 37.726562 C 163.261719 37.726562 162.746094 38.242188 162.746094 38.878906 C 162.746094 39.515625 163.261719 40.03125 163.898438 40.03125 L 168.640625 40.03125 C 169.277344 40.03125 169.792969 39.515625 169.792969 38.878906 Z M 160.21875 38.878906 C 160.21875 38.242188 159.703125 37.726562 159.0625 37.726562 L 154.320312 37.726562 C 153.683594 37.726562 153.171875 38.242188 153.171875 38.878906 C 153.171875 39.515625 153.683594 40.03125 154.320312 40.03125 L 159.0625 40.03125 C 159.703125 40.03125 160.21875 39.515625 160.21875 38.878906 Z M 164.78125 49.644531 C 164.78125 49.007812 164.265625 48.496094 163.628906 48.496094 L 150.21875 48.496094 C 149.582031 48.496094 149.066406 49.007812 149.066406 49.644531 C 149.066406 50.28125 149.582031 50.796875 150.21875 50.796875 L 163.628906 50.796875 C 164.265625 50.796875 164.78125 50.28125 164.78125 49.644531 Z M 196.519531 48.183594 L 211.179688 48.183594 L 211.179688 31.113281 L 196.519531 31.113281 Z M 196.519531 30.492188 L 211.179688 30.492188 L 211.179688 13.425781 L 196.519531 13.425781 Z M 218.148438 47.125 L 278.546875 47.125 L 278.546875 16.195312 L 218.148438 16.195312 Z M 224.28125 5.789062 C 224.28125 6.683594 225.007812 7.410156 225.902344 7.410156 C 226.796875 7.410156 227.523438 6.683594 227.523438 5.789062 C 227.523438 4.898438 226.796875 4.171875 225.902344 4.171875 C 225.007812 4.171875 224.28125 4.898438 224.28125 5.789062 Z M 266.617188 50.488281 L 257.03125 50.488281 L 257.03125 51.105469 L 266.617188 51.105469 Z M 266.617188 52.550781 L 262.605469 52.550781 L 262.605469 53.167969 L 266.617188 53.167969 Z M 261.046875 53.167969 L 261.046875 52.550781 L 257.03125 52.550781 L 257.03125 53.167969 Z M 263.335938 54.613281 L 257.03125 54.613281 L 257.03125 55.234375 L 263.335938 55.234375 Z M 246.804688 50.488281 L 237.21875 50.488281 L 237.21875 51.105469 L 246.804688 51.105469 Z M 246.804688 52.550781 L 242.792969 52.550781 L 242.792969 53.167969 L 246.804688 53.167969 Z M 241.230469 53.167969 L 241.230469 52.550781 L 237.21875 52.550781 L 237.21875 53.167969 Z M 243.523438 54.613281 L 237.21875 54.613281 L 237.21875 55.234375 L 243.523438 55.234375 Z M 40.113281 60.679688 L 40.113281 3.214844 C 40.113281 1.507812 41.496094 0.121094 43.207031 0.121094 L 109.621094 0.121094 C 111.328125 0.121094 112.714844 1.507812 112.714844 3.214844 L 112.714844 12.804688 L 123.917969 12.804688 L 123.917969 3.214844 C 123.917969 1.507812 125.300781 0.121094 127.011719 0.121094 L 193.425781 0.121094 C 195.132812 0.121094 196.519531 1.507812 196.519531 3.214844 L 196.519531 12.804688 L 211.179688 12.804688 L 211.179688 3.214844 C 211.179688 1.507812 212.566406 0.121094 214.273438 0.121094 L 280.683594 0.121094 C 282.398438 0.121094 283.78125 1.507812 283.78125 3.214844 L 283.78125 48.183594 L 291.78125 48.183594 C 291.90625 48.386719 292.023438 48.597656 292.144531 48.804688 L 283.78125 48.804688 L 283.78125 60.679688 C 283.78125 62.386719 282.398438 63.769531 280.683594 63.769531 L 214.273438 63.769531 C 212.566406 63.769531 211.179688 62.386719 211.179688 60.679688 L 211.179688 48.804688 L 196.519531 48.804688 L 196.519531 54.242188 C 196.519531 55.949219 195.132812 57.335938 193.425781 57.335938 L 127.011719 57.335938 C 125.300781 57.335938 123.917969 55.949219 123.917969 54.242188 L 123.917969 48.804688 L 112.714844 48.804688 L 112.714844 60.679688 C 112.714844 62.386719 111.328125 63.769531 109.621094 63.769531 L 43.207031 63.769531 C 41.496094 63.769531 40.113281 62.386719 40.113281 60.679688 Z M 253.285156 77.042969 C 252.941406 77.042969 252.664062 77.320312 252.664062 77.660156 C 252.664062 78.003906 252.941406 78.28125 253.285156 78.28125 L 265.789062 78.28125 C 266.132812 78.28125 266.410156 78.003906 266.410156 77.660156 C 266.410156 77.320312 266.132812 77.042969 265.789062 77.042969 Z M 266.832031 150.105469 C 266.832031 149.765625 266.554688 149.488281 266.210938 149.488281 L 249.796875 149.488281 C 249.457031 149.488281 249.179688 149.765625 249.179688 150.105469 C 249.179688 150.445312 249.457031 150.722656 249.796875 150.722656 L 266.210938 150.722656 C 266.554688 150.722656 266.832031 150.445312 266.832031 150.105469 Z M 259.972656 162.234375 C 259.972656 161.890625 259.695312 161.613281 259.351562 161.613281 L 235.675781 161.613281 C 235.335938 161.613281 235.054688 161.890625 235.054688 162.234375 C 235.054688 162.574219 235.335938 162.851562 235.675781 162.851562 L 259.351562 162.851562 C 259.695312 162.851562 259.972656 162.574219 259.972656 162.234375 Z M 259.464844 166.273438 C 259.464844 165.933594 259.1875 165.65625 258.84375 165.65625 L 235.167969 165.65625 C 234.824219 165.65625 234.546875 165.933594 234.546875 166.273438 C 234.546875 166.617188 234.824219 166.890625 235.167969 166.890625 L 258.84375 166.890625 C 259.1875 166.890625 259.464844 166.617188 259.464844 166.273438 Z M 236.070312 154.144531 C 236.070312 154.488281 236.351562 154.765625 236.691406 154.765625 L 255.824219 154.765625 C 256.167969 154.765625 256.445312 154.488281 256.445312 154.144531 C 256.445312 153.804688 256.167969 153.527344 255.824219 153.527344 L 236.691406 153.527344 C 236.351562 153.527344 236.070312 153.804688 236.070312 154.144531 Z M 236.582031 150.105469 C 236.582031 150.445312 236.859375 150.722656 237.203125 150.722656 L 245.410156 150.722656 C 245.75 150.722656 246.027344 150.445312 246.027344 150.105469 C 246.027344 149.765625 245.75 149.488281 245.410156 149.488281 L 237.203125 149.488281 C 236.859375 149.488281 236.582031 149.765625 236.582031 150.105469 Z M 237.089844 146.0625 C 237.089844 146.40625 237.367188 146.683594 237.710938 146.683594 L 261.386719 146.683594 C 261.730469 146.683594 262.003906 146.40625 262.003906 146.0625 C 262.003906 145.722656 261.730469 145.445312 261.386719 145.445312 L 237.710938 145.445312 C 237.367188 145.445312 237.089844 145.722656 237.089844 146.0625 Z M 232.535156 146.0625 C 232.535156 145.722656 232.253906 145.445312 231.914062 145.445312 L 227.785156 145.445312 C 227.445312 145.445312 227.167969 145.722656 227.167969 146.0625 C 227.167969 146.40625 227.445312 146.683594 227.785156 146.683594 L 231.914062 146.683594 C 232.253906 146.683594 232.535156 146.40625 232.535156 146.0625 Z M 232.023438 150.105469 C 232.023438 149.765625 231.746094 149.488281 231.402344 149.488281 L 227.277344 149.488281 C 226.933594 149.488281 226.660156 149.765625 226.660156 150.105469 C 226.660156 150.445312 226.933594 150.722656 227.277344 150.722656 L 231.402344 150.722656 C 231.746094 150.722656 232.023438 150.445312 232.023438 150.105469 Z M 231.515625 154.144531 C 231.515625 153.804688 231.238281 153.527344 230.894531 153.527344 L 226.769531 153.527344 C 226.425781 153.527344 226.148438 153.804688 226.148438 154.144531 C 226.148438 154.488281 226.425781 154.765625 226.769531 154.765625 L 230.894531 154.765625 C 231.238281 154.765625 231.515625 154.488281 231.515625 154.144531 Z M 230.5 162.234375 C 230.5 161.890625 230.222656 161.613281 229.878906 161.613281 L 225.75 161.613281 C 225.410156 161.613281 225.132812 161.890625 225.132812 162.234375 C 225.132812 162.574219 225.410156 162.851562 225.75 162.851562 L 229.878906 162.851562 C 230.222656 162.851562 230.5 162.574219 230.5 162.234375 Z M 229.992188 166.273438 C 229.992188 165.933594 229.714844 165.65625 229.371094 165.65625 L 225.242188 165.65625 C 224.898438 165.65625 224.625 165.933594 224.625 166.273438 C 224.625 166.617188 224.898438 166.890625 225.242188 166.890625 L 229.371094 166.890625 C 229.714844 166.890625 229.992188 166.617188 229.992188 166.273438 Z M 275.019531 143.578125 L 271.613281 170.640625 L 264.183594 170.640625 C 264.246094 170.546875 264.289062 170.4375 264.289062 170.316406 C 264.289062 169.972656 264.011719 169.699219 263.667969 169.699219 L 247.257812 169.699219 C 246.914062 169.699219 246.636719 169.972656 246.636719 170.316406 C 246.636719 170.4375 246.679688 170.546875 246.742188 170.640625 L 243.378906 170.640625 C 243.441406 170.546875 243.484375 170.4375 243.484375 170.316406 C 243.484375 169.972656 243.207031 169.699219 242.867188 169.699219 L 234.65625 169.699219 C 234.316406 169.699219 234.039062 169.972656 234.039062 170.316406 C 234.039062 170.4375 234.085938 170.546875 234.144531 170.640625 L 229.375 170.640625 C 229.4375 170.546875 229.480469 170.4375 229.480469 170.316406 C 229.480469 169.972656 229.207031 169.699219 228.863281 169.699219 L 224.734375 169.699219 C 224.390625 169.699219 224.117188 169.972656 224.117188 170.316406 C 224.117188 170.4375 224.160156 170.546875 224.222656 170.640625 L 220.152344 170.640625 L 223.558594 143.578125 C 223.773438 141.867188 225.332031 140.484375 227.042969 140.484375 L 272.3125 140.484375 C 274.019531 140.484375 275.234375 141.867188 275.019531 143.578125 Z M 187.125 152.644531 L 182.40625 152.644531 C 181.757812 152.644531 181.164062 153.171875 181.082031 153.820312 C 181 154.46875 181.460938 154.996094 182.113281 154.996094 L 186.828125 154.996094 C 187.480469 154.996094 188.070312 154.46875 188.152344 153.820312 C 188.234375 153.171875 187.773438 152.644531 187.125 152.644531 Z M 176.003906 152.644531 L 171.285156 152.644531 C 170.636719 152.644531 170.042969 153.171875 169.960938 153.820312 C 169.878906 154.46875 170.339844 154.996094 170.992188 154.996094 L 175.707031 154.996094 C 176.355469 154.996094 176.949219 154.46875 177.03125 153.820312 C 177.113281 153.171875 176.652344 152.644531 176.003906 152.644531 Z M 167.921875 142.757812 C 167.414062 142.757812 166.953125 143.167969 166.890625 143.675781 C 166.828125 144.179688 167.1875 144.589844 167.691406 144.589844 C 168.195312 144.589844 168.660156 144.179688 168.722656 143.675781 C 168.789062 143.167969 168.425781 142.757812 167.921875 142.757812 Z M 171.160156 144.589844 C 171.664062 144.589844 172.125 144.179688 172.191406 143.675781 C 172.253906 143.167969 171.894531 142.757812 171.390625 142.757812 C 170.882812 142.757812 170.421875 143.167969 170.359375 143.675781 C 170.292969 144.179688 170.65625 144.589844 171.160156 144.589844 Z M 174.625 144.589844 C 175.132812 144.589844 175.59375 144.179688 175.65625 143.675781 C 175.722656 143.167969 175.363281 142.757812 174.855469 142.757812 C 174.351562 142.757812 173.890625 143.167969 173.824219 143.675781 C 173.761719 144.179688 174.121094 144.589844 174.625 144.589844 Z M 184.269531 148.4375 L 175.042969 148.4375 C 174.699219 148.4375 174.421875 148.714844 174.421875 149.054688 C 174.421875 149.398438 174.699219 149.675781 175.042969 149.675781 L 184.269531 149.675781 C 184.613281 149.675781 184.886719 149.398438 184.886719 149.054688 C 184.886719 148.714844 184.613281 148.4375 184.269531 148.4375 Z M 193.640625 140.476562 C 195.351562 140.476562 196.566406 141.863281 196.351562 143.570312 L 195.050781 153.882812 C 194.839844 155.589844 193.277344 156.976562 191.570312 156.976562 L 165.277344 156.976562 C 163.566406 156.976562 162.355469 155.589844 162.570312 153.882812 L 163.867188 143.570312 C 164.082031 141.863281 165.640625 140.476562 167.351562 140.476562 Z M 179.65625 86.734375 C 179.722656 86.226562 179.363281 85.816406 178.855469 85.816406 C 178.351562 85.816406 177.890625 86.226562 177.824219 86.734375 C 177.761719 87.238281 178.121094 87.648438 178.625 87.648438 C 179.132812 87.648438 179.59375 87.238281 179.65625 86.734375 Z M 212.34375 131.707031 C 212.34375 131.363281 212.066406 131.085938 211.726562 131.085938 L 208.5625 131.085938 C 208.21875 131.085938 207.941406 131.363281 207.941406 131.707031 C 207.941406 132.046875 208.21875 132.324219 208.5625 132.324219 L 211.726562 132.324219 C 212.066406 132.324219 212.34375 132.046875 212.34375 131.707031 Z M 207.808594 99.945312 C 208.148438 99.945312 208.425781 99.667969 208.425781 99.328125 C 208.425781 98.984375 208.148438 98.707031 207.808594 98.707031 L 198.589844 98.707031 C 198.25 98.707031 197.972656 98.984375 197.972656 99.328125 C 197.972656 99.667969 198.25 99.945312 198.589844 99.945312 Z M 206.011719 104.742188 L 183.585938 104.742188 C 182.671875 104.742188 181.839844 105.484375 181.726562 106.394531 L 181.046875 111.785156 C 180.933594 112.691406 181.578125 113.433594 182.492188 113.433594 L 204.917969 113.433594 C 205.832031 113.433594 206.664062 112.691406 206.777344 111.785156 L 207.453125 106.394531 C 207.570312 105.484375 206.921875 104.742188 206.011719 104.742188 Z M 196.335938 129.355469 L 199.5 129.355469 C 199.839844 129.355469 200.117188 129.078125 200.117188 128.734375 C 200.117188 128.390625 199.839844 128.117188 199.5 128.117188 L 196.335938 128.117188 C 195.992188 128.117188 195.714844 128.390625 195.714844 128.734375 C 195.714844 129.078125 195.992188 129.355469 196.335938 129.355469 Z M 201.753906 131.707031 C 201.753906 131.363281 201.476562 131.085938 201.132812 131.085938 L 195.960938 131.085938 C 195.621094 131.085938 195.34375 131.363281 195.34375 131.707031 C 195.34375 132.046875 195.621094 132.324219 195.960938 132.324219 L 201.132812 132.324219 C 201.476562 132.324219 201.753906 132.046875 201.753906 131.707031 Z M 191.046875 128.734375 C 191.046875 128.390625 190.769531 128.117188 190.425781 128.117188 L 184.902344 128.117188 C 184.558594 128.117188 184.285156 128.390625 184.285156 128.734375 C 184.285156 129.078125 184.558594 129.355469 184.902344 129.355469 L 190.425781 129.355469 C 190.769531 129.355469 191.046875 129.078125 191.046875 128.734375 Z M 188.3125 131.707031 C 188.3125 131.363281 188.035156 131.085938 187.695312 131.085938 L 184.527344 131.085938 C 184.1875 131.085938 183.910156 131.363281 183.910156 131.707031 C 183.910156 132.046875 184.1875 132.324219 184.527344 132.324219 L 187.695312 132.324219 C 188.035156 132.324219 188.3125 132.046875 188.3125 131.707031 Z M 178.554688 128.734375 C 178.554688 128.390625 178.28125 128.117188 177.9375 128.117188 L 171.609375 128.117188 C 171.269531 128.117188 170.992188 128.390625 170.992188 128.734375 C 170.992188 129.078125 171.269531 129.355469 171.609375 129.355469 L 177.9375 129.355469 C 178.28125 129.355469 178.554688 129.078125 178.554688 128.734375 Z M 175.65625 131.707031 C 175.65625 131.363281 175.378906 131.085938 175.039062 131.085938 L 171.238281 131.085938 C 170.894531 131.085938 170.617188 131.363281 170.617188 131.707031 C 170.617188 132.046875 170.894531 132.324219 171.238281 132.324219 L 175.039062 132.324219 C 175.378906 132.324219 175.65625 132.046875 175.65625 131.707031 Z M 181.996094 99.328125 C 181.996094 99.667969 182.273438 99.945312 182.613281 99.945312 L 194.308594 99.945312 C 194.652344 99.945312 194.929688 99.667969 194.929688 99.328125 C 194.929688 98.984375 194.652344 98.707031 194.308594 98.707031 L 182.613281 98.707031 C 182.273438 98.707031 181.996094 98.984375 181.996094 99.328125 Z M 208.316406 128.734375 C 208.316406 129.078125 208.59375 129.355469 208.933594 129.355469 L 214.460938 129.355469 C 214.800781 129.355469 215.078125 129.078125 215.078125 128.734375 C 215.078125 128.390625 214.800781 128.117188 214.460938 128.117188 L 208.933594 128.117188 C 208.59375 128.117188 208.316406 128.390625 208.316406 128.734375 Z M 213.507812 135.953125 L 168.238281 135.953125 C 166.527344 135.953125 165.316406 134.570312 165.53125 132.859375 L 170.765625 91.242188 L 222.226562 91.242188 L 222.972656 85.316406 L 216.992188 132.859375 C 216.777344 134.570312 215.21875 135.953125 213.507812 135.953125 Z M 282.828125 166.257812 L 276.582031 166.257812 C 276.242188 166.257812 275.964844 166.535156 275.964844 166.875 C 275.964844 167.214844 276.242188 167.496094 276.582031 167.496094 L 282.828125 167.496094 C 283.171875 167.496094 283.449219 167.214844 283.449219 166.875 C 283.449219 166.535156 283.171875 166.257812 282.828125 166.257812 Z M 285.882812 162.214844 L 277.09375 162.214844 C 276.75 162.214844 276.472656 162.492188 276.472656 162.832031 C 276.472656 163.175781 276.75 163.449219 277.09375 163.449219 L 285.882812 163.449219 C 286.226562 163.449219 286.5 163.175781 286.5 162.832031 C 286.5 162.492188 286.226562 162.214844 285.882812 162.214844 Z M 277.601562 159.410156 L 282.816406 159.410156 C 283.160156 159.410156 283.4375 159.132812 283.4375 158.792969 C 283.4375 158.449219 283.160156 158.171875 282.816406 158.171875 L 277.601562 158.171875 C 277.257812 158.171875 276.980469 158.449219 276.980469 158.792969 C 276.980469 159.132812 277.257812 159.410156 277.601562 159.410156 Z M 288.910156 112.511719 L 282.664062 112.511719 C 282.320312 112.511719 282.046875 112.789062 282.046875 113.128906 C 282.046875 113.472656 282.320312 113.75 282.664062 113.75 L 288.910156 113.75 C 289.25 113.75 289.53125 113.472656 289.53125 113.128906 C 289.53125 112.789062 289.25 112.511719 288.910156 112.511719 Z M 291.960938 108.46875 L 283.171875 108.46875 C 282.828125 108.46875 282.554688 108.746094 282.554688 109.089844 C 282.554688 109.429688 282.828125 109.707031 283.171875 109.707031 L 291.960938 109.707031 C 292.304688 109.707031 292.582031 109.429688 292.582031 109.089844 C 292.582031 108.746094 292.304688 108.46875 291.960938 108.46875 Z M 283.679688 104.425781 C 283.339844 104.425781 283.0625 104.707031 283.0625 105.046875 C 283.0625 105.390625 283.339844 105.664062 283.679688 105.664062 L 288.898438 105.664062 C 289.242188 105.664062 289.515625 105.390625 289.515625 105.046875 C 289.515625 104.707031 289.242188 104.425781 288.898438 104.425781 Z M 274.234375 91.242188 C 274.234375 90.898438 273.957031 90.621094 273.613281 90.621094 L 263.183594 90.621094 C 262.839844 90.621094 262.5625 90.898438 262.5625 91.242188 C 262.5625 91.585938 262.839844 91.859375 263.183594 91.859375 L 273.613281 91.859375 C 273.957031 91.859375 274.234375 91.585938 274.234375 91.242188 Z M 269.007812 99.328125 C 269.007812 98.984375 268.734375 98.707031 268.390625 98.707031 L 259.273438 98.707031 C 258.933594 98.707031 258.65625 98.984375 258.65625 99.328125 C 258.65625 99.667969 258.933594 99.945312 259.273438 99.945312 L 268.390625 99.945312 C 268.734375 99.945312 269.007812 99.667969 269.007812 99.328125 Z M 266.46875 119.539062 C 266.46875 119.195312 266.191406 118.917969 265.847656 118.917969 L 256.734375 118.917969 C 256.390625 118.917969 256.113281 119.195312 256.113281 119.539062 C 256.113281 119.878906 256.390625 120.15625 256.734375 120.15625 L 265.847656 120.15625 C 266.191406 120.15625 266.46875 119.878906 266.46875 119.539062 Z M 261.941406 123.582031 C 261.941406 123.238281 261.667969 122.960938 261.324219 122.960938 L 250.308594 122.960938 C 249.964844 122.960938 249.6875 123.238281 249.6875 123.582031 C 249.6875 123.921875 249.964844 124.199219 250.308594 124.199219 L 261.324219 124.199219 C 261.667969 124.199219 261.941406 123.921875 261.941406 123.582031 Z M 255.699219 127.621094 C 255.699219 127.28125 255.421875 127.003906 255.082031 127.003906 L 240.027344 127.003906 C 239.6875 127.003906 239.410156 127.28125 239.410156 127.621094 C 239.410156 127.964844 239.6875 128.238281 240.027344 128.238281 L 255.082031 128.238281 C 255.421875 128.238281 255.699219 127.964844 255.699219 127.621094 Z M 239.425781 91.242188 C 239.425781 90.898438 239.152344 90.621094 238.808594 90.621094 L 234.679688 90.621094 C 234.339844 90.621094 234.0625 90.898438 234.0625 91.242188 C 234.0625 91.585938 234.339844 91.859375 234.679688 91.859375 L 238.808594 91.859375 C 239.152344 91.859375 239.425781 91.585938 239.425781 91.242188 Z M 238.917969 95.285156 C 238.917969 94.945312 238.644531 94.664062 238.300781 94.664062 L 234.171875 94.664062 C 233.832031 94.664062 233.554688 94.945312 233.554688 95.285156 C 233.554688 95.625 233.832031 95.902344 234.171875 95.902344 L 238.300781 95.902344 C 238.644531 95.902344 238.917969 95.625 238.917969 95.285156 Z M 238.410156 99.328125 C 238.410156 98.984375 238.136719 98.707031 237.792969 98.707031 L 233.664062 98.707031 C 233.320312 98.707031 233.046875 98.984375 233.046875 99.328125 C 233.046875 99.667969 233.320312 99.945312 233.664062 99.945312 L 237.792969 99.945312 C 238.136719 99.945312 238.410156 99.667969 238.410156 99.328125 Z M 237.902344 103.367188 C 237.902344 103.027344 237.625 102.75 237.285156 102.75 L 233.15625 102.75 C 232.8125 102.75 232.535156 103.027344 232.535156 103.367188 C 232.535156 103.710938 232.8125 103.988281 233.15625 103.988281 L 237.285156 103.988281 C 237.625 103.988281 237.902344 103.710938 237.902344 103.367188 Z M 237.394531 107.410156 C 237.394531 107.070312 237.117188 106.792969 236.777344 106.792969 L 232.648438 106.792969 C 232.304688 106.792969 232.027344 107.070312 232.027344 107.410156 C 232.027344 107.753906 232.304688 108.03125 232.648438 108.03125 L 236.777344 108.03125 C 237.117188 108.03125 237.394531 107.753906 237.394531 107.410156 Z M 236.378906 115.496094 C 236.378906 115.152344 236.101562 114.878906 235.757812 114.878906 L 231.632812 114.878906 C 231.289062 114.878906 231.011719 115.152344 231.011719 115.496094 C 231.011719 115.835938 231.289062 116.113281 231.632812 116.113281 L 235.757812 116.113281 C 236.101562 116.113281 236.378906 115.835938 236.378906 115.496094 Z M 235.867188 119.539062 C 235.867188 119.195312 235.589844 118.917969 235.25 118.917969 L 231.121094 118.917969 C 230.78125 118.917969 230.503906 119.195312 230.503906 119.539062 C 230.503906 119.878906 230.78125 120.15625 231.121094 120.15625 L 235.25 120.15625 C 235.589844 120.15625 235.867188 119.878906 235.867188 119.539062 Z M 235.359375 123.582031 C 235.359375 123.238281 235.082031 122.960938 234.742188 122.960938 L 230.613281 122.960938 C 230.273438 122.960938 229.992188 123.238281 229.992188 123.582031 C 229.992188 123.921875 230.273438 124.199219 230.613281 124.199219 L 234.742188 124.199219 C 235.082031 124.199219 235.359375 123.921875 235.359375 123.582031 Z M 234.851562 127.621094 C 234.851562 127.28125 234.574219 127.003906 234.234375 127.003906 L 230.105469 127.003906 C 229.765625 127.003906 229.484375 127.28125 229.484375 127.621094 C 229.484375 127.964844 229.765625 128.238281 230.105469 128.238281 L 234.234375 128.238281 C 234.574219 128.238281 234.851562 127.964844 234.851562 127.621094 Z M 239.917969 123.582031 C 239.917969 123.921875 240.195312 124.199219 240.535156 124.199219 L 246.78125 124.199219 C 247.125 124.199219 247.402344 123.921875 247.402344 123.582031 C 247.402344 123.238281 247.125 122.960938 246.78125 122.960938 L 240.535156 122.960938 C 240.195312 122.960938 239.917969 123.238281 239.917969 123.582031 Z M 240.425781 119.539062 C 240.425781 119.878906 240.703125 120.15625 241.046875 120.15625 L 253.207031 120.15625 C 253.550781 120.15625 253.828125 119.878906 253.828125 119.539062 C 253.828125 119.195312 253.550781 118.917969 253.207031 118.917969 L 241.046875 118.917969 C 240.703125 118.917969 240.425781 119.195312 240.425781 119.539062 Z M 240.933594 115.496094 C 240.933594 115.835938 241.210938 116.113281 241.554688 116.113281 L 246.769531 116.113281 C 247.113281 116.113281 247.390625 115.835938 247.390625 115.496094 C 247.390625 115.152344 247.113281 114.878906 246.769531 114.878906 L 241.554688 114.878906 C 241.210938 114.878906 240.933594 115.152344 240.933594 115.496094 Z M 241.953125 107.410156 C 241.953125 107.753906 242.230469 108.03125 242.570312 108.03125 L 250.09375 108.03125 C 250.4375 108.03125 250.714844 107.753906 250.714844 107.410156 C 250.714844 107.070312 250.4375 106.792969 250.09375 106.792969 L 242.570312 106.792969 C 242.230469 106.792969 241.953125 107.070312 241.953125 107.410156 Z M 242.460938 103.367188 C 242.460938 103.710938 242.738281 103.988281 243.078125 103.988281 L 249.324219 103.988281 C 249.667969 103.988281 249.941406 103.710938 249.941406 103.367188 C 249.941406 103.027344 249.667969 102.75 249.324219 102.75 L 243.078125 102.75 C 242.738281 102.75 242.460938 103.027344 242.460938 103.367188 Z M 242.96875 99.328125 C 242.96875 99.667969 243.246094 99.945312 243.585938 99.945312 L 255.75 99.945312 C 256.089844 99.945312 256.371094 99.667969 256.371094 99.328125 C 256.371094 98.984375 256.089844 98.707031 255.75 98.707031 L 243.585938 98.707031 C 243.246094 98.707031 242.96875 98.984375 242.96875 99.328125 Z M 243.476562 95.285156 C 243.476562 95.625 243.753906 95.902344 244.09375 95.902344 L 249.3125 95.902344 C 249.65625 95.902344 249.929688 95.625 249.929688 95.285156 C 249.929688 94.945312 249.65625 94.664062 249.3125 94.664062 L 244.09375 94.664062 C 243.753906 94.664062 243.476562 94.945312 243.476562 95.285156 Z M 243.984375 91.242188 C 243.984375 91.585938 244.261719 91.859375 244.605469 91.859375 L 259.65625 91.859375 C 259.996094 91.859375 260.277344 91.585938 260.277344 91.242188 C 260.277344 90.898438 259.996094 90.621094 259.65625 90.621094 L 244.605469 90.621094 C 244.261719 90.621094 243.984375 90.898438 243.984375 91.242188 Z M 262.539062 95.902344 C 262.878906 95.902344 263.15625 95.625 263.15625 95.285156 C 263.15625 94.945312 262.878906 94.664062 262.539062 94.664062 L 252.101562 94.664062 C 251.761719 94.664062 251.484375 94.945312 251.484375 95.285156 C 251.484375 95.625 251.761719 95.902344 252.101562 95.902344 Z M 257.605469 103.367188 C 257.605469 103.027344 257.328125 102.75 256.988281 102.75 L 252.851562 102.75 C 252.507812 102.75 252.230469 103.027344 252.230469 103.367188 C 252.230469 103.710938 252.507812 103.988281 252.851562 103.988281 L 256.988281 103.988281 C 257.328125 103.988281 257.605469 103.710938 257.605469 103.367188 Z M 259.996094 114.878906 L 249.5625 114.878906 C 249.21875 114.878906 248.941406 115.152344 248.941406 115.496094 C 248.941406 115.835938 249.21875 116.113281 249.5625 116.113281 L 259.996094 116.113281 C 260.339844 116.113281 260.613281 115.835938 260.613281 115.496094 C 260.613281 115.152344 260.339844 114.878906 259.996094 114.878906 Z M 263.589844 108.03125 C 263.929688 108.03125 264.207031 107.753906 264.207031 107.410156 C 264.207031 107.070312 263.929688 106.792969 263.589844 106.792969 L 252.800781 106.792969 C 252.460938 106.792969 252.183594 107.070312 252.183594 107.410156 C 252.183594 107.753906 252.460938 108.03125 252.800781 108.03125 Z M 276.367188 132.859375 C 276.152344 134.570312 274.59375 135.953125 272.882812 135.953125 L 227.613281 135.953125 C 225.902344 135.953125 224.691406 134.570312 224.90625 132.859375 L 230.886719 85.316406 C 231.097656 83.609375 232.660156 82.222656 234.371094 82.222656 L 279.640625 82.222656 C 281.351562 82.222656 282.5625 83.609375 282.347656 85.316406 Z M 114.53125 101.253906 L 113.953125 96.507812 C 113.398438 91.898438 114.757812 87.542969 117.367188 84.179688 L 92.003906 84.179688 L 92.003906 101.183594 C 92.003906 101.207031 91.996094 101.230469 91.996094 101.253906 Z M 86.804688 83.609375 L 80.671875 83.609375 L 80.671875 98.4375 L 86.804688 98.4375 Z M 77.558594 84.179688 L 77.558594 81.753906 L 71.425781 81.753906 L 71.425781 98.4375 L 77.558594 98.4375 Z M 68.3125 85.835938 L 62.179688 85.835938 L 62.179688 98.4375 L 68.3125 98.4375 Z M 59.066406 93.285156 L 52.933594 93.285156 L 52.933594 98.4375 L 59.066406 98.4375 Z M 49.820312 90.664062 L 43.6875 90.664062 L 43.6875 98.4375 L 49.820312 98.4375 Z M 112.496094 119.5625 L 19.132812 119.5625 C 19.117188 119.355469 19.101562 119.148438 19.089844 118.941406 L 112.667969 118.941406 L 114.367188 112.964844 C 115.097656 110.390625 115.308594 107.695312 114.988281 105.039062 L 114.605469 101.871094 L 91.917969 101.871094 C 91.605469 103.246094 90.378906 104.277344 88.910156 104.277344 L 43.207031 104.277344 C 41.734375 104.277344 40.507812 103.246094 40.195312 101.871094 L 19.3125 101.871094 C 19.332031 101.664062 19.355469 101.460938 19.378906 101.253906 L 40.117188 101.253906 C 40.117188 101.230469 40.113281 101.207031 40.113281 101.183594 L 40.113281 84.179688 L 22.613281 84.179688 C 22.671875 83.972656 22.734375 83.769531 22.796875 83.5625 L 40.113281 83.5625 L 40.113281 77.226562 C 40.113281 75.519531 41.496094 74.132812 43.207031 74.132812 L 88.910156 74.132812 C 90.617188 74.132812 92.003906 75.519531 92.003906 77.226562 L 92.003906 83.5625 L 117.871094 83.5625 C 120.945312 79.972656 125.507812 77.660156 130.671875 77.660156 C 135.769531 77.660156 140.375 79.933594 143.476562 83.5625 L 159.78125 83.5625 L 159.710938 84.179688 L 143.984375 84.179688 C 145.851562 86.589844 147.089844 89.53125 147.421875 92.761719 L 147.589844 94.398438 L 151.117188 101.253906 L 157.820312 101.253906 L 157.75 101.871094 L 151.34375 101.871094 C 151.359375 102.265625 151.113281 102.644531 150.707031 102.761719 L 149.320312 103.167969 C 148.917969 103.285156 148.65625 103.664062 148.6875 104.082031 C 148.898438 106.835938 149.519531 116.652344 147.589844 117.691406 C 145.34375 118.898438 134.628906 116.734375 134.628906 116.734375 C 134.425781 117.464844 134.257812 118.199219 134.117188 118.941406 L 155.855469 118.941406 L 155.785156 119.5625 L 134.011719 119.5625 C 133.632812 121.855469 133.539062 124.191406 133.734375 126.503906 C 131.335938 125.6875 128.125 124.429688 123.132812 123.414062 C 118.347656 122.441406 113.734375 123.539062 111.117188 124.410156 Z M 98.453125 169.382812 C 97.691406 164.574219 96.6875 159.617188 95.433594 154.941406 L 95.4375 154.941406 C 95.414062 154.859375 95.394531 154.777344 95.371094 154.699219 C 94.921875 153.046875 94.441406 151.425781 93.929688 149.867188 C 92.214844 144.65625 93.84375 139.363281 97.394531 135.941406 C 97.222656 136.015625 97.050781 136.085938 96.878906 136.167969 C 96.589844 136.316406 96.3125 136.472656 96.042969 136.632812 L 21.492188 136.632812 C 21.535156 136.839844 21.574219 137.042969 21.617188 137.25 L 95.089844 137.25 C 89.734375 141.089844 88.007812 148.445312 91.316406 154.324219 L 26.363281 154.324219 C 26.433594 154.527344 26.5 154.734375 26.570312 154.941406 L 91.664062 154.941406 Z M 156.523438 260.855469 C 159.050781 260.855469 161.582031 260.71875 164.117188 260.460938 L 147.917969 260.460938 C 150.777344 260.714844 153.644531 260.855469 156.523438 260.855469 Z M 121.820312 242.789062 C 121.222656 242.789062 120.636719 242.78125 120.0625 242.769531 L 96.855469 242.769531 C 97.195312 242.980469 97.539062 243.183594 97.878906 243.390625 L 209.21875 243.390625 C 209.539062 243.183594 209.855469 242.976562 210.171875 242.769531 L 122.578125 242.769531 C 122.324219 242.773438 122.082031 242.789062 121.820312 242.789062 Z M 97.242188 225.078125 L 73.378906 225.078125 C 73.609375 225.289062 73.835938 225.492188 74.0625 225.699219 L 97.277344 225.699219 C 97.265625 225.492188 97.253906 225.289062 97.242188 225.078125 Z M 149.546875 225.699219 L 231.945312 225.699219 C 232.167969 225.492188 232.390625 225.289062 232.613281 225.078125 L 149.765625 225.078125 C 149.695312 225.28125 149.625 225.484375 149.546875 225.699219 Z M 97.730469 207.390625 L 56.5 207.390625 C 56.671875 207.597656 56.847656 207.800781 57.023438 208.011719 L 97.667969 208.011719 C 97.6875 207.800781 97.707031 207.597656 97.730469 207.390625 Z M 100.300781 189.699219 L 43.589844 189.699219 C 43.722656 189.90625 43.855469 190.113281 43.988281 190.320312 L 100.300781 190.320312 C 100.300781 190.117188 100.300781 189.914062 100.300781 189.699219 Z M 195.707031 198.574219 C 197.160156 198.808594 198.585938 199.035156 199.964844 199.242188 L 199.808594 199 L 196.136719 198.222656 Z M 228.074219 207.390625 L 237.394531 207.390625 L 234.445312 205.335938 L 229.171875 206.539062 Z M 156.574219 172.011719 L 274.671875 172.011719 C 274.550781 172.214844 274.433594 172.425781 274.3125 172.628906 L 156.890625 172.628906 C 160.8125 180.222656 164.410156 186.535156 166.578125 189.699219 L 263.304688 189.699219 C 263.160156 189.90625 263.015625 190.113281 262.871094 190.320312 L 167.015625 190.320312 C 167.578125 191.101562 168.019531 191.613281 168.308594 191.804688 C 170.609375 193.335938 176.292969 194.875 182.9375 196.253906 L 193.472656 192.277344 C 194.546875 191.875 195.753906 192.011719 196.707031 192.652344 L 201.914062 196.125 L 204.085938 199.859375 C 208.148438 200.445312 211.488281 200.886719 213.347656 201.121094 L 219.117188 200.90625 L 231.488281 196.632812 C 232.597656 196.253906 233.828125 196.425781 234.785156 197.109375 L 240 200.804688 L 243.585938 207.390625 L 249.566406 207.390625 C 249.390625 207.597656 249.210938 207.804688 249.035156 208.011719 L 243.921875 208.011719 L 244.042969 208.230469 C 244.273438 208.65625 244.101562 209.183594 243.660156 209.386719 C 242.789062 209.324219 241.789062 208.890625 240.976562 208.28125 L 241.1875 209.707031 C 241.285156 210.355469 240.753906 210.933594 240.097656 210.882812 C 239.074219 210.8125 238.230469 210.050781 238.054688 209.042969 L 237.875 208.011719 L 227.273438 208.011719 L 224.738281 209.96875 C 223.542969 210.890625 222.152344 211.507812 220.683594 211.773438 C 219.730469 211.949219 218.746094 211.921875 217.78125 211.789062 L 211.929688 210.984375 L 168.378906 210.671875 C 163.121094 210.453125 159.25 209.457031 156.300781 208.011719 L 145.191406 208.011719 C 145.160156 207.910156 145.132812 207.8125 145.105469 207.710938 L 145.101562 207.710938 C 145.078125 207.628906 145.054688 207.546875 145.027344 207.460938 C 145.023438 207.441406 145.015625 207.414062 145.007812 207.390625 C 144.078125 204.234375 143.410156 200.960938 143.410156 198.070312 C 143.410156 196.425781 143.652344 194.691406 144.050781 192.894531 C 144.152344 192.910156 144.253906 192.929688 144.359375 192.949219 L 137.824219 180.347656 C 137.484375 180.421875 137.132812 180.460938 136.773438 180.460938 C 133.523438 180.460938 130.316406 177.414062 127.90625 172.628906 L 33.988281 172.628906 C 33.886719 172.425781 33.785156 172.21875 33.683594 172.011719 L 127.605469 172.011719 C 125.835938 168.285156 124.539062 163.597656 124.039062 158.5 C 123.640625 154.414062 123.808594 150.589844 124.425781 147.3125 C 124.375 143.027344 125.53125 139.289062 128.730469 137.796875 C 128.984375 137.679688 129.246094 137.582031 129.5 137.484375 C 130.414062 136.871094 131.410156 136.542969 132.480469 136.542969 C 132.917969 136.542969 133.347656 136.601562 133.78125 136.707031 C 138.066406 136.804688 141.882812 139.539062 143.6875 144.078125 C 147.300781 153.164062 152.125 163.367188 156.570312 172.011719 Z M 151.863281 154.941406 L 151.929688 154.324219 L 149.453125 154.324219 C 149.523438 154.527344 149.59375 154.734375 149.660156 154.941406 Z M 153.894531 136.632812 L 141.765625 136.632812 C 141.835938 136.757812 141.910156 136.886719 141.972656 137.011719 C 142.011719 137.089844 142.054688 137.171875 142.09375 137.25 L 153.824219 137.25 Z M 299.164062 65.875 L 30.117188 65.875 C 30.003906 66.078125 29.894531 66.289062 29.785156 66.492188 L 299.3125 66.492188 C 299.261719 66.289062 299.214844 66.078125 299.164062 65.875"/><g clip-path="url(#c)"><path fill="#393A3F" d="M 231.765625 191.609375 L 214.324219 191.664062 L 205.605469 191.691406 L 196.886719 191.777344 L 196.886719 192.058594 L 205.605469 192.144531 L 214.324219 192.171875 L 231.765625 192.226562 L 249.203125 192.160156 L 257.925781 192.125 L 266.644531 192.035156 L 266.644531 191.800781 L 257.925781 191.710938 L 249.203125 191.675781 Z M 224.449219 54.613281 L 218.148438 54.613281 L 218.148438 55.234375 L 224.449219 55.234375 Z M 227.734375 53.167969 L 227.734375 52.550781 L 223.722656 52.550781 L 223.722656 53.167969 Z M 222.160156 52.550781 L 218.148438 52.550781 L 218.148438 53.167969 L 222.160156 53.167969 Z M 227.734375 50.488281 L 218.148438 50.488281 L 218.148438 51.105469 L 227.734375 51.105469 Z M 232.035156 7.410156 C 232.929688 7.410156 233.65625 6.683594 233.65625 5.789062 C 233.65625 4.898438 232.929688 4.171875 232.035156 4.171875 C 231.140625 4.171875 230.417969 4.898438 230.417969 5.789062 C 230.417969 6.683594 231.140625 7.410156 232.035156 7.410156 Z M 144.015625 7.410156 C 144.910156 7.410156 145.636719 6.683594 145.636719 5.789062 C 145.636719 4.898438 144.910156 4.171875 144.015625 4.171875 C 143.121094 4.171875 142.394531 4.898438 142.394531 5.789062 C 142.394531 6.683594 143.121094 7.410156 144.015625 7.410156 Z M 80.746094 55.957031 L 74.441406 55.957031 L 74.441406 56.574219 L 80.746094 56.574219 Z M 84.027344 54.511719 L 84.027344 53.890625 L 80.015625 53.890625 L 80.015625 54.511719 Z M 78.453125 53.890625 L 74.441406 53.890625 L 74.441406 54.511719 L 78.453125 54.511719 Z M 84.027344 51.828125 L 74.441406 51.828125 L 74.441406 52.449219 L 84.027344 52.449219 Z M 57.964844 7.410156 C 58.855469 7.410156 59.582031 6.683594 59.582031 5.789062 C 59.582031 4.898438 58.855469 4.171875 57.964844 4.171875 C 57.070312 4.171875 56.34375 4.898438 56.34375 5.789062 C 56.34375 6.683594 57.070312 7.410156 57.964844 7.410156 Z M 46.445312 101.410156 L 47.0625 101.410156 L 47.0625 100.75 L 55.691406 100.75 L 55.691406 101.410156 L 56.308594 101.410156 L 56.308594 100.75 L 64.9375 100.75 L 64.9375 101.410156 L 65.554688 101.410156 L 65.554688 100.75 L 74.183594 100.75 L 74.183594 101.410156 L 74.804688 101.410156 L 74.804688 100.75 L 83.429688 100.75 L 83.429688 101.410156 L 84.050781 101.410156 L 84.050781 100.75 L 86.867188 100.75 L 86.867188 100.128906 L 84.050781 100.128906 L 84.050781 99.46875 L 83.429688 99.46875 L 83.429688 100.128906 L 74.804688 100.128906 L 74.804688 99.46875 L 74.183594 99.46875 L 74.183594 100.128906 L 65.554688 100.128906 L 65.554688 99.46875 L 64.9375 99.46875 L 64.9375 100.128906 L 56.308594 100.128906 L 56.308594 99.46875 L 55.691406 99.46875 L 55.691406 100.128906 L 47.0625 100.128906 L 47.0625 99.46875 L 46.445312 99.46875 L 46.445312 100.128906 L 43.6875 100.128906 L 43.6875 100.75 L 46.445312 100.75 Z M 247.460938 77.660156 C 247.460938 77.320312 247.183594 77.042969 246.84375 77.042969 L 166.847656 77.042969 C 166.503906 77.042969 166.226562 77.320312 166.226562 77.660156 C 166.226562 78.003906 166.503906 78.28125 166.847656 78.28125 L 246.84375 78.28125 C 247.183594 78.28125 247.460938 78.003906 247.460938 77.660156 Z M 229.371094 165.65625 L 225.242188 165.65625 C 224.898438 165.65625 224.625 165.933594 224.625 166.273438 C 224.625 166.617188 224.898438 166.890625 225.242188 166.890625 L 229.371094 166.890625 C 229.714844 166.890625 229.992188 166.617188 229.992188 166.273438 C 229.992188 165.933594 229.714844 165.65625 229.371094 165.65625 Z M 230.5 162.234375 C 230.5 161.890625 230.222656 161.613281 229.878906 161.613281 L 225.75 161.613281 C 225.410156 161.613281 225.132812 161.890625 225.132812 162.234375 C 225.132812 162.574219 225.410156 162.851562 225.75 162.851562 L 229.878906 162.851562 C 230.222656 162.851562 230.5 162.574219 230.5 162.234375 Z M 231.515625 154.144531 C 231.515625 153.804688 231.238281 153.527344 230.894531 153.527344 L 226.769531 153.527344 C 226.425781 153.527344 226.148438 153.804688 226.148438 154.144531 C 226.148438 154.488281 226.425781 154.765625 226.769531 154.765625 L 230.894531 154.765625 C 231.238281 154.765625 231.515625 154.488281 231.515625 154.144531 Z M 232.023438 150.105469 C 232.023438 149.765625 231.746094 149.488281 231.402344 149.488281 L 227.277344 149.488281 C 226.933594 149.488281 226.660156 149.765625 226.660156 150.105469 C 226.660156 150.445312 226.933594 150.722656 227.277344 150.722656 L 231.402344 150.722656 C 231.746094 150.722656 232.023438 150.445312 232.023438 150.105469 Z M 232.535156 146.0625 C 232.535156 145.722656 232.253906 145.445312 231.914062 145.445312 L 227.785156 145.445312 C 227.445312 145.445312 227.167969 145.722656 227.167969 146.0625 C 227.167969 146.40625 227.445312 146.683594 227.785156 146.683594 L 231.914062 146.683594 C 232.253906 146.683594 232.535156 146.40625 232.535156 146.0625 Z M 173.824219 143.675781 C 173.761719 144.179688 174.121094 144.589844 174.625 144.589844 C 175.132812 144.589844 175.59375 144.179688 175.65625 143.675781 C 175.722656 143.167969 175.363281 142.757812 174.855469 142.757812 C 174.351562 142.757812 173.890625 143.167969 173.824219 143.675781 Z M 181.292969 86.734375 C 181.230469 87.238281 181.589844 87.648438 182.09375 87.648438 C 182.601562 87.648438 183.0625 87.238281 183.125 86.734375 C 183.1875 86.226562 182.832031 85.816406 182.324219 85.816406 C 181.820312 85.816406 181.355469 86.226562 181.292969 86.734375 Z M 190.457031 108.46875 C 190.117188 108.46875 189.839844 108.746094 189.839844 109.089844 C 189.839844 109.429688 190.117188 109.707031 190.457031 109.707031 L 198.046875 109.707031 C 198.386719 109.707031 198.664062 109.429688 198.664062 109.089844 C 198.664062 108.746094 198.386719 108.46875 198.046875 108.46875 Z M 234.851562 127.621094 C 234.851562 127.28125 234.574219 127.003906 234.234375 127.003906 L 230.105469 127.003906 C 229.765625 127.003906 229.484375 127.28125 229.484375 127.621094 C 229.484375 127.964844 229.765625 128.238281 230.105469 128.238281 L 234.234375 128.238281 C 234.574219 128.238281 234.851562 127.964844 234.851562 127.621094 Z M 235.359375 123.582031 C 235.359375 123.238281 235.082031 122.960938 234.742188 122.960938 L 230.613281 122.960938 C 230.273438 122.960938 229.992188 123.238281 229.992188 123.582031 C 229.992188 123.921875 230.273438 124.199219 230.613281 124.199219 L 234.742188 124.199219 C 235.082031 124.199219 235.359375 123.921875 235.359375 123.582031 Z M 235.867188 119.539062 C 235.867188 119.195312 235.589844 118.917969 235.25 118.917969 L 231.121094 118.917969 C 230.78125 118.917969 230.503906 119.195312 230.503906 119.539062 C 230.503906 119.878906 230.78125 120.15625 231.121094 120.15625 L 235.25 120.15625 C 235.589844 120.15625 235.867188 119.878906 235.867188 119.539062 Z M 236.378906 115.496094 C 236.378906 115.152344 236.101562 114.878906 235.757812 114.878906 L 231.632812 114.878906 C 231.289062 114.878906 231.011719 115.152344 231.011719 115.496094 C 231.011719 115.835938 231.289062 116.113281 231.632812 116.113281 L 235.757812 116.113281 C 236.101562 116.113281 236.378906 115.835938 236.378906 115.496094 Z M 237.394531 107.410156 C 237.394531 107.070312 237.117188 106.792969 236.777344 106.792969 L 232.648438 106.792969 C 232.304688 106.792969 232.027344 107.070312 232.027344 107.410156 C 232.027344 107.753906 232.304688 108.03125 232.648438 108.03125 L 236.777344 108.03125 C 237.117188 108.03125 237.394531 107.753906 237.394531 107.410156 Z M 237.902344 103.367188 C 237.902344 103.027344 237.625 102.75 237.285156 102.75 L 233.15625 102.75 C 232.8125 102.75 232.535156 103.027344 232.535156 103.367188 C 232.535156 103.710938 232.8125 103.988281 233.15625 103.988281 L 237.285156 103.988281 C 237.625 103.988281 237.902344 103.710938 237.902344 103.367188 Z M 238.410156 99.328125 C 238.410156 98.984375 238.136719 98.707031 237.792969 98.707031 L 233.664062 98.707031 C 233.320312 98.707031 233.046875 98.984375 233.046875 99.328125 C 233.046875 99.667969 233.320312 99.945312 233.664062 99.945312 L 237.792969 99.945312 C 238.136719 99.945312 238.410156 99.667969 238.410156 99.328125 Z M 238.917969 95.285156 C 238.917969 94.945312 238.644531 94.664062 238.300781 94.664062 L 234.171875 94.664062 C 233.832031 94.664062 233.554688 94.945312 233.554688 95.285156 C 233.554688 95.625 233.832031 95.902344 234.171875 95.902344 L 238.300781 95.902344 C 238.644531 95.902344 238.917969 95.625 238.917969 95.285156 Z M 239.425781 91.242188 C 239.425781 90.898438 239.152344 90.621094 238.808594 90.621094 L 234.679688 90.621094 C 234.339844 90.621094 234.0625 90.898438 234.0625 91.242188 C 234.0625 91.585938 234.339844 91.859375 234.679688 91.859375 L 238.808594 91.859375 C 239.152344 91.859375 239.425781 91.585938 239.425781 91.242188 Z M 144.558594 94.144531 L 147.46875 94 C 147.613281 92.300781 148.101562 90.738281 148.90625 90.34375 C 148.050781 90.253906 147.21875 90.277344 146.582031 90.554688 C 146.542969 88.410156 145.695312 87.265625 145.160156 85.917969 C 145.152344 87.457031 145.574219 86.984375 145.410156 89.050781 C 145.320312 90.195312 145.554688 91.371094 145.285156 92.488281 C 145.144531 93.082031 144.867188 93.617188 144.558594 94.144531 Z M 148.089844 93.96875 L 150.515625 93.847656 C 150.332031 91.996094 149.742188 90.863281 149.308594 90.863281 C 148.871094 90.863281 148.261719 92.046875 148.089844 93.96875 Z M 150.5625 94.460938 L 148.050781 94.589844 C 148.042969 94.734375 148.042969 94.878906 148.042969 95.03125 C 148.042969 97.578125 148.792969 99.203125 149.308594 99.203125 C 149.824219 99.203125 150.578125 97.578125 150.578125 95.03125 C 150.578125 94.835938 150.570312 94.648438 150.5625 94.460938 Z M 92.179688 119.332031 C 91.507812 114.910156 92.796875 110.226562 95.644531 106.773438 C 96.6875 105.507812 97.976562 104.304688 98.296875 102.699219 C 98.625 101.042969 97.839844 99.394531 97.480469 97.742188 C 96.796875 94.589844 97.769531 91.125 100 88.792969 C 101.710938 87.003906 104.078125 85.867188 105.523438 83.859375 C 106.734375 82.171875 107.160156 80.070312 107.988281 78.171875 C 110.320312 72.84375 116.207031 69.296875 122.007812 69.730469 C 123.621094 67.722656 126.742188 66.78125 129.277344 67.230469 C 131.8125 67.675781 134.066406 69.113281 136.035156 70.769531 C 142.238281 69.816406 150.039062 75.730469 152.203125 91.078125 C 151.621094 90.902344 150.808594 90.671875 149.953125 90.5 C 150.761719 91.191406 151.195312 93.160156 151.195312 95.03125 C 151.195312 97.351562 150.535156 99.820312 149.308594 99.820312 C 148.082031 99.820312 147.421875 97.351562 147.421875 95.03125 C 147.421875 94.894531 147.425781 94.757812 147.429688 94.621094 L 146.027344 94.691406 C 146.296875 94.832031 146.496094 95.363281 146.496094 95.996094 C 146.496094 96.742188 146.222656 97.347656 145.882812 97.347656 C 145.542969 97.347656 145.269531 96.742188 145.269531 95.996094 C 145.269531 95.382812 145.457031 94.867188 145.714844 94.703125 L 144.160156 94.78125 C 143.792969 95.359375 143.421875 95.9375 143.167969 96.570312 C 142.019531 99.472656 143.648438 102.765625 143.191406 105.855469 C 142.902344 107.792969 141.816406 109.515625 141.230469 111.386719 C 140.398438 114.039062 140.980469 117.710938 142.203125 120.210938 L 133.613281 120.210938 C 133.074219 118.1875 132.382812 116.351562 132.304688 114.261719 C 131.734375 116.449219 131.484375 118.441406 131.292969 120.695312 C 130.234375 117.84375 129.539062 115.070312 129.46875 112.03125 C 129.164062 114.464844 129.0625 116.898438 128.757812 119.332031 Z M 150.242188 202.832031 C 151.191406 204.023438 152.234375 205.152344 153.375 206.179688 C 154.511719 207.210938 155.769531 208.125 157.160156 208.824219 C 157.859375 209.160156 158.597656 209.429688 159.355469 209.621094 C 160.132812 209.792969 160.878906 209.875 161.632812 209.980469 C 163.140625 210.171875 164.652344 210.359375 166.164062 210.496094 C 169.1875 210.78125 172.222656 210.96875 175.261719 211.027344 C 175.335938 211.027344 175.402344 210.96875 175.40625 210.894531 C 175.410156 210.816406 175.347656 210.75 175.273438 210.746094 C 173.761719 210.660156 172.25 210.539062 170.742188 210.398438 C 169.230469 210.269531 167.726562 210.121094 166.222656 209.949219 C 164.714844 209.773438 163.210938 209.601562 161.710938 209.390625 C 160.964844 209.285156 160.203125 209.191406 159.5 209.03125 C 158.789062 208.847656 158.097656 208.589844 157.433594 208.269531 C 154.765625 206.949219 152.574219 204.789062 150.644531 202.5 C 149.675781 201.347656 148.78125 200.132812 147.9375 198.878906 C 147.085938 197.632812 146.285156 196.347656 145.566406 195.023438 L 145.5625 195.015625 C 145.53125 194.960938 145.464844 194.941406 145.40625 194.96875 C 145.347656 194.996094 145.324219 195.066406 145.351562 195.125 C 146.707031 197.855469 148.335938 200.441406 150.242188 202.832031 Z M 129.519531 165.433594 C 129.175781 165.226562 128.859375 164.988281 128.554688 164.730469 C 128.25 164.464844 127.972656 164.167969 127.695312 163.855469 C 127.660156 163.820312 127.605469 163.804688 127.558594 163.824219 C 127.5 163.851562 127.46875 163.917969 127.492188 163.980469 C 127.8125 164.792969 128.441406 165.484375 129.1875 165.957031 C 129.566406 166.191406 129.964844 166.382812 130.382812 166.511719 C 130.730469 166.625 131.085938 166.699219 131.449219 166.746094 C 132.640625 169.460938 133.878906 172.152344 135.125 174.84375 C 136.546875 177.835938 137.976562 180.824219 139.449219 183.789062 C 140.921875 186.757812 142.425781 189.710938 143.996094 192.628906 C 144.03125 192.695312 144.113281 192.722656 144.179688 192.691406 C 144.25 192.65625 144.277344 192.570312 144.246094 192.5 C 143.511719 191.015625 142.796875 189.523438 142.085938 188.03125 L 139.941406 183.550781 L 135.683594 174.582031 C 134.261719 171.59375 132.871094 168.585938 131.5 165.578125 C 130.8125 164.070312 130.144531 162.558594 129.492188 161.042969 C 128.851562 159.519531 128.1875 158 127.707031 156.425781 L 127.703125 156.421875 C 127.6875 156.359375 127.621094 156.324219 127.558594 156.34375 C 127.496094 156.359375 127.460938 156.425781 127.480469 156.488281 C 128.394531 159.695312 129.722656 162.742188 131.023438 165.789062 C 131.097656 165.957031 131.175781 166.125 131.25 166.296875 C 131.023438 166.199219 130.796875 166.105469 130.582031 166.003906 C 130.214844 165.828125 129.855469 165.644531 129.519531 165.433594 Z M 145.769531 106.683594 C 146.003906 106.835938 146.265625 106.929688 146.535156 106.992188 C 146.804688 107.046875 147.078125 107.074219 147.351562 107.046875 C 147.484375 107.039062 147.617188 107.011719 147.75 106.992188 C 147.878906 106.953125 148.007812 106.917969 148.132812 106.867188 C 148.171875 106.851562 148.199219 106.816406 148.207031 106.773438 C 148.214844 106.707031 148.171875 106.644531 148.101562 106.632812 C 147.59375 106.554688 147.125 106.5 146.671875 106.390625 C 146.449219 106.339844 146.230469 106.269531 146.011719 106.195312 C 145.796875 106.117188 145.574219 106.015625 145.371094 105.914062 L 145.34375 105.902344 C 145.304688 105.882812 145.257812 105.882812 145.210938 105.910156 C 145.144531 105.949219 145.125 106.035156 145.160156 106.097656 C 145.316406 106.363281 145.53125 106.535156 145.769531 106.683594 Z M 273.882812 211.707031 L 263.160156 195.597656 L 263.160156 195.457031 L 255.40625 195.371094 L 247.652344 195.34375 L 232.140625 195.289062 L 216.632812 195.355469 L 208.875 195.390625 L 201.121094 195.480469 L 201.121094 195.714844 L 201.300781 195.71875 L 201.914062 196.125 L 203.96875 199.65625 L 200.351562 199.140625 C 200.371094 199.128906 200.398438 199.125 200.417969 199.109375 C 200.558594 199.042969 200.675781 198.933594 200.785156 198.820312 C 200.882812 198.699219 200.972656 198.570312 201.027344 198.421875 C 201.078125 198.273438 201.113281 198.121094 201.097656 197.957031 C 201.09375 197.925781 201.082031 197.894531 201.0625 197.871094 C 201.007812 197.804688 200.90625 197.796875 200.84375 197.855469 L 200.835938 197.859375 C 200.722656 197.957031 200.640625 198.050781 200.550781 198.144531 C 200.464844 198.234375 200.390625 198.328125 200.316406 198.417969 C 200.238281 198.515625 200.160156 198.605469 200.085938 198.707031 C 200.011719 198.808594 199.929688 198.910156 199.851562 199.039062 L 199.847656 199.042969 C 199.847656 199.046875 199.847656 199.050781 199.84375 199.054688 L 199.808594 199 L 196.242188 198.246094 C 196.265625 198.160156 196.289062 198.074219 196.308594 197.988281 C 196.371094 197.691406 196.386719 197.390625 196.390625 197.089844 C 196.382812 196.785156 196.359375 196.480469 196.289062 196.1875 C 196.226562 195.890625 196.140625 195.597656 196 195.328125 C 195.976562 195.28125 195.925781 195.25 195.875 195.25 C 195.792969 195.25 195.726562 195.3125 195.726562 195.394531 C 195.722656 195.6875 195.738281 195.972656 195.746094 196.253906 L 195.769531 197.097656 L 195.785156 197.941406 C 195.789062 198.121094 195.792969 198.308594 195.796875 198.492188 L 194.019531 198.238281 C 187.832031 197.3125 181.640625 196.371094 175.507812 195.164062 C 173.980469 194.859375 172.445312 194.550781 170.964844 194.117188 C 170.605469 194.003906 170.230469 193.882812 169.921875 193.722656 C 169.753906 193.628906 169.726562 193.609375 169.601562 193.414062 L 169.289062 192.9375 C 168.875 192.277344 168.46875 191.613281 168.070312 190.941406 C 166.46875 188.257812 164.902344 185.546875 163.335938 182.839844 L 157.796875 173.230469 L 223.941406 173.230469 L 227.585938 187.148438 L 253.828125 187.148438 L 250.191406 173.230469 L 290.042969 173.230469 C 293.933594 173.230469 297.199219 170.308594 297.628906 166.449219 L 307.21875 80.011719 C 307.71875 75.496094 304.183594 71.546875 299.632812 71.546875 L 165.339844 71.546875 C 161.449219 71.546875 158.183594 74.46875 157.753906 78.332031 L 149.355469 154.042969 C 150.148438 156.363281 150.800781 158.621094 151.222656 160.699219 L 160.328125 78.617188 C 160.613281 76.0625 162.765625 74.132812 165.339844 74.132812 L 299.632812 74.132812 C 301.085938 74.132812 302.421875 74.730469 303.386719 75.8125 C 304.359375 76.890625 304.804688 78.28125 304.644531 79.726562 L 295.054688 166.164062 C 294.769531 168.714844 292.617188 170.640625 290.042969 170.640625 L 229.375 170.640625 C 229.4375 170.546875 229.480469 170.4375 229.480469 170.316406 C 229.480469 169.972656 229.207031 169.699219 228.863281 169.699219 L 224.734375 169.699219 C 224.390625 169.699219 224.117188 169.972656 224.117188 170.316406 C 224.117188 170.4375 224.160156 170.546875 224.222656 170.640625 L 156.304688 170.640625 L 153.960938 166.578125 C 153.929688 166.523438 153.859375 166.503906 153.800781 166.535156 C 153.746094 166.566406 153.722656 166.636719 153.753906 166.695312 L 155.9375 170.640625 L 155.871094 170.640625 C 156.316406 171.519531 156.761719 172.382812 157.203125 173.230469 L 157.367188 173.230469 L 158.296875 174.910156 L 162.914062 183.082031 C 164.460938 185.800781 166.007812 188.519531 167.59375 191.21875 C 167.988281 191.898438 168.394531 192.570312 168.808594 193.242188 L 169.136719 193.742188 C 169.207031 193.835938 169.210938 193.894531 169.34375 194.015625 C 169.453125 194.128906 169.550781 194.171875 169.648438 194.230469 C 170.035156 194.429688 170.414062 194.550781 170.792969 194.675781 C 172.316406 195.132812 173.851562 195.453125 175.390625 195.769531 C 181.550781 196.953125 187.75 197.851562 193.945312 198.742188 L 203.253906 200.019531 L 212.574219 201.164062 C 212.648438 201.171875 212.722656 201.117188 212.730469 201.042969 C 212.742188 200.964844 212.6875 200.894531 212.609375 200.886719 L 209.167969 200.394531 L 212.210938 195.820312 L 216.632812 195.839844 L 232.140625 195.902344 L 247.652344 195.851562 L 255.40625 195.824219 L 259.15625 195.78125 L 269.753906 211.707031 L 265.828125 211.707031 L 260.203125 205.34375 L 257.609375 207.046875 L 262.414062 211.707031 L 246.835938 211.707031 L 261 202.722656 L 241.042969 202.722656 L 244.042969 208.230469 C 244.273438 208.65625 244.101562 209.183594 243.660156 209.386719 C 242.851562 209.328125 241.933594 208.945312 241.15625 208.40625 C 241.15625 208.386719 241.164062 208.371094 241.15625 208.355469 C 240.824219 207.570312 240.816406 206.703125 240.707031 205.8125 C 240.660156 205.359375 240.5625 204.902344 240.386719 204.457031 C 240.210938 204.011719 239.960938 203.609375 239.667969 203.242188 C 239.0625 202.53125 238.339844 201.96875 237.605469 201.46875 C 236.871094 200.96875 236.140625 200.496094 235.480469 199.921875 C 235.441406 199.882812 235.375 199.878906 235.328125 199.917969 C 235.277344 199.960938 235.273438 200.03125 235.3125 200.082031 C 235.882812 200.789062 236.605469 201.34375 237.296875 201.890625 C 237.984375 202.433594 238.667969 202.96875 239.1875 203.632812 C 239.449219 203.957031 239.679688 204.304688 239.839844 204.679688 C 240.003906 205.054688 240.078125 205.46875 240.167969 205.890625 C 240.296875 206.578125 240.375 207.339844 240.675781 208.035156 C 240.296875 207.707031 239.964844 207.351562 239.742188 206.976562 L 237.769531 203.679688 L 234.261719 202.832031 C 234.253906 202.824219 234.25 202.8125 234.242188 202.804688 C 234.210938 202.769531 234.160156 202.75 234.109375 202.769531 C 234.097656 202.773438 234.09375 202.785156 234.085938 202.789062 L 234.039062 202.78125 L 229.105469 206.59375 C 229.109375 206.566406 229.113281 206.539062 229.117188 206.511719 C 229.144531 206.253906 229.128906 205.996094 229.089844 205.738281 C 229.046875 205.480469 228.976562 205.230469 228.871094 204.992188 C 228.765625 204.757812 228.636719 204.53125 228.460938 204.339844 C 228.425781 204.304688 228.375 204.285156 228.328125 204.296875 C 228.246094 204.308594 228.195312 204.382812 228.210938 204.464844 C 228.246094 204.707031 228.304688 204.9375 228.347656 205.164062 C 228.390625 205.390625 228.445312 205.613281 228.480469 205.84375 C 228.527344 206.066406 228.554688 206.292969 228.59375 206.523438 C 228.617188 206.660156 228.636719 206.800781 228.660156 206.9375 L 224.738281 209.96875 C 223.625 210.832031 222.335938 211.410156 220.976562 211.707031 L 217.164062 211.707031 L 212.335938 211.039062 C 212.632812 210.773438 212.898438 210.46875 213.085938 210.105469 C 213.324219 209.664062 213.4375 209.140625 213.363281 208.652344 C 213.355469 208.59375 213.304688 208.542969 213.242188 208.535156 C 213.164062 208.523438 213.09375 208.578125 213.082031 208.65625 C 213.015625 209.089844 212.863281 209.484375 212.625 209.828125 C 212.523438 209.972656 212.40625 210.105469 212.285156 210.234375 C 212.277344 209.949219 212.242188 209.671875 212.171875 209.394531 C 212.046875 208.863281 211.824219 208.355469 211.488281 207.933594 C 211.457031 207.894531 211.402344 207.875 211.351562 207.894531 C 211.289062 207.921875 211.261719 207.988281 211.285156 208.050781 C 211.460938 208.527344 211.59375 209.003906 211.648438 209.488281 C 211.703125 209.976562 211.703125 210.460938 211.625 210.933594 C 211.625 210.949219 211.628906 210.964844 211.628906 210.984375 L 178.371094 210.742188 L 176.914062 211.707031 L 146.445312 211.707031 C 146.523438 211.914062 146.601562 212.117188 146.679688 212.324219 L 307.265625 212.324219 L 307.265625 211.707031 Z M 54.585938 211.707031 L 54.585938 212.324219 L 123.820312 212.324219 C 128.019531 212.324219 129.226562 211.707031 129.226562 211.707031 C 129.773438 211.558594 130.292969 211.359375 130.789062 211.117188 C 134.34375 209.378906 136.484375 205.335938 135.46875 201.171875 L 123.621094 152.460938 C 122.664062 148.523438 119.140625 145.757812 115.089844 145.757812 L 48.894531 145.757812 C 43.207031 145.757812 39.019531 151.078125 40.363281 156.601562 L 52.210938 205.3125 C 52.980469 208.476562 55.414062 210.882812 58.441406 211.707031 Z M 150.707031 221.367188 C 150.707031 221.367188 150.691406 221.480469 150.660156 221.675781 C 150.230469 224.257812 146.285156 242.789062 121.820312 242.789062 C 112.867188 242.789062 106.390625 241.3125 102.785156 240.195312 C 104.066406 247.515625 110.453125 253.078125 118.140625 253.078125 L 165.203125 253.078125 C 176.855469 253.078125 188.226562 248.226562 188.226562 248.226562 L 184.570312 269.871094 L 208.566406 269.871094 C 208.566406 269.871094 211.339844 248.226562 212.539062 233.707031 C 213.238281 225.207031 206.972656 222.476562 201.65625 221.675781 L 244.824219 221.675781 L 242.019531 245.789062 L 250.890625 247.257812 L 253.867188 221.675781 L 285.8125 221.675781 L 289.527344 253.652344 L 298.746094 255.179688 L 294.855469 221.675781 L 307.265625 221.675781 L 307.265625 221.054688 L 150.546875 221.054688 C 150.648438 221.253906 150.707031 221.367188 150.707031 221.367188 Z M 97.109375 221.054688 L 54.585938 221.054688 L 54.585938 221.675781 L 75.042969 221.675781 C 75.023438 221.765625 75.03125 221.863281 75.007812 221.953125 L 74.921875 222.578125 C 74.859375 222.996094 74.839844 223.414062 74.796875 223.832031 L 74.726562 225.09375 L 74.695312 225.71875 L 74.675781 226.035156 C 74.683594 226.144531 74.605469 226.238281 74.808594 226.367188 C 75.035156 226.289062 74.980469 226.175781 75.011719 226.074219 L 75.070312 225.765625 L 75.179688 225.144531 L 75.402344 223.902344 C 75.457031 223.484375 75.53125 223.070312 75.566406 222.652344 L 75.628906 222.027344 C 75.621094 221.910156 75.671875 221.796875 75.652344 221.675781 L 97.117188 221.675781 C 97.113281 221.46875 97.109375 221.265625 97.109375 221.054688 Z M 202.292969 86.730469 C 202.292969 86.390625 202.015625 86.113281 201.675781 86.113281 L 192.453125 86.113281 C 192.113281 86.113281 191.835938 86.390625 191.835938 86.730469 C 191.835938 87.074219 192.113281 87.351562 192.453125 87.351562 L 201.675781 87.351562 C 202.015625 87.351562 202.292969 87.074219 202.292969 86.730469 Z M 177.824219 86.734375 C 177.761719 87.238281 178.121094 87.648438 178.625 87.648438 C 179.132812 87.648438 179.59375 87.238281 179.65625 86.734375 C 179.722656 86.226562 179.363281 85.816406 178.855469 85.816406 C 178.351562 85.816406 177.890625 86.226562 177.824219 86.734375 Z M 175.160156 87.648438 C 174.65625 87.648438 174.292969 87.238281 174.359375 86.734375 C 174.421875 86.226562 174.886719 85.816406 175.390625 85.816406 C 175.894531 85.816406 176.253906 86.226562 176.191406 86.734375 C 176.128906 87.238281 175.664062 87.648438 175.160156 87.648438"/></g><g clip-path="url(#d)"><path fill="#777B85" d="M 261.871094 187.148438 L 256.886719 187.148438 L 253.246094 173.230469 L 250.191406 173.230469 L 253.828125 187.148438 L 201.65625 187.148438 C 199.019531 187.148438 196.886719 189.285156 196.886719 191.917969 L 266.644531 191.917969 C 266.644531 189.285156 264.507812 187.148438 261.871094 187.148438 Z M 93.136719 186.824219 L 82.855469 186.824219 C 82.199219 186.824219 81.644531 187.316406 81.566406 187.96875 L 73.246094 260.03125 C 73.15625 260.796875 73.761719 261.476562 74.535156 261.476562 L 84.816406 261.476562 C 85.472656 261.476562 86.027344 260.980469 86.105469 260.328125 L 94.425781 188.269531 C 94.515625 187.5 93.914062 186.824219 93.136719 186.824219 Z M 246.367188 212 L 250.539062 212 L 260.039062 205.761719 L 265.558594 212 L 268.640625 212 L 261 202.722656 Z M 303.722656 71.546875 L 299.632812 71.546875 C 304.183594 71.546875 307.71875 75.496094 307.21875 80.011719 L 297.628906 166.449219 C 297.199219 170.308594 293.933594 173.230469 290.042969 173.230469 L 294.132812 173.230469 C 298.019531 173.230469 301.285156 170.308594 301.714844 166.449219 L 311.304688 80.011719 C 311.804688 75.496094 308.265625 71.546875 303.722656 71.546875 Z M 202.292969 86.730469 C 202.292969 86.390625 202.015625 86.113281 201.675781 86.113281 L 192.453125 86.113281 C 192.113281 86.113281 191.835938 86.390625 191.835938 86.730469 C 191.835938 87.074219 192.113281 87.351562 192.453125 87.351562 L 201.675781 87.351562 C 202.015625 87.351562 202.292969 87.074219 202.292969 86.730469 Z M 178.855469 85.816406 C 178.351562 85.816406 177.890625 86.226562 177.824219 86.734375 C 177.761719 87.238281 178.121094 87.648438 178.625 87.648438 C 179.132812 87.648438 179.59375 87.238281 179.65625 86.734375 C 179.722656 86.226562 179.363281 85.816406 178.855469 85.816406 Z M 175.390625 85.816406 C 174.886719 85.816406 174.421875 86.226562 174.359375 86.734375 C 174.292969 87.238281 174.65625 87.648438 175.160156 87.648438 C 175.664062 87.648438 176.128906 87.238281 176.191406 86.734375 C 176.253906 86.226562 175.894531 85.816406 175.390625 85.816406 Z M 183.125 86.734375 C 183.0625 87.238281 182.601562 87.648438 182.09375 87.648438 C 181.589844 87.648438 181.230469 87.238281 181.292969 86.734375 C 181.355469 86.226562 181.820312 85.816406 182.324219 85.816406 C 182.832031 85.816406 183.1875 86.226562 183.125 86.734375"/></g></svg>