<svg xmlns="http://www.w3.org/2000/svg" xmlns:xlink="http://www.w3.org/1999/xlink" width="224.88" viewBox="0 0 224.88 225" height="225" version="1.0"><defs><clipPath id="a"><path d="M 0 0.671875 L 167 0.671875 L 167 168 L 0 168 Z M 0 0.671875"/></clipPath><clipPath id="b"><path d="M 111.664062 0.648438 C 54.597656 0.648438 58.160156 25.363281 58.160156 25.363281 L 58.226562 50.972656 L 112.675781 50.972656 L 112.675781 58.660156 L 36.597656 58.660156 C 36.597656 58.660156 0.0820312 54.523438 0.0820312 112.03125 C 0.0820312 169.539062 31.953125 167.5 31.953125 167.5 L 50.972656 167.5 L 50.972656 140.8125 C 50.972656 140.8125 49.949219 108.980469 82.335938 108.980469 L 136.34375 108.980469 C 136.34375 108.980469 166.683594 109.472656 166.683594 79.691406 L 166.683594 30.449219 C 166.683594 30.449219 171.296875 0.648438 111.664062 0.648438 Z M 81.636719 17.867188 C 87.054688 17.867188 91.429688 22.242188 91.429688 27.652344 C 91.429688 33.0625 87.054688 37.4375 81.636719 37.4375 C 76.21875 37.4375 71.839844 33.0625 71.839844 27.652344 C 71.839844 22.242188 76.21875 17.867188 81.636719 17.867188 Z M 81.636719 17.867188"/></clipPath><clipPath id="d"><path d="M 58 57 L 224.761719 57 L 224.761719 224 L 58 224 Z M 58 57"/></clipPath><clipPath id="e"><path d="M 113.285156 223.992188 C 170.347656 223.992188 166.78125 199.273438 166.78125 199.273438 L 166.71875 173.664062 L 112.265625 173.664062 L 112.265625 165.980469 L 188.34375 165.980469 C 188.34375 165.980469 224.863281 170.113281 224.863281 112.609375 C 224.863281 55.101562 192.992188 57.140625 192.992188 57.140625 L 173.972656 57.140625 L 173.972656 83.824219 C 173.972656 83.824219 174.992188 115.660156 142.613281 115.660156 L 88.597656 115.660156 C 88.597656 115.660156 58.257812 115.167969 58.257812 144.953125 L 58.257812 194.191406 C 58.257812 194.191406 53.648438 223.992188 113.285156 223.992188 Z M 143.308594 206.769531 C 137.894531 206.769531 133.511719 202.394531 133.511719 196.988281 C 133.511719 191.570312 137.894531 187.203125 143.308594 187.203125 C 148.730469 187.203125 153.105469 191.570312 153.105469 196.988281 C 153.105469 202.394531 148.730469 206.769531 143.308594 206.769531 Z M 143.308594 206.769531"/></clipPath><linearGradient x1=".004" gradientTransform="matrix(166.68496 0 0 166.86148 .082 .649)" y1="-.004" x2="1.028" gradientUnits="userSpaceOnUse" y2="1.012" xlink:type="simple" xlink:actuate="onLoad" id="c" xlink:show="other"><stop stop-color="#387EB8" offset="0"/><stop stop-color="#387EB8" offset=".125"/><stop stop-color="#387EB8" offset=".141"/><stop stop-color="#387DB7" offset=".156"/><stop stop-color="#387DB6" offset=".172"/><stop stop-color="#387CB5" offset=".188"/><stop stop-color="#387CB4" offset=".203"/><stop stop-color="#387BB3" offset=".219"/><stop stop-color="#387BB2" offset=".234"/><stop stop-color="#387AB1" offset=".25"/><stop stop-color="#387AB1" offset=".266"/><stop stop-color="#3879B0" offset=".281"/><stop stop-color="#3879AF" offset=".297"/><stop stop-color="#3878AE" offset=".313"/><stop stop-color="#3778AD" offset=".328"/><stop stop-color="#3777AC" offset=".344"/><stop stop-color="#3777AB" offset=".359"/><stop stop-color="#3776AB" offset=".375"/><stop stop-color="#3776AA" offset=".391"/><stop stop-color="#3775A9" offset=".406"/><stop stop-color="#3775A8" offset=".422"/><stop stop-color="#3774A7" offset=".438"/><stop stop-color="#3774A6" offset=".453"/><stop stop-color="#3773A5" offset=".469"/><stop stop-color="#3773A4" offset=".484"/><stop stop-color="#3772A4" offset=".494"/><stop stop-color="#3772A3" offset=".5"/><stop stop-color="#3772A3" offset=".506"/><stop stop-color="#3771A2" offset=".516"/><stop stop-color="#3771A2" offset=".531"/><stop stop-color="#3771A1" offset=".547"/><stop stop-color="#3770A0" offset=".563"/><stop stop-color="#37709F" offset=".578"/><stop stop-color="#376F9E" offset=".594"/><stop stop-color="#376F9D" offset=".609"/><stop stop-color="#376E9D" offset=".625"/><stop stop-color="#366E9C" offset=".641"/><stop stop-color="#366D9B" offset=".656"/><stop stop-color="#366D9A" offset=".672"/><stop stop-color="#366C99" offset=".688"/><stop stop-color="#366C98" offset=".703"/><stop stop-color="#366B97" offset=".719"/><stop stop-color="#366B97" offset=".734"/><stop stop-color="#366A96" offset=".75"/><stop stop-color="#366A95" offset=".766"/><stop stop-color="#366994" offset=".781"/><stop stop-color="#366994" offset=".813"/><stop stop-color="#366994" offset=".875"/><stop stop-color="#366994" offset="1"/></linearGradient><linearGradient x1="-.033" gradientTransform="matrix(166.69002 0 0 166.86232 58.174 57.13)" y1="-.006" x2="1.014" gradientUnits="userSpaceOnUse" y2=".985" xlink:type="simple" xlink:actuate="onLoad" id="f" xlink:show="other"><stop stop-color="#FFE052" offset="0"/><stop stop-color="#FFE052" offset=".125"/><stop stop-color="#FFE052" offset=".188"/><stop stop-color="#FFE052" offset=".219"/><stop stop-color="#FFDF52" offset=".234"/><stop stop-color="#FFDF51" offset=".25"/><stop stop-color="#FFDE50" offset=".266"/><stop stop-color="#FFDD4F" offset=".281"/><stop stop-color="#FFDD4E" offset=".297"/><stop stop-color="#FFDC4E" offset=".313"/><stop stop-color="#FFDB4D" offset=".328"/><stop stop-color="#FFDB4C" offset=".344"/><stop stop-color="#FFDA4B" offset=".359"/><stop stop-color="#FFD94B" offset=".375"/><stop stop-color="#FFD94A" offset=".391"/><stop stop-color="#FFD849" offset=".406"/><stop stop-color="#FFD748" offset=".422"/><stop stop-color="#FFD748" offset=".438"/><stop stop-color="#FFD647" offset=".453"/><stop stop-color="#FFD546" offset=".469"/><stop stop-color="#FFD545" offset=".483"/><stop stop-color="#FFD545" offset=".484"/><stop stop-color="#FFD445" offset=".5"/><stop stop-color="#FFD444" offset=".516"/><stop stop-color="#FFD343" offset=".517"/><stop stop-color="#FFD343" offset=".531"/><stop stop-color="#FFD242" offset=".547"/><stop stop-color="#FFD242" offset=".563"/><stop stop-color="#FFD141" offset=".578"/><stop stop-color="#FFD040" offset=".594"/><stop stop-color="#FFD03F" offset=".609"/><stop stop-color="#FFCF3F" offset=".625"/><stop stop-color="#FFCE3E" offset=".641"/><stop stop-color="#FFCE3D" offset=".656"/><stop stop-color="#FFCD3C" offset=".672"/><stop stop-color="#FFCC3C" offset=".688"/><stop stop-color="#FFCC3B" offset=".703"/><stop stop-color="#FFCB3A" offset=".719"/><stop stop-color="#FFCA39" offset=".734"/><stop stop-color="#FFCA39" offset=".75"/><stop stop-color="#FFC938" offset=".766"/><stop stop-color="#FFC837" offset=".781"/><stop stop-color="#FFC836" offset=".797"/><stop stop-color="#FFC736" offset=".813"/><stop stop-color="#FFC635" offset=".828"/><stop stop-color="#FFC634" offset=".844"/><stop stop-color="#FFC533" offset=".859"/><stop stop-color="#FFC432" offset=".875"/><stop stop-color="#FFC432" offset=".891"/><stop stop-color="#FFC331" offset=".906"/><stop stop-color="#FFC331" offset=".938"/><stop stop-color="#FFC331" offset="1"/></linearGradient></defs><g clip-path="url(#a)"><g clip-path="url(#b)"><path fill="url(#c)" d="M 0.0820312 0.671875 L 0.0820312 169.539062 L 171.296875 169.539062 L 171.296875 0.671875 Z M 0.0820312 0.671875"/></g></g><g clip-path="url(#d)"><g clip-path="url(#e)"><path fill="url(#f)" d="M 53.648438 55.101562 L 53.648438 223.992188 L 224.761719 223.992188 L 224.761719 55.101562 Z M 53.648438 55.101562"/></g></g></svg>