<svg xmlns="http://www.w3.org/2000/svg" width="224.88" viewBox="0 0 224.88 225" height="225" version="1.0"><defs><clipPath id="a"><path d="M 0 12 L 224.761719 12 L 224.761719 213 L 0 213 Z M 0 12"/></clipPath></defs><g clip-path="url(#a)"><path fill="#00D8FF" d="M 184.742188 77.457031 C 182.421875 76.65625 180.007812 75.894531 177.519531 75.179688 C 177.933594 73.507812 178.308594 71.863281 178.640625 70.242188 C 184.101562 43.664062 180.535156 22.25 168.324219 15.199219 C 156.613281 8.4375 137.46875 15.488281 118.128906 32.339844 C 116.269531 33.960938 114.402344 35.675781 112.546875 37.472656 C 111.300781 36.28125 110.0625 35.132812 108.828125 34.035156 C 88.5625 16.015625 68.246094 8.421875 56.050781 15.492188 C 44.355469 22.273438 40.890625 42.402344 45.8125 67.59375 C 46.289062 70.027344 46.84375 72.511719 47.472656 75.039062 C 44.597656 75.855469 41.820312 76.726562 39.167969 77.65625 C 15.40625 85.949219 0.234375 98.949219 0.234375 112.433594 C 0.234375 126.355469 16.523438 140.332031 41.269531 148.800781 C 43.222656 149.46875 45.25 150.101562 47.335938 150.699219 C 46.660156 153.425781 46.070312 156.105469 45.574219 158.71875 C 40.882812 183.472656 44.546875 203.128906 56.210938 209.859375 C 68.257812 216.820312 88.480469 209.667969 108.171875 192.4375 C 109.730469 191.074219 111.292969 189.628906 112.851562 188.117188 C 114.886719 190.066406 116.910156 191.917969 118.917969 193.65625 C 137.992188 210.089844 156.832031 216.726562 168.480469 209.976562 C 180.519531 202.996094 184.4375 181.875 179.351562 156.191406 C 178.964844 154.226562 178.511719 152.226562 178.011719 150.1875 C 179.429688 149.765625 180.824219 149.328125 182.183594 148.878906 C 207.910156 140.339844 224.644531 126.550781 224.644531 112.433594 C 224.644531 98.898438 208.980469 85.8125 184.742188 77.457031 Z M 179.167969 139.769531 C 177.941406 140.171875 176.679688 140.566406 175.398438 140.945312 C 172.558594 131.949219 168.726562 122.371094 164.027344 112.476562 C 168.507812 102.824219 172.191406 93.371094 174.953125 84.425781 C 177.246094 85.09375 179.472656 85.792969 181.621094 86.535156 C 202.390625 93.695312 215.054688 104.28125 215.054688 112.433594 C 215.054688 121.117188 201.382812 132.394531 179.167969 139.769531 Z M 169.945312 158.054688 C 172.199219 169.414062 172.515625 179.683594 171.023438 187.714844 C 169.691406 194.929688 167 199.738281 163.679688 201.664062 C 156.605469 205.761719 141.480469 200.433594 125.175781 186.378906 C 123.300781 184.765625 121.417969 183.042969 119.53125 181.226562 C 125.851562 174.300781 132.171875 166.253906 138.34375 157.308594 C 149.1875 156.351562 159.433594 154.769531 168.734375 152.621094 C 169.191406 154.472656 169.59375 156.28125 169.945312 158.054688 Z M 76.746094 200.953125 C 69.835938 203.402344 64.332031 203.46875 61.003906 201.546875 C 53.925781 197.457031 50.984375 181.675781 54.996094 160.511719 C 55.457031 158.089844 56.003906 155.59375 56.636719 153.050781 C 65.828125 155.085938 76.003906 156.550781 86.878906 157.429688 C 93.089844 166.183594 99.59375 174.222656 106.140625 181.261719 C 104.710938 182.648438 103.28125 183.964844 101.863281 185.203125 C 93.15625 192.832031 84.433594 198.238281 76.746094 200.953125 Z M 44.375 139.714844 C 33.429688 135.96875 24.394531 131.105469 18.199219 125.785156 C 12.632812 121.019531 9.824219 116.277344 9.824219 112.433594 C 9.824219 104.253906 22.007812 93.8125 42.324219 86.71875 C 44.789062 85.859375 47.371094 85.046875 50.050781 84.285156 C 52.859375 93.433594 56.542969 103 60.988281 112.664062 C 56.484375 122.476562 52.746094 132.195312 49.914062 141.453125 C 48.003906 140.902344 46.152344 140.320312 44.375 139.714844 Z M 55.222656 65.75 C 51.007812 44.167969 53.808594 27.886719 60.855469 23.800781 C 68.363281 19.449219 84.964844 25.65625 102.457031 41.210938 C 103.582031 42.207031 104.703125 43.246094 105.832031 44.324219 C 99.3125 51.335938 92.867188 59.316406 86.714844 68.015625 C 76.160156 68.992188 66.054688 70.566406 56.765625 72.675781 C 56.183594 70.320312 55.667969 68.011719 55.222656 65.75 Z M 152.019531 89.6875 C 149.800781 85.847656 147.523438 82.097656 145.199219 78.449219 C 152.363281 79.355469 159.21875 80.558594 165.660156 82.03125 C 163.730469 88.238281 161.320312 94.726562 158.480469 101.382812 C 156.445312 97.511719 154.289062 93.609375 152.019531 89.6875 Z M 112.546875 51.183594 C 116.972656 55.984375 121.398438 61.339844 125.757812 67.148438 C 121.363281 66.941406 116.921875 66.832031 112.441406 66.832031 C 108.003906 66.832031 103.597656 66.9375 99.230469 67.144531 C 103.585938 61.386719 108.058594 56.039062 112.546875 51.183594 Z M 72.820312 89.753906 C 70.601562 93.605469 68.488281 97.484375 66.484375 101.375 C 63.691406 94.742188 61.304688 88.222656 59.355469 81.929688 C 65.757812 80.492188 72.585938 79.320312 79.699219 78.429688 C 77.34375 82.113281 75.042969 85.890625 72.820312 89.753906 Z M 79.902344 147.117188 C 72.554688 146.300781 65.621094 145.183594 59.222656 143.789062 C 61.203125 137.382812 63.644531 130.726562 66.496094 123.949219 C 68.503906 127.839844 70.625 131.71875 72.859375 135.582031 C 75.132812 139.515625 77.488281 143.359375 79.902344 147.117188 Z M 112.808594 174.355469 C 108.269531 169.445312 103.734375 164.015625 99.308594 158.175781 C 103.605469 158.34375 107.988281 158.429688 112.441406 158.429688 C 117.015625 158.429688 121.539062 158.324219 125.984375 158.132812 C 121.617188 164.074219 117.199219 169.515625 112.808594 174.355469 Z M 158.566406 123.609375 C 161.566406 130.457031 164.097656 137.074219 166.105469 143.375 C 159.601562 144.859375 152.570312 146.054688 145.171875 146.949219 C 147.503906 143.253906 149.800781 139.433594 152.0625 135.511719 C 154.351562 131.542969 156.515625 127.566406 158.566406 123.609375 Z M 143.753906 130.71875 C 140.246094 136.8125 136.644531 142.621094 132.988281 148.109375 C 126.335938 148.582031 119.453125 148.828125 112.441406 148.828125 C 105.453125 148.828125 98.660156 148.617188 92.121094 148.1875 C 88.316406 142.628906 84.640625 136.800781 81.152344 130.773438 L 81.15625 130.773438 C 77.679688 124.757812 74.476562 118.691406 71.578125 112.664062 C 74.476562 106.625 77.667969 100.550781 81.125 94.546875 C 84.589844 88.53125 88.238281 82.726562 92.007812 77.203125 C 98.679688 76.695312 105.523438 76.433594 112.441406 76.433594 C 119.390625 76.433594 126.238281 76.699219 132.910156 77.207031 C 136.625 82.695312 140.246094 88.476562 143.726562 94.496094 C 147.242188 100.585938 150.476562 106.613281 153.394531 112.53125 C 150.484375 118.542969 147.261719 124.636719 143.753906 130.71875 Z M 163.53125 23.511719 C 171.050781 27.851562 173.96875 45.355469 169.246094 68.304688 C 168.949219 69.769531 168.605469 71.257812 168.238281 72.769531 C 158.925781 70.621094 148.820312 69.019531 138.238281 68.023438 C 132.066406 59.230469 125.675781 51.238281 119.261719 44.316406 C 120.988281 42.65625 122.714844 41.070312 124.425781 39.578125 C 140.992188 25.140625 156.480469 19.441406 163.53125 23.511719 Z M 112.441406 92.363281 C 123.503906 92.363281 132.480469 101.34375 132.480469 112.433594 C 132.480469 123.507812 123.503906 132.5 112.441406 132.5 C 101.378906 132.5 92.402344 123.507812 92.402344 112.433594 C 92.402344 101.34375 101.378906 92.363281 112.441406 92.363281 Z M 112.441406 92.363281"/></g></svg>