<svg xmlns="http://www.w3.org/2000/svg" width="224.88" viewBox="0 0 224.88 225" height="225" version="1.0"><defs><clipPath id="a"><path d="M 195 9 L 224.761719 9 L 224.761719 41 L 195 41 Z M 195 9"/></clipPath><clipPath id="b"><path d="M 177 0.0585938 L 200 0.0585938 L 200 23 L 177 23 Z M 177 0.0585938"/></clipPath><clipPath id="c"><path d="M 0 0.0585938 L 164 0.0585938 L 164 203 L 0 203 Z M 0 0.0585938"/></clipPath><clipPath id="d"><path d="M 21 22 L 186 22 L 186 224.9375 L 21 224.9375 Z M 21 22"/></clipPath><clipPath id="e"><path d="M 132 132 L 224.761719 132 L 224.761719 224.9375 L 132 224.9375 Z M 132 132"/></clipPath></defs><path fill="#D5DC57" d="M 210.117188 11.230469 C 209.148438 22.738281 197.15625 24.554688 197.15625 24.554688 C 207.453125 25.039062 210.015625 38.542969 210.015625 38.542969 C 210.234375 28.914062 223.273438 24.414062 223.273438 24.414062 C 213.503906 23.828125 210.117188 11.230469 210.117188 11.230469 Z M 210.117188 11.230469"/><g clip-path="url(#a)"><path fill="#3A312A" d="M 223.359375 22.921875 C 214.796875 22.410156 211.585938 10.957031 211.558594 10.84375 C 211.367188 10.144531 210.710938 9.683594 209.980469 9.742188 C 209.257812 9.8125 208.6875 10.382812 208.628906 11.105469 C 207.773438 21.269531 197.371094 23.011719 196.933594 23.078125 C 196.171875 23.191406 195.625 23.863281 195.664062 24.628906 C 195.703125 25.398438 196.316406 26.007812 197.085938 26.046875 C 206.070312 26.46875 208.527344 38.699219 208.550781 38.824219 C 208.6875 39.53125 209.308594 40.035156 210.015625 40.035156 C 210.058594 40.035156 210.101562 40.03125 210.140625 40.03125 C 210.902344 39.964844 211.492188 39.339844 211.511719 38.578125 C 211.703125 30.113281 223.640625 25.863281 223.761719 25.824219 C 224.433594 25.589844 224.847656 24.914062 224.75 24.207031 C 224.652344 23.503906 224.074219 22.964844 223.359375 22.921875 Z M 209.863281 33.214844 C 208.511719 30.101562 206.171875 26.34375 202.3125 24.382812 C 205.230469 22.984375 208.691406 20.488281 210.472656 16.152344 C 212.019531 19.207031 214.652344 22.996094 218.765625 24.832031 C 215.773438 26.460938 211.878906 29.214844 209.863281 33.214844 Z M 209.863281 33.214844"/></g><path fill="#D5DC57" d="M 188.527344 28.125 C 187.839844 36.265625 179.359375 37.550781 179.359375 37.550781 C 186.640625 37.890625 188.457031 47.445312 188.457031 47.445312 C 188.609375 40.632812 197.832031 37.449219 197.832031 37.449219 C 190.921875 37.039062 188.527344 28.125 188.527344 28.125 Z M 188.527344 28.125"/><path fill="#3A312A" d="M 197.917969 35.960938 C 192.183594 35.617188 189.988281 27.816406 189.964844 27.738281 C 189.777344 27.039062 189.105469 26.578125 188.390625 26.640625 C 187.667969 26.707031 187.097656 27.28125 187.035156 28 C 186.460938 34.835938 179.425781 36.027344 179.136719 36.074219 C 178.375 36.191406 177.828125 36.859375 177.867188 37.628906 C 177.910156 38.394531 178.523438 39.003906 179.289062 39.042969 C 185.292969 39.324219 186.972656 47.644531 186.988281 47.722656 C 187.125 48.433594 187.742188 48.9375 188.457031 48.9375 C 188.496094 48.9375 188.539062 48.9375 188.578125 48.933594 C 189.339844 48.871094 189.929688 48.242188 189.949219 47.480469 C 190.078125 41.800781 198.238281 38.886719 198.316406 38.863281 C 198.992188 38.628906 199.40625 37.953125 199.308594 37.246094 C 199.210938 36.542969 198.628906 36.003906 197.917969 35.960938 Z M 188.378906 42.722656 C 187.460938 40.847656 186.054688 38.792969 183.957031 37.46875 C 185.800781 36.429688 187.636719 34.851562 188.804688 32.574219 C 189.855469 34.441406 191.445312 36.511719 193.71875 37.773438 C 191.878906 38.871094 189.75 40.5 188.378906 42.722656 Z M 188.378906 42.722656"/><path fill="#D5DC57" d="M 188.527344 1.601562 C 187.839844 9.742188 179.359375 11.027344 179.359375 11.027344 C 186.640625 11.367188 188.457031 20.921875 188.457031 20.921875 C 188.609375 14.109375 197.832031 10.925781 197.832031 10.925781 C 190.921875 10.511719 188.527344 1.601562 188.527344 1.601562 Z M 188.527344 1.601562"/><g clip-path="url(#b)"><path fill="#3A312A" d="M 197.917969 9.433594 C 192.183594 9.09375 189.988281 1.289062 189.964844 1.210938 C 189.777344 0.511719 189.105469 0.0507812 188.390625 0.113281 C 187.667969 0.179688 187.097656 0.753906 187.035156 1.476562 C 186.460938 8.3125 179.425781 9.503906 179.136719 9.550781 C 178.375 9.664062 177.828125 10.335938 177.867188 11.105469 C 177.910156 11.867188 178.523438 12.480469 179.289062 12.515625 C 185.292969 12.796875 186.972656 21.121094 186.988281 21.199219 C 187.125 21.910156 187.742188 22.414062 188.457031 22.414062 C 188.496094 22.414062 188.539062 22.414062 188.578125 22.410156 C 189.339844 22.34375 189.929688 21.71875 189.949219 20.957031 C 190.078125 15.273438 198.238281 12.363281 198.316406 12.335938 C 198.992188 12.105469 199.40625 11.429688 199.308594 10.722656 C 199.210938 10.015625 198.628906 9.480469 197.917969 9.433594 Z M 188.378906 16.195312 C 187.460938 14.320312 186.054688 12.269531 183.957031 10.941406 C 185.800781 9.90625 187.636719 8.324219 188.804688 6.050781 C 189.855469 7.917969 191.445312 9.984375 193.71875 11.25 C 191.878906 12.34375 189.75 13.976562 188.378906 16.195312 Z M 188.378906 16.195312"/></g><path fill="#8AC5DC" d="M 161.375 21.917969 C 161.265625 10.660156 152.074219 1.589844 140.765625 1.582031 L 22.105469 1.523438 C 10.714844 1.515625 1.476562 10.710938 1.476562 22.054688 L 1.476562 180.039062 C 1.476562 191.390625 10.679688 200.59375 22.03125 200.59375 L 141.125 200.59375 C 152.476562 200.59375 161.675781 191.386719 161.675781 180.039062 L 161.675781 53.332031 Z M 161.375 21.917969"/><g clip-path="url(#c)"><path fill="#3A312A" d="M 162.867188 21.90625 C 162.75 9.882812 152.835938 0.0976562 140.769531 0.0898438 L 22.105469 0.0273438 C 22.101562 0.0273438 22.097656 0.0273438 22.09375 0.0273438 C 16.191406 0.0273438 10.640625 2.316406 6.464844 6.472656 C 2.285156 10.636719 -0.015625 16.167969 -0.015625 22.054688 L -0.015625 60.292969 C -0.015625 61.117188 0.652344 61.785156 1.476562 61.785156 C 2.300781 61.785156 2.96875 61.117188 2.96875 60.292969 L 2.96875 22.054688 C 2.96875 16.96875 4.957031 12.1875 8.570312 8.589844 C 12.183594 4.992188 16.988281 3.015625 22.09375 3.015625 L 22.105469 3.015625 L 140.765625 3.078125 C 151.207031 3.082031 159.78125 11.542969 159.882812 21.933594 L 160.183594 53.332031 L 160.183594 180.039062 C 160.183594 190.546875 151.632812 199.101562 141.125 199.101562 L 22.03125 199.101562 C 11.519531 199.101562 2.96875 190.546875 2.96875 180.039062 L 2.96875 74.222656 C 2.96875 73.398438 2.300781 72.730469 1.476562 72.730469 C 0.652344 72.730469 -0.015625 73.398438 -0.015625 74.222656 L -0.015625 180.039062 C -0.015625 192.195312 9.875 202.085938 22.03125 202.085938 L 141.125 202.085938 C 153.28125 202.085938 163.171875 192.195312 163.171875 180.039062 L 163.171875 53.316406 Z M 162.867188 21.90625"/></g><path fill="#F4E0C4" d="M 131.777344 24.4375 L 44.0625 24.4375 C 32.613281 24.4375 23.316406 33.734375 23.316406 45.183594 L 23.316406 202.703125 C 23.316406 214.152344 32.613281 223.449219 44.0625 223.449219 L 162.773438 223.449219 C 174.222656 223.449219 183.519531 214.152344 183.519531 202.703125 L 183.519531 76.210938 Z M 131.777344 24.4375"/><g clip-path="url(#d)"><path fill="#3A312A" d="M 184.574219 75.15625 L 132.832031 23.382812 C 132.550781 23.105469 132.171875 22.945312 131.777344 22.945312 L 44.0625 22.945312 C 31.800781 22.945312 21.824219 32.921875 21.824219 45.183594 L 21.824219 202.703125 C 21.824219 214.964844 31.800781 224.941406 44.0625 224.941406 L 66.40625 224.941406 C 67.230469 224.941406 67.898438 224.269531 67.898438 223.449219 C 67.898438 222.625 67.230469 221.953125 66.40625 221.953125 L 44.0625 221.953125 C 33.449219 221.953125 24.808594 213.316406 24.808594 202.703125 L 24.808594 45.183594 C 24.808594 34.566406 33.449219 25.929688 44.0625 25.929688 L 131.15625 25.929688 L 182.027344 76.828125 L 182.027344 202.703125 C 182.027344 213.316406 173.386719 221.953125 162.773438 221.953125 L 80.066406 221.953125 C 79.242188 221.953125 78.574219 222.625 78.574219 223.449219 C 78.574219 224.269531 79.242188 224.941406 80.066406 224.941406 L 162.773438 224.941406 C 175.035156 224.941406 185.011719 214.964844 185.011719 202.703125 L 185.011719 76.210938 C 185.011719 75.816406 184.855469 75.433594 184.574219 75.15625 Z M 184.574219 75.15625"/></g><path fill="#3A312A" d="M 154.710938 61.253906 L 53.21875 61.253906 C 52.394531 61.253906 51.726562 61.921875 51.726562 62.746094 C 51.726562 63.570312 52.394531 64.242188 53.21875 64.242188 L 154.710938 64.242188 C 155.535156 64.242188 156.203125 63.570312 156.203125 62.746094 C 156.203125 61.921875 155.535156 61.253906 154.710938 61.253906 Z M 154.710938 61.253906"/><path fill="#3A312A" d="M 154.710938 92.734375 L 53.21875 92.734375 C 52.394531 92.734375 51.726562 93.402344 51.726562 94.226562 C 51.726562 95.050781 52.394531 95.71875 53.21875 95.71875 L 154.710938 95.71875 C 155.535156 95.71875 156.203125 95.050781 156.203125 94.226562 C 156.203125 93.402344 155.535156 92.734375 154.710938 92.734375 Z M 154.710938 92.734375"/><path fill="#3A312A" d="M 154.710938 124.210938 L 53.21875 124.210938 C 52.394531 124.210938 51.726562 124.878906 51.726562 125.703125 C 51.726562 126.527344 52.394531 127.199219 53.21875 127.199219 L 154.710938 127.199219 C 155.535156 127.199219 156.203125 126.527344 156.203125 125.703125 C 156.203125 124.878906 155.535156 124.210938 154.710938 124.210938 Z M 154.710938 124.210938"/><path fill="#3A312A" d="M 154.710938 155.6875 L 53.21875 155.6875 C 52.394531 155.6875 51.726562 156.355469 51.726562 157.179688 C 51.726562 158.003906 52.394531 158.671875 53.21875 158.671875 L 154.710938 158.671875 C 155.535156 158.671875 156.203125 158.003906 156.203125 157.179688 C 156.203125 156.355469 155.535156 155.6875 154.710938 155.6875 Z M 154.710938 155.6875"/><path fill="#3A312A" d="M 154.664062 187.128906 L 53.167969 187.128906 C 52.34375 187.128906 51.675781 187.796875 51.675781 188.621094 C 51.675781 189.445312 52.34375 190.113281 53.167969 190.113281 L 154.664062 190.113281 C 155.488281 190.113281 156.15625 189.445312 156.15625 188.621094 C 156.15625 187.796875 155.488281 187.128906 154.664062 187.128906 Z M 154.664062 187.128906"/><path fill="#F4E0C4" d="M 131.777344 24.4375 L 131.777344 58.070312 C 131.777344 68.160156 139.953125 76.339844 150.046875 76.339844 L 183.519531 76.339844 L 183.519531 76.210938 Z M 131.777344 24.4375"/><path fill="#3A312A" d="M 184.574219 75.15625 L 132.832031 23.382812 C 132.40625 22.957031 131.765625 22.828125 131.207031 23.058594 C 130.648438 23.289062 130.285156 23.835938 130.285156 24.4375 L 130.285156 58.070312 C 130.285156 68.96875 139.148438 77.832031 150.046875 77.832031 L 183.519531 77.832031 C 184.34375 77.832031 185.011719 77.164062 185.011719 76.339844 L 185.011719 76.210938 C 185.011719 75.816406 184.855469 75.433594 184.574219 75.15625 Z M 150.046875 74.847656 C 140.792969 74.847656 133.269531 67.320312 133.269531 58.070312 L 133.269531 28.042969 L 180.046875 74.847656 Z M 150.046875 74.847656"/><path fill="#DECAAD" d="M 164.117188 77.832031 L 164.117188 135.375 C 168.710938 133.824219 173.628906 132.988281 178.742188 132.988281 C 179.847656 132.988281 180.941406 133.039062 182.027344 133.117188 L 182.027344 77.832031 Z M 164.117188 77.832031"/><path fill="#F16C7A" d="M 223.238281 178.894531 C 223.238281 203.496094 203.296875 223.441406 178.695312 223.441406 C 154.09375 223.441406 134.152344 203.496094 134.152344 178.894531 C 134.152344 154.292969 154.09375 134.347656 178.695312 134.347656 C 203.296875 134.347656 223.238281 154.292969 223.238281 178.894531 Z M 223.238281 178.894531"/><g clip-path="url(#e)"><path fill="#3A312A" d="M 178.695312 132.855469 C 153.308594 132.855469 132.65625 153.507812 132.65625 178.894531 C 132.65625 204.28125 153.308594 224.933594 178.695312 224.933594 C 204.078125 224.933594 224.730469 204.28125 224.730469 178.894531 C 224.730469 153.507812 204.078125 132.855469 178.695312 132.855469 Z M 178.695312 221.945312 C 154.957031 221.945312 135.644531 202.632812 135.644531 178.894531 C 135.644531 155.15625 154.957031 135.84375 178.695312 135.84375 C 202.433594 135.84375 221.746094 155.15625 221.746094 178.894531 C 221.746094 202.632812 202.433594 221.945312 178.695312 221.945312 Z M 178.695312 221.945312"/></g><path fill="#87796F" d="M 186.433594 179.605469 L 200.402344 165.632812 C 202.527344 163.507812 202.527344 160.058594 200.402344 157.9375 C 198.28125 155.808594 194.832031 155.808594 192.710938 157.9375 L 178.734375 171.910156 L 164.765625 157.9375 C 162.640625 155.808594 159.191406 155.808594 157.066406 157.9375 C 154.941406 160.058594 154.941406 163.507812 157.066406 165.632812 L 171.042969 179.605469 L 157.066406 193.578125 C 154.941406 195.703125 154.941406 199.148438 157.066406 201.273438 C 158.128906 202.335938 159.523438 202.867188 160.914062 202.867188 C 162.308594 202.867188 163.699219 202.335938 164.761719 201.273438 L 178.734375 187.300781 L 192.707031 201.273438 C 193.769531 202.335938 195.164062 202.867188 196.554688 202.867188 C 197.949219 202.867188 199.339844 202.335938 200.402344 201.273438 C 202.527344 199.148438 202.527344 195.703125 200.402344 193.578125 Z M 186.433594 179.605469"/><path fill="#3A312A" d="M 188.542969 179.605469 L 201.457031 166.6875 C 202.765625 165.378906 203.488281 163.636719 203.488281 161.785156 C 203.488281 159.933594 202.765625 158.191406 201.460938 156.882812 C 200.152344 155.570312 198.410156 154.851562 196.554688 154.851562 C 194.703125 154.851562 192.960938 155.570312 191.652344 156.882812 L 178.734375 169.800781 L 165.820312 156.882812 C 164.511719 155.570312 162.769531 154.851562 160.914062 154.851562 C 159.0625 154.851562 157.320312 155.570312 156.011719 156.882812 C 154.703125 158.191406 153.980469 159.933594 153.980469 161.785156 C 153.980469 163.636719 154.703125 165.378906 156.011719 166.6875 L 168.929688 179.605469 L 156.011719 192.523438 C 154.703125 193.832031 153.980469 195.574219 153.980469 197.425781 C 153.980469 199.277344 154.703125 201.019531 156.011719 202.328125 C 157.320312 203.636719 159.0625 204.359375 160.914062 204.359375 C 162.769531 204.359375 164.511719 203.636719 165.820312 202.328125 L 178.734375 189.410156 L 191.652344 202.324219 C 192.960938 203.636719 194.699219 204.359375 196.554688 204.359375 C 198.410156 204.359375 200.152344 203.636719 201.457031 202.328125 C 202.765625 201.015625 203.488281 199.277344 203.488281 197.425781 C 203.488281 195.574219 202.765625 193.832031 201.457031 192.523438 Z M 199.347656 200.21875 C 197.859375 201.710938 195.253906 201.710938 193.765625 200.214844 L 179.792969 186.246094 C 179.5 185.953125 179.121094 185.808594 178.734375 185.808594 C 178.355469 185.808594 177.972656 185.953125 177.679688 186.246094 L 163.707031 200.21875 C 162.214844 201.710938 159.613281 201.710938 158.125 200.214844 C 157.378906 199.472656 156.964844 198.480469 156.964844 197.425781 C 156.964844 196.371094 157.378906 195.382812 158.125 194.636719 L 172.097656 180.660156 C 172.375 180.378906 172.535156 180 172.535156 179.605469 C 172.535156 179.210938 172.375 178.828125 172.097656 178.546875 L 158.125 164.578125 C 157.378906 163.832031 156.964844 162.839844 156.964844 161.785156 C 156.964844 160.730469 157.378906 159.738281 158.125 158.992188 C 159.613281 157.5 162.214844 157.5 163.707031 158.992188 L 177.679688 172.96875 C 178.265625 173.550781 179.207031 173.550781 179.789062 172.96875 L 193.765625 158.992188 C 195.253906 157.5 197.855469 157.5 199.347656 158.992188 C 200.09375 159.738281 200.503906 160.730469 200.503906 161.785156 C 200.503906 162.839844 200.09375 163.832031 199.347656 164.578125 L 185.375 178.546875 C 185.09375 178.828125 184.9375 179.210938 184.9375 179.605469 C 184.9375 180 185.09375 180.378906 185.375 180.660156 L 199.347656 194.636719 C 200.09375 195.378906 200.503906 196.371094 200.503906 197.425781 C 200.503906 198.476562 200.09375 199.472656 199.347656 200.21875 Z M 199.347656 200.21875"/></svg>